SplineFontDB: 3.0
FontName: JuraLight
FullName: Jura Light
FamilyName: Jura
Weight: Light
Copyright: Copyright 2009, 2010, 2011 by Daniel Johnson.  Released under the terms of the Open Font License.
Version: 2.6.1
ItalicAngle: 0
UnderlinePosition: -102
UnderlineWidth: 51
Ascent: 819
Descent: 205
LayerCount: 2
Layer: 0 0 "Back"  1
Layer: 1 1 "Fore"  0
XUID: [1021 338 342 13180]
FSType: 0
OS2Version: 2
OS2_WeightWidthSlopeOnly: 0
OS2_UseTypoMetrics: 1
CreationTime: 1232036477
ModificationTime: 1315628246
PfmFamily: 17
TTFWeight: 300
TTFWidth: 5
LineGap: 0
VLineGap: 0
Panose: 2 0 3 3 0 0 0 0 0 0
OS2TypoAscent: 879
OS2TypoAOffset: 0
OS2TypoDescent: -257
OS2TypoDOffset: 0
OS2TypoLinegap: 0
OS2WinAscent: 879
OS2WinAOffset: 0
OS2WinDescent: 257
OS2WinDOffset: 0
HheadAscent: 879
HheadAOffset: 0
HheadDescent: -257
HheadDOffset: 0
OS2SubXSize: 665
OS2SubYSize: 716
OS2SubXOff: 0
OS2SubYOff: 143
OS2SupXSize: 665
OS2SupYSize: 716
OS2SupXOff: 0
OS2SupYOff: 491
OS2StrikeYSize: 51
OS2StrikeYPos: 265
OS2Vendor: 'PfEd'
OS2CodePages: 2000009f.00000000
OS2UnicodeRanges: a00002ef.5000204b.00000020.00000000
Lookup: 260 0 0 "'abvm' Above Base Mark lookup 1"  {"'abvm' Above Base Mark lookup 1-1"  } ['abvm' ('DFLT' <'dflt' > 'cyrl' <'dflt' > 'grek' <'dflt' > 'latn' <'dflt' > ) ]
Lookup: 260 0 0 "'blwm' Below Base Mark lookup 2"  {"'blwm' Below Base Mark lookup 2-1"  } ['blwm' ('DFLT' <'dflt' > 'cyrl' <'dflt' > 'grek' <'dflt' > 'latn' <'dflt' > ) ]
Lookup: 258 0 0 "'kern' Horizontal Kerning in Latin lookup 0"  {"'kern' Horizontal Kerning in Latin lookup 0 per glyph data 0"  "'kern' Horizontal Kerning in Latin lookup 0 kerning class 1"  } ['kern' ('latn' <'dflt' > ) ]
MarkAttachClasses: 1
DEI: 91125
KernClass2: 157+ 123 "'kern' Horizontal Kerning in Latin lookup 0 kerning class 1" 
 5 space
 2 Xi
 29 Alphatonos Alpha Delta Lambda
 5 Gamma
 20 Epsilontonos Epsilon
 4 Zeta
 5 Kappa
 26 Omicrontonos Theta Omicron
 3 Rho
 5 Sigma
 3 Tau
 36 Upsilontonos Upsilon Upsilondieresis
 3 Phi
 3 Chi

StartChar: .notdef
Encoding: 65536 -1 0
Width: 538
Flags: W
HStem: 0 71<167.864 370.136> 606 72<167.864 370.136>
VStem: 85 71<84.9264 591.558> 382 71<84.9264 591.558>
LayerCount: 2
Fore
SplineSet
156 546 m 2,0,-1
 156 130 l 2,1,2
 156 98 156 98 167.5 84.5 c 128,-1,3
 179 71 179 71 210 71 c 2,4,-1
 328 71 l 2,5,6
 359 71 359 71 370.5 84.5 c 128,-1,7
 382 98 382 98 382 130 c 2,8,-1
 382 546 l 2,9,10
 382 578 382 578 370.5 592 c 128,-1,11
 359 606 359 606 328 606 c 2,12,-1
 210 606 l 2,13,14
 179 606 179 606 167.5 592 c 128,-1,15
 156 578 156 578 156 546 c 2,0,-1
85 0 m 1,16,-1
 85 678 l 1,17,-1
 453 678 l 1,18,-1
 453 0 l 1,19,-1
 85 0 l 1,16,-1
EndSplineSet
Validated: 1
EndChar

StartChar: exclam
Encoding: 33 33 2
Width: 234
Flags: W
HStem: -7 72<75.121 160.012> 624 20G<106.5 127.5>
VStem: 71 93<-0.286133 58.2861> 96 42<169.007 643.993>
LayerCount: 2
Fore
SplineSet
164 29 m 128,-1,1
 164 15 164 15 149 4 c 128,-1,2
 134 -7 134 -7 118 -7 c 128,-1,3
 102 -7 102 -7 86.5 4 c 128,-1,4
 71 15 71 15 71 29 c 128,-1,5
 71 43 71 43 86.5 54 c 128,-1,6
 102 65 102 65 118 65 c 128,-1,7
 134 65 134 65 149 54 c 128,-1,0
 164 43 164 43 164 29 c 128,-1,1
96 616 m 2,8,9
 96 644 96 644 117 644 c 128,-1,10
 138 644 138 644 138 616 c 2,11,-1
 138 197 l 2,12,13
 138 169 138 169 117 169 c 128,-1,14
 96 169 96 169 96 197 c 2,15,-1
 96 616 l 2,8,9
EndSplineSet
Validated: 1
EndChar

StartChar: quotedbl
Encoding: 34 34 3
Width: 285
Flags: W
HStem: 438 205<71.446 111.761 172.251 213.749>
VStem: 71 41<438.007 642.993> 172 42<438.007 642.993>
LayerCount: 2
Fore
SplineSet
214 466 m 2,0,1
 214 438 214 438 193 438 c 128,-1,2
 172 438 172 438 172 466 c 2,3,-1
 172 615 l 2,4,5
 172 643 172 643 193 643 c 128,-1,6
 214 643 214 643 214 615 c 2,7,-1
 214 466 l 2,0,1
112 466 m 2,8,9
 112 438 112 438 92 438 c 128,-1,10
 72 438 72 438 71 466 c 1,11,-1
 71 615 l 1,12,13
 72 643 72 643 92 643 c 128,-1,14
 112 643 112 643 112 615 c 2,15,-1
 112 466 l 2,8,9
EndSplineSet
Validated: 1
EndChar

StartChar: numbersign
Encoding: 35 35 4
Width: 595
Flags: W
HStem: 205 42<45.0068 146 206 325 385 518.993> 389 42<76.0066 213 272 391 452 549.993>
VStem: 263 43<11.0205 32>
LayerCount: 2
Fore
SplineSet
313 625 m 0,0,1
 334 625 334 625 334 605 c 0,2,3
 334 599 334 599 331 590 c 2,4,-1
 272 431 l 1,5,-1
 406 431 l 1,6,-1
 470 604 l 2,7,8
 478 625 478 625 492 625 c 0,9,10
 493 625 493 625 495 625 c 0,11,12
 502 625 502 625 507 620 c 0,13,14
 513 614 513 614 513 606 c 128,-1,15
 513 598 513 598 510 590 c 2,16,-1
 452 431 l 1,17,-1
 522 431 l 2,18,19
 550 431 550 431 550 410 c 128,-1,20
 550 389 550 389 522 389 c 2,21,-1
 436 389 l 1,22,-1
 385 247 l 1,23,-1
 491 247 l 2,24,25
 519 247 519 247 519 226 c 128,-1,26
 519 205 519 205 491 205 c 2,27,-1
 370 205 l 1,28,-1
 306 32 l 2,29,30
 299 11 299 11 284 11 c 0,31,32
 263 11 263 11 263 32 c 0,33,34
 263 38 263 38 266 46 c 2,35,-1
 325 205 l 1,36,-1
 190 205 l 1,37,-1
 127 32 l 2,38,39
 120 11 120 11 105 11 c 0,40,41
 85 11 85 11 85 31 c 0,42,43
 85 37 85 37 88 46 c 2,44,-1
 146 205 l 1,45,-1
 73 205 l 2,46,47
 45 205 45 205 45 226 c 128,-1,48
 45 247 45 247 73 247 c 2,49,-1
 162 247 l 1,50,-1
 213 389 l 1,51,-1
 103 389 l 2,52,53
 76 389 76 389 76 410 c 128,-1,54
 76 431 76 431 103 431 c 2,55,-1
 228 431 l 1,56,-1
 292 604 l 2,57,58
 299 625 299 625 313 625 c 0,0,1
257 389 m 1,59,-1
 206 247 l 1,60,-1
 340 247 l 1,61,-1
 391 389 l 1,62,-1
 257 389 l 1,59,-1
EndSplineSet
Validated: 1
EndChar

StartChar: dollar
Encoding: 36 36 5
Width: 567
Flags: W
HStem: -7 21G<277.5 298.5> 91 42<116.411 267 309 448.863> 306 42<122.709 267 309 443.458> 510 42<118.016 267 309 449.589> 623 20G<277.5 298.5>
VStem: 61 42<148.988 227.991 370.244 495.508> 267 42<-6.99341 91 133 306 348 510 552 642.993> 465 42<148.82 282.439 415.137 494.012>
LayerCount: 2
Fore
SplineSet
156 91 m 2,0,1
 94 91 94 91 78 123 c 0,2,3
 61 156 61 156 61 193 c 0,4,5
 61 228 61 228 82 228 c 128,-1,6
 103 228 103 228 103 196 c 128,-1,7
 103 164 103 164 116 148.5 c 128,-1,8
 129 133 129 133 163 133 c 2,9,-1
 267 133 l 1,10,-1
 267 306 l 1,11,-1
 185 306 l 2,12,13
 61 306 61 306 61 434 c 0,14,15
 61 492 61 492 89.5 522 c 128,-1,16
 118 552 118 552 185 552 c 2,17,-1
 267 552 l 1,18,-1
 267 615 l 2,19,20
 267 643 267 643 288 643 c 128,-1,21
 309 643 309 643 309 615 c 2,22,-1
 309 552 l 1,23,-1
 410 552 l 2,24,25
 472 552 472 552 488 520 c 0,26,27
 505 487 505 487 505 450 c 0,28,29
 505 415 505 415 484 415 c 128,-1,30
 463 415 463 415 463 447 c 128,-1,31
 463 479 463 479 450 494.5 c 128,-1,32
 437 510 437 510 403 510 c 2,33,-1
 309 510 l 1,34,-1
 309 348 l 1,35,-1
 384 348 l 2,36,37
 507 348 507 348 507 214 c 0,38,39
 507 91 507 91 384 91 c 2,40,-1
 309 91 l 1,41,-1
 309 20 l 2,42,43
 309 -7 309 -7 288 -7 c 128,-1,44
 267 -7 267 -7 267 20 c 2,45,-1
 267 91 l 1,46,-1
 156 91 l 2,0,1
309 306 m 1,47,-1
 309 133 l 1,48,-1
 401 133 l 2,49,50
 465 133 465 133 465 214 c 0,51,52
 465 256 465 256 447 281 c 128,-1,53
 429 306 429 306 401 306 c 2,54,-1
 309 306 l 1,47,-1
267 348 m 1,55,-1
 267 510 l 1,56,-1
 167 510 l 2,57,58
 103 510 103 510 103 434 c 0,59,60
 103 393 103 393 121 370.5 c 128,-1,61
 139 348 139 348 167 348 c 2,62,-1
 267 348 l 1,55,-1
EndSplineSet
Validated: 1
EndChar

StartChar: percent
Encoding: 37 37 6
Width: 540
Flags: W
HStem: 106 42<354.255 410.003> 218 42<353.835 410.423> 394 42<127.285 190.561> 506 42<127.285 190.561>
VStem: 81 43<438.816 503.184> 194 41<439.502 502.498> 305 42<155.158 211.1> 417 42<155.158 211.515>
LayerCount: 2
Fore
SplineSet
357.5 208 m 128,-1,1
 347 198 347 198 347 183.5 c 128,-1,2
 347 169 347 169 357.5 158.5 c 128,-1,3
 368 148 368 148 382.5 148 c 128,-1,4
 397 148 397 148 407 158.5 c 128,-1,5
 417 169 417 169 417 183.5 c 128,-1,6
 417 198 417 198 407 208 c 128,-1,7
 397 218 397 218 382.5 218 c 128,-1,0
 368 218 368 218 357.5 208 c 128,-1,1
305 183 m 128,-1,9
 305 214 305 214 327.5 237 c 128,-1,10
 350 260 350 260 382 260 c 128,-1,11
 414 260 414 260 436.5 237 c 128,-1,12
 459 214 459 214 459 183 c 128,-1,13
 459 152 459 152 436.5 129 c 128,-1,14
 414 106 414 106 382 106 c 128,-1,15
 350 106 350 106 327.5 129 c 128,-1,8
 305 152 305 152 305 183 c 128,-1,9
124 471 m 128,-1,17
 124 457 124 457 134.5 446.5 c 128,-1,18
 145 436 145 436 159 436 c 128,-1,19
 173 436 173 436 183.5 446.5 c 128,-1,20
 194 457 194 457 194 471 c 128,-1,21
 194 485 194 485 183.5 495.5 c 128,-1,22
 173 506 173 506 159 506 c 128,-1,23
 145 506 145 506 134.5 495.5 c 128,-1,16
 124 485 124 485 124 471 c 128,-1,17
81 471 m 128,-1,25
 81 503 81 503 104 525.5 c 128,-1,26
 127 548 127 548 158.5 548 c 128,-1,27
 190 548 190 548 212.5 525.5 c 128,-1,28
 235 503 235 503 235 471 c 128,-1,29
 235 439 235 439 212.5 416.5 c 128,-1,30
 190 394 190 394 158.5 394 c 128,-1,31
 127 394 127 394 104 416.5 c 128,-1,24
 81 439 81 439 81 471 c 128,-1,25
430 517 m 1,32,33
 443 528 443 528 450.5 528 c 128,-1,34
 458 528 458 528 464.5 522 c 128,-1,35
 471 516 471 516 471 508 c 128,-1,36
 471 500 471 500 460 487 c 1,37,-1
 110 137 l 2,38,39
 99 126 99 126 90.5 126 c 128,-1,40
 82 126 82 126 75.5 132 c 128,-1,41
 69 138 69 138 69 147 c 128,-1,42
 69 156 69 156 80 167 c 2,43,-1
 430 517 l 1,32,33
EndSplineSet
Validated: 1
EndChar

StartChar: ampersand
Encoding: 38 38 7
Width: 494
Flags: W
HStem: -9 42<154.527 318.388> 605 42<165.543 288.531>
VStem: 37 42<100.417 270.658> 62 44<416.025 549.182> 419 41<140.182 257.932>
LayerCount: 2
Fore
SplineSet
359 563.5 m 128,-1,1
 374 537 374 537 374 528.5 c 128,-1,2
 374 520 374 520 368 514 c 128,-1,3
 362 508 362 508 352.5 508 c 128,-1,4
 343 508 343 508 332 523 c 128,-1,5
 321 538 321 538 311.5 556.5 c 128,-1,6
 302 575 302 575 281.5 590 c 128,-1,7
 261 605 261 605 235 605 c 0,8,9
 186 605 186 605 146 569.5 c 128,-1,10
 106 534 106 534 106 476 c 0,11,12
 106 439 106 439 145 394 c 2,13,-1
 385 117 l 1,14,15
 419 164 419 164 419 227 c 0,16,17
 419 258 419 258 441 258 c 0,18,19
 460 258 460 258 460 227 c 0,20,21
 460 147 460 147 414 84 c 1,22,-1
 462 29 l 2,23,24
 468 22 468 22 468 11 c 0,25,26
 468 -7 468 -7 451 -7 c 0,27,28
 438 -7 438 -7 425 7 c 2,29,-1
 386 52 l 1,30,31
 320 -9 320 -9 245 -9 c 128,-1,32
 170 -9 170 -9 108 32 c 0,33,34
 76 53 76 53 56.5 92 c 128,-1,35
 37 131 37 131 37 181 c 128,-1,36
 37 231 37 231 58.5 279 c 128,-1,37
 80 327 80 327 123 356 c 1,38,-1
 109 373 l 1,39,40
 62 427 62 427 62 476 c 0,41,42
 62 550 62 550 117.5 598.5 c 128,-1,43
 173 647 173 647 237 647 c 0,44,45
 276 647 276 647 310 618.5 c 128,-1,0
 344 590 344 590 359 563.5 c 128,-1,1
359 84 m 1,46,-1
 151 325 l 1,47,48
 114 304 114 304 96.5 264 c 128,-1,49
 79 224 79 224 79 182 c 0,50,51
 79 105 79 105 129 69 c 128,-1,52
 179 33 179 33 242 33 c 128,-1,53
 305 33 305 33 359 84 c 1,46,-1
EndSplineSet
Validated: 1
EndChar

StartChar: quotesingle
Encoding: 39 39 8
Width: 183
Flags: W
HStem: 438 205<71.446 111.761>
VStem: 71 41<438.007 642.993>
LayerCount: 2
Fore
SplineSet
112 466 m 2,0,1
 112 438 112 438 92 438 c 128,-1,2
 72 438 72 438 71 466 c 1,3,-1
 71 615 l 1,4,5
 72 643 72 643 92 643 c 128,-1,6
 112 643 112 643 112 615 c 2,7,-1
 112 466 l 2,0,1
EndSplineSet
Validated: 1
EndChar

StartChar: parenleft
Encoding: 40 40 9
Width: 237
Flags: W
HStem: -42 42<127.082 193> 636 42<127.082 193>
VStem: 73 42<11.6931 622.496>
LayerCount: 2
Fore
SplineSet
193 636 m 1,0,1
 139 636 139 636 127 615.5 c 128,-1,2
 115 595 115 595 115 503 c 2,3,-1
 115 133 l 2,4,5
 115 41 115 41 127 20.5 c 128,-1,6
 139 0 139 0 193 0 c 1,7,-1
 193 -42 l 1,8,9
 148 -42 148 -42 124 -30 c 0,10,11
 73 -4 73 -4 73 133 c 2,12,-1
 73 503 l 2,13,14
 73 641 73 641 124 666 c 0,15,16
 148 678 148 678 193 678 c 1,17,-1
 193 636 l 1,0,1
EndSplineSet
Validated: 1
EndChar

StartChar: parenright
Encoding: 41 41 10
Width: 236
Flags: W
HStem: -42 42<44 108.998> 636 42<44 108.998>
VStem: 121 42<11.5312 624.469>
LayerCount: 2
Fore
SplineSet
44 0 m 1,0,1
 97 0 97 0 109 20.5 c 128,-1,2
 121 41 121 41 121 133 c 2,3,-1
 121 503 l 2,4,5
 121 595 121 595 109 615.5 c 128,-1,6
 97 636 97 636 44 636 c 1,7,-1
 44 678 l 1,8,9
 111 678 111 678 137 644.5 c 128,-1,10
 163 611 163 611 163 503 c 2,11,-1
 163 133 l 2,12,13
 163 25 163 25 137 -8.5 c 128,-1,14
 111 -42 111 -42 44 -42 c 1,15,-1
 44 0 l 1,0,1
EndSplineSet
Validated: 1
EndChar

StartChar: asterisk
Encoding: 42 42 11
Width: 387
Flags: W
HStem: 346 290<172.251 213.749>
VStem: 172 42<346.007 455 527 635.993>
LayerCount: 2
Fore
SplineSet
305 451 m 2,0,1
 322 440 322 440 322 432 c 128,-1,2
 322 424 322 424 317 416.5 c 128,-1,3
 312 409 312 409 304 409 c 128,-1,4
 296 409 296 409 284 414 c 1,5,-1
 214 455 l 1,6,-1
 214 374 l 2,7,8
 214 346 214 346 193 346 c 128,-1,9
 172 346 172 346 172 374 c 2,10,-1
 172 455 l 1,11,-1
 102 414 l 1,12,13
 90 409 90 409 83 409 c 128,-1,14
 76 409 76 409 70.5 415.5 c 128,-1,15
 65 422 65 422 65 431.5 c 128,-1,16
 65 441 65 441 81 451 c 2,17,-1
 151 492 l 1,18,-1
 81 531 l 1,19,20
 65 542 65 542 65 550 c 0,21,22
 65 573 65 573 83 573 c 0,23,24
 84 573 l 0,25,26
 90 573 90 573 102 568 c 1,27,-1
 172 527 l 1,28,-1
 172 608 l 2,29,30
 172 636 172 636 193 636 c 128,-1,31
 214 636 214 636 214 608 c 2,32,-1
 214 527 l 1,33,-1
 284 568 l 1,34,35
 296 573 296 573 303 573 c 128,-1,36
 310 573 310 573 316 566.5 c 128,-1,37
 322 560 322 560 322 551 c 128,-1,38
 322 542 322 542 305 531 c 1,39,-1
 236 492 l 1,40,-1
 305 451 l 2,0,1
EndSplineSet
Validated: 1
EndChar

StartChar: plus
Encoding: 43 43 12
Width: 510
Flags: W
HStem: -7 21G<244.5 265.5> 209 43<39.0063 234 276 471.936> 448 20G<244.5 265.5>
VStem: 234 42<-6.99341 209 252 467.993>
LayerCount: 2
Fore
SplineSet
276 20 m 2,0,1
 276 -7 276 -7 255 -7 c 128,-1,2
 234 -7 234 -7 234 20 c 2,3,-1
 234 209 l 1,4,-1
 65 209 l 1,5,6
 64 209 64 209 63 209 c 0,7,8
 39 209 39 209 39 230 c 0,9,10
 39 252 39 252 65 252 c 2,11,-1
 234 252 l 1,12,-1
 234 440 l 2,13,14
 234 468 234 468 255 468 c 128,-1,15
 276 468 276 468 276 440 c 2,16,-1
 276 252 l 1,17,-1
 443 252 l 2,18,19
 472 252 472 252 472 229 c 0,20,21
 472 209 472 209 443 209 c 2,22,-1
 276 209 l 1,23,-1
 276 20 l 2,0,1
EndSplineSet
Validated: 1
EndChar

StartChar: comma
Encoding: 44 44 13
Width: 203
Flags: W
HStem: -80 141<76.625 87.6562>
VStem: 50 83<-60 42>
LayerCount: 2
Fore
SplineSet
97 61 m 0,0,1
 107 60 107 60 120 56 c 128,-1,2
 133 52 133 52 133 42 c 128,-1,3
 133 32 133 32 129 24 c 2,4,-1
 87 -59 l 1,5,6
 78 -80 78 -80 67 -80 c 0,7,8
 50 -80 50 -80 50 -60 c 0,9,10
 50 -54 50 -54 53 -45 c 2,11,-1
 77 41 l 2,12,13
 83 61 83 61 97 61 c 0,0,1
EndSplineSet
Validated: 1
EndChar

StartChar: hyphen
Encoding: 45 45 14
Width: 446
Flags: W
HStem: 209 43<73.0063 372.936>
VStem: 73 300<209.328 251.641>
LayerCount: 2
Fore
SplineSet
99 209 m 1,0,1
 98 209 98 209 97 209 c 0,2,3
 73 209 73 209 73 230 c 0,4,5
 73 252 73 252 99 252 c 2,6,-1
 344 252 l 2,7,8
 373 252 373 252 373 229 c 0,9,10
 373 209 373 209 344 209 c 2,11,-1
 99 209 l 1,0,1
EndSplineSet
Validated: 1
EndChar

StartChar: period
Encoding: 46 46 15
Width: 224
Flags: W
HStem: -7 72<69.988 154.012>
VStem: 66 92<-0.552002 58.552>
LayerCount: 2
Fore
SplineSet
66 29 m 128,-1,1
 66 43 66 43 81 54 c 128,-1,2
 96 65 96 65 112 65 c 128,-1,3
 128 65 128 65 143 54 c 128,-1,4
 158 43 158 43 158 29 c 128,-1,5
 158 15 158 15 143 4 c 128,-1,6
 128 -7 128 -7 112 -7 c 128,-1,7
 96 -7 96 -7 81 4 c 128,-1,0
 66 15 66 15 66 29 c 128,-1,1
EndSplineSet
Validated: 1
EndChar

StartChar: slash
Encoding: 47 47 16
Width: 349
Flags: W
HStem: -8 21G<53.5 71.5> 625 20G<277 295>
VStem: 43 42<-7.99512 12> 264 42<625 644.98>
LayerCount: 2
Fore
SplineSet
284 645 m 0,0,1
 306 645 306 645 306 626 c 0,2,3
 306 619 306 619 303 610 c 2,4,-1
 85 12 l 1,5,6
 79 -8 79 -8 64 -8 c 0,7,8
 43 -8 43 -8 43 11 c 0,9,10
 43 16 43 16 46 27 c 2,11,-1
 264 625 l 1,12,13
 270 645 270 645 284 645 c 0,0,1
EndSplineSet
Validated: 1
EndChar

StartChar: zero
Encoding: 48 48 17
Width: 592
Flags: W
HStem: 0 42<163.474 428.526> 593 43<162.984 429.016>
VStem: 74 42<85.7401 548.898> 476 42<85.7401 548.898>
LayerCount: 2
Fore
SplineSet
116 497 m 2,0,-1
 116 138 l 2,1,2
 116 101 116 101 151 71.5 c 128,-1,3
 186 42 186 42 236 42 c 2,4,-1
 356 42 l 2,5,6
 406 42 406 42 441 71.5 c 128,-1,7
 476 101 476 101 476 138 c 2,8,-1
 476 497 l 2,9,10
 476 534 476 534 441 563.5 c 128,-1,11
 406 593 406 593 356 593 c 2,12,-1
 236 593 l 2,13,14
 186 593 186 593 151 563.5 c 128,-1,15
 116 534 116 534 116 497 c 2,0,-1
518 154 m 2,16,17
 518 86 518 86 469 43 c 128,-1,18
 420 0 420 0 348 0 c 2,19,-1
 244 0 l 2,20,21
 172 0 172 0 123 43 c 128,-1,22
 74 86 74 86 74 154 c 2,23,-1
 74 482 l 2,24,25
 74 550 74 550 123 593 c 128,-1,26
 172 636 172 636 244 636 c 2,27,-1
 348 636 l 2,28,29
 420 636 420 636 469 593 c 128,-1,30
 518 550 518 550 518 482 c 2,31,-1
 518 154 l 2,16,17
EndSplineSet
Validated: 1
EndChar

StartChar: one
Encoding: 49 49 18
Width: 592
Flags: W
HStem: -7 21G<294.5 315.5>
VStem: 284 42<-6.99341 616>
LayerCount: 2
Fore
SplineSet
284 616 m 1,0,-1
 250 583 l 2,1,2
 238 570 238 570 225 570 c 0,3,4
 206 570 206 570 206 588 c 0,5,6
 206 599 206 599 218 610 c 2,7,-1
 280 673 l 2,8,9
 293 686 293 686 304 686 c 0,10,11
 308 686 308 686 312 684 c 1,12,13
 326 680 326 680 326 662 c 2,14,-1
 326 20 l 2,15,16
 326 -7 326 -7 305 -7 c 128,-1,17
 284 -7 284 -7 284 20 c 2,18,-1
 284 616 l 1,0,-1
EndSplineSet
Validated: 1
EndChar

StartChar: two
Encoding: 50 50 19
Width: 592
Flags: W
HStem: 0 42<117 517.993> 594 42<129.411 434.027>
VStem: 75 42<42 122.982 499.032 578.527> 476 42<402.844 554.23>
LayerCount: 2
Fore
SplineSet
504 551 m 128,-1,1
 518 515 518 515 518 463 c 128,-1,2
 518 411 518 411 476.5 371 c 128,-1,3
 435 331 435 331 376.5 300 c 128,-1,4
 318 269 318 269 259 236.5 c 128,-1,5
 200 204 200 204 158.5 154 c 128,-1,6
 117 104 117 104 117 42 c 1,7,-1
 488 42 l 2,8,9
 518 42 518 42 518 21 c 128,-1,10
 518 0 518 0 488 0 c 2,11,-1
 75 0 l 1,12,-1
 75 44 l 2,13,14
 75 95 75 95 97 138 c 0,15,16
 118 182 118 182 154 210 c 0,17,18
 216 260 216 260 318 309 c 0,19,20
 360 330 360 330 396 352 c 0,21,22
 476 400 476 400 476 460 c 0,23,24
 476 546 476 546 440 570 c 128,-1,25
 404 594 404 594 311 594 c 2,26,-1
 176 594 l 2,27,28
 142 594 142 594 129 579 c 128,-1,29
 116 564 116 564 116 531.5 c 128,-1,30
 116 499 116 499 95 499 c 128,-1,31
 74 499 74 499 74 529 c 0,32,33
 74 587 74 587 96 611.5 c 128,-1,34
 118 636 118 636 169 636 c 2,35,-1
 311 636 l 2,36,37
 362 636 362 636 396.5 629.5 c 128,-1,38
 431 623 431 623 460.5 605 c 128,-1,0
 490 587 490 587 504 551 c 128,-1,1
EndSplineSet
Validated: 1
EndChar

StartChar: three
Encoding: 51 51 20
Width: 592
Flags: W
HStem: 0 42<155.504 430.47> 304 43<259.008 372.92> 594 42<155.504 432.067>
VStem: 74 42<73.4091 136.991 499.007 562.747> 477 41<90.8862 220.828 419.817 547.819>
LayerCount: 2
Fore
SplineSet
336 594 m 2,0,-1
 256 594 l 2,1,2
 211 594 211 594 163.5 576.5 c 128,-1,3
 116 559 116 559 116 529 c 128,-1,4
 116 499 116 499 95 499 c 128,-1,5
 74 499 74 499 74 529 c 0,6,7
 74 571 74 571 121 603.5 c 128,-1,8
 168 636 168 636 249 636 c 2,9,-1
 326 636 l 2,10,11
 430 636 430 636 474 595 c 128,-1,12
 518 554 518 554 518 451 c 0,13,14
 518 416 518 416 469.5 374.5 c 128,-1,15
 421 333 421 333 388 326 c 1,16,17
 420 320 420 320 469 271 c 128,-1,18
 518 222 518 222 518 185 c 0,19,20
 518 82 518 82 474 41 c 128,-1,21
 430 0 430 0 326 0 c 2,22,-1
 249 0 l 2,23,24
 168 0 168 0 121 32.5 c 128,-1,25
 74 65 74 65 74 101 c 128,-1,26
 74 137 74 137 95 137 c 128,-1,27
 116 137 116 137 116 107 c 128,-1,28
 116 77 116 77 163.5 59.5 c 128,-1,29
 211 42 211 42 256 42 c 2,30,-1
 336 42 l 2,31,32
 416 42 416 42 446.5 76 c 128,-1,33
 477 110 477 110 477 164 c 0,34,35
 477 165 477 165 477 166 c 0,36,37
 477 219 477 219 411.5 261.5 c 128,-1,38
 346 304 346 304 291 304 c 0,39,40
 259 304 259 304 259 325.5 c 128,-1,41
 259 347 259 347 288 347 c 2,42,-1
 291 347 l 2,43,44
 348 347 348 347 412.5 384.5 c 128,-1,45
 477 422 477 422 477 470 c 0,46,47
 477 529 477 529 446.5 561.5 c 128,-1,48
 416 594 416 594 336 594 c 2,0,-1
EndSplineSet
Validated: 1
EndChar

StartChar: four
Encoding: 52 52 21
Width: 592
Flags: W
HStem: -7 21G<400.5 421.5> 175 42<109 390 432 519.993>
VStem: 390 42<-6.99341 175 217 594>
LayerCount: 2
Fore
SplineSet
493 175 m 2,0,-1
 432 175 l 1,1,-1
 432 20 l 2,2,3
 432 -7 432 -7 411 -7 c 128,-1,4
 390 -7 390 -7 390 20 c 2,5,-1
 390 175 l 1,6,-1
 72 175 l 1,7,-1
 72 231 l 1,8,-1
 375 636 l 1,9,-1
 432 636 l 1,10,-1
 432 217 l 1,11,-1
 493 217 l 2,12,13
 520 217 520 217 520 196 c 128,-1,14
 520 175 520 175 493 175 c 2,0,-1
390 217 m 1,15,-1
 390 594 l 1,16,-1
 109 217 l 1,17,-1
 390 217 l 1,15,-1
EndSplineSet
Validated: 1
EndChar

StartChar: five
Encoding: 53 53 22
Width: 592
Flags: W
HStem: -9 42<197.56 382.23> 392 42<132 391.39> 594 42<155.441 470.993>
VStem: 471 42<124.378 313.168>
LayerCount: 2
Fore
SplineSet
291 -9 m 0,0,1
 229 -9 229 -9 154 25.5 c 128,-1,2
 79 60 79 60 79 90 c 0,3,4
 79 98 79 98 85 104.5 c 128,-1,5
 91 111 91 111 96 111 c 128,-1,6
 101 111 101 111 128.5 91.5 c 128,-1,7
 156 72 156 72 200.5 52.5 c 128,-1,8
 245 33 245 33 291 33 c 0,9,10
 376 33 376 33 423.5 84.5 c 128,-1,11
 471 136 471 136 471 227 c 0,12,13
 471 271 471 271 455 305 c 0,14,15
 438 339 438 339 414 357 c 0,16,17
 366 392 366 392 316 392 c 2,18,-1
 85 392 l 1,19,-1
 94 512 l 2,20,21
 99 582 99 582 123 609 c 128,-1,22
 147 636 147 636 203 636 c 2,23,-1
 444 636 l 2,24,25
 471 636 471 636 471 615 c 128,-1,26
 471 594 471 594 444 594 c 2,27,-1
 197 594 l 2,28,29
 169 594 169 594 155 579 c 128,-1,30
 141 564 141 564 138 529 c 2,31,-1
 132 434 l 1,32,-1
 307 434 l 2,33,34
 387 434 387 434 450 377.5 c 128,-1,35
 513 321 513 321 513 219 c 128,-1,36
 513 117 513 117 450.5 54 c 128,-1,37
 388 -9 388 -9 291 -9 c 0,0,1
EndSplineSet
Validated: 1
EndChar

StartChar: six
Encoding: 54 54 23
Width: 592
Flags: W
HStem: -9 42<201.717 390.283> 381 42<202.773 390.129> 624 20G<299 315>
VStem: 74 42<117.897 295.73> 476 42<118.191 295.809>
LayerCount: 2
Fore
SplineSet
137.5 52 m 128,-1,1
 74 113 74 113 74 204.5 c 128,-1,2
 74 296 74 296 95.5 373 c 128,-1,3
 117 450 117 450 147 497.5 c 128,-1,4
 177 545 177 545 211 580 c 128,-1,5
 245 615 245 615 269.5 629.5 c 128,-1,6
 294 644 294 644 304 644 c 0,7,8
 326 644 326 644 326 626 c 0,9,10
 326 613 326 613 308 603 c 0,11,12
 255 574 255 574 206.5 512 c 128,-1,13
 158 450 158 450 134 359 c 1,14,15
 198 423 198 423 294.5 423 c 128,-1,16
 391 423 391 423 454.5 362 c 128,-1,17
 518 301 518 301 518 207 c 128,-1,18
 518 113 518 113 454.5 52 c 128,-1,19
 391 -9 391 -9 296 -9 c 128,-1,0
 201 -9 201 -9 137.5 52 c 128,-1,1
116 207 m 128,-1,21
 116 129 116 129 164.5 81 c 128,-1,22
 213 33 213 33 296 33 c 128,-1,23
 379 33 379 33 427.5 81 c 128,-1,24
 476 129 476 129 476 207 c 128,-1,25
 476 285 476 285 427.5 333 c 128,-1,26
 379 381 379 381 296 381 c 128,-1,27
 213 381 213 381 164.5 333 c 128,-1,20
 116 285 116 285 116 207 c 128,-1,21
EndSplineSet
Validated: 1
EndChar

StartChar: seven
Encoding: 55 55 24
Width: 592
Flags: W
HStem: -10 21G<260 277.5> 594 42<138.927 459>
VStem: 83 42<500.055 578.527> 249 43<-9.99438 13>
LayerCount: 2
Fore
SplineSet
271 -10 m 0,0,1
 249 -10 249 -10 249 9 c 0,2,3
 249 17 249 17 253 28 c 2,4,-1
 459 594 l 1,5,-1
 186 594 l 2,6,7
 152 594 152 594 138.5 579 c 128,-1,8
 125 564 125 564 125 532 c 128,-1,9
 125 500 125 500 104 500 c 0,10,11
 103 499 l 0,12,13
 83 499 83 499 83 529 c 0,14,15
 83 587 83 587 105 611.5 c 128,-1,16
 127 636 127 636 178 636 c 2,17,-1
 488 636 l 2,18,19
 509 636 509 636 509 618 c 0,20,21
 509 610 509 610 505 599 c 2,22,-1
 292 13 l 2,23,24
 284 -10 284 -10 271 -10 c 0,0,1
EndSplineSet
Validated: 1
EndChar

StartChar: eight
Encoding: 56 56 25
Width: 592
Flags: W
HStem: 0 42<158.038 435.952> 307 42<158.153 433.901> 594 42<148.556 443.339>
VStem: 74 42<82.8853 266.307 384.69 562.575> 476 42<79.8025 266.928 381.885 561.203>
LayerCount: 2
Fore
SplineSet
142 75 m 1,0,1
 154 62 154 62 182 52 c 128,-1,2
 210 42 210 42 282 42 c 2,3,-1
 311 42 l 2,4,5
 358 42 358 42 384.5 45.5 c 128,-1,6
 411 49 411 49 434.5 62 c 128,-1,7
 458 75 458 75 467 102 c 128,-1,8
 476 129 476 129 476 174 c 128,-1,9
 476 219 476 219 466.5 246 c 128,-1,10
 457 273 457 273 434 286.5 c 128,-1,11
 411 300 411 300 384.5 303.5 c 128,-1,12
 358 307 358 307 311 307 c 2,13,-1
 282 307 l 2,14,15
 234 307 234 307 207.5 303.5 c 128,-1,16
 181 300 181 300 158 286 c 0,17,18
 116 261 116 261 116 183.5 c 128,-1,19
 116 106 116 106 142 75 c 1,0,1
460 30 m 0,20,21
 430 12 430 12 396 6 c 128,-1,22
 362 0 362 0 311 0 c 2,23,-1
 282 0 l 2,24,25
 176 0 176 0 125 34.5 c 128,-1,26
 74 69 74 69 74 179 c 128,-1,27
 74 289 74 289 144 326 c 1,28,29
 74 358 74 358 74 472 c 0,30,31
 74 554 74 554 110 596 c 0,32,33
 138 628 138 628 212 634 c 0,34,35
 239 636 239 636 282 636 c 2,36,-1
 311 636 l 2,37,38
 446 636 446 636 482 595.5 c 128,-1,39
 518 555 518 555 518 472 c 0,40,41
 518 357 518 357 449 326 c 1,42,43
 518 290 518 290 518 177.5 c 128,-1,44
 518 65 518 65 460 30 c 0,20,21
476 475 m 128,-1,46
 476 508 476 508 468.5 531.5 c 128,-1,47
 461 555 461 555 451 567.5 c 128,-1,48
 441 580 441 580 412 587 c 128,-1,49
 383 594 383 594 311 594 c 2,50,-1
 282 594 l 2,51,52
 162 594 162 594 139 565.5 c 128,-1,53
 116 537 116 537 116 473.5 c 128,-1,54
 116 410 116 410 135 386 c 0,55,56
 146 372 146 372 156 365 c 0,57,58
 177 351 177 351 282 349 c 1,59,-1
 311 349 l 1,60,61
 316 349 316 349 321 349 c 0,62,63
 416 349 416 349 440 367 c 0,64,65
 466 386 466 386 471 414 c 128,-1,45
 476 442 476 442 476 475 c 128,-1,46
EndSplineSet
Validated: 1
EndChar

StartChar: nine
Encoding: 57 57 26
Width: 592
Flags: W
HStem: -16 43<149.007 256.693> 307 42<181.539 417.764> 594 42<184.654 416.747>
VStem: 74 42<403.162 538.441> 476 42<401.199 541.611>
LayerCount: 2
Fore
SplineSet
74 471 m 0,0,1
 74 524 74 524 99.5 560 c 128,-1,2
 125 596 125 596 167 611 c 0,3,4
 237 636 237 636 311 636 c 0,5,6
 518 636 518 636 518 470 c 0,7,8
 518 363 518 363 487.5 270 c 128,-1,9
 457 177 457 177 408 115.5 c 128,-1,10
 359 54 359 54 298 19 c 128,-1,11
 237 -16 237 -16 175 -16 c 0,12,13
 149 -16 149 -16 149 5.5 c 128,-1,14
 149 27 149 27 179.5 27 c 128,-1,15
 210 27 210 27 251.5 45.5 c 128,-1,16
 293 64 293 64 336 100.5 c 128,-1,17
 379 137 379 137 414 201 c 128,-1,18
 449 265 449 265 465 345 c 1,19,20
 415 307 415 307 311 307 c 0,21,22
 74 307 74 307 74 471 c 0,0,1
311 594 m 0,23,24
 116 594 116 594 116 471 c 0,25,26
 116 439 116 439 129 415.5 c 128,-1,27
 142 392 142 392 160 380 c 1,28,29
 209 351 209 351 311 349 c 1,30,31
 476 349 476 349 476 470 c 0,32,33
 476 594 476 594 311 594 c 0,23,24
EndSplineSet
Validated: 1
EndChar

StartChar: colon
Encoding: 58 58 27
Width: 238
Flags: W
HStem: 44 72<77.5879 160.879> 397 72<77.5879 160.879>
VStem: 73 92<50.7139 109.286 403.714 462.286>
LayerCount: 2
Fore
SplineSet
73 433 m 0,0,1
 74 447 74 447 88 458 c 128,-1,2
 102 469 102 469 118 469 c 128,-1,3
 134 469 134 469 149.5 458 c 128,-1,4
 165 447 165 447 165 433 c 128,-1,5
 165 419 165 419 149.5 408 c 128,-1,6
 134 397 134 397 118 397 c 128,-1,7
 102 397 102 397 87.5 408 c 128,-1,8
 73 419 73 419 73 433 c 0,0,1
73 80 m 0,9,10
 74 94 74 94 88 105 c 128,-1,11
 102 116 102 116 118 116 c 128,-1,12
 134 116 134 116 149.5 105 c 128,-1,13
 165 94 165 94 165 80 c 128,-1,14
 165 66 165 66 149.5 55 c 128,-1,15
 134 44 134 44 118 44 c 128,-1,16
 102 44 102 44 87.5 55 c 128,-1,17
 73 66 73 66 73 80 c 0,9,10
EndSplineSet
Validated: 1
EndChar

StartChar: semicolon
Encoding: 59 59 28
Width: 241
Flags: W
HStem: 397 72<77.5879 160.879>
VStem: 80 83<-9 92 402.683 463.317>
LayerCount: 2
Fore
SplineSet
73 433 m 0,0,1
 74 447 74 447 88 458 c 128,-1,2
 102 469 102 469 118 469 c 128,-1,3
 134 469 134 469 149.5 458 c 128,-1,4
 165 447 165 447 165 433 c 128,-1,5
 165 419 165 419 149.5 408 c 128,-1,6
 134 397 134 397 118 397 c 128,-1,7
 102 397 102 397 87.5 408 c 128,-1,8
 73 419 73 419 73 433 c 0,0,1
127 112 m 0,9,10
 137 112 137 112 150 107 c 128,-1,11
 163 102 163 102 163 92 c 128,-1,12
 163 82 163 82 159 75 c 2,13,-1
 117 -8 l 1,14,15
 108 -29 108 -29 97 -29 c 0,16,17
 80 -29 80 -29 80 -9 c 0,18,19
 80 -3 80 -3 83 6 c 2,20,-1
 107 92 l 2,21,22
 113 112 113 112 127 112 c 0,9,10
EndSplineSet
Validated: 1
EndChar

StartChar: less
Encoding: 60 60 29
Width: 522
Flags: W
LayerCount: 2
Fore
SplineSet
433 137 m 2,0,1
 450 128 450 128 450 119 c 0,2,3
 450 94 450 94 431 94 c 0,4,5
 424 94 424 94 412 100 c 2,6,-1
 49 310 l 1,7,8
 33 321 33 321 33 333 c 128,-1,9
 33 345 33 345 49 354 c 2,10,-1
 412 564 l 2,11,12
 421 569 421 569 430 569 c 0,13,14
 450 569 450 569 450 551 c 0,15,16
 450 539 450 539 434 527 c 1,17,-1
 95 333 l 1,18,-1
 433 137 l 2,0,1
EndSplineSet
Validated: 1
EndChar

StartChar: equal
Encoding: 61 61 30
Width: 458
Flags: W
HStem: 259 43<79.0063 378.936> 362 43<79.0063 378.936>
VStem: 79 300<259.328 301.641 362.344 404.641>
LayerCount: 2
Fore
SplineSet
105 259 m 1,0,1
 104 259 104 259 103 259 c 0,2,3
 79 259 79 259 79 280 c 0,4,5
 79 302 79 302 105 302 c 2,6,-1
 350 302 l 2,7,8
 379 302 379 302 379 279 c 0,9,10
 379 259 379 259 350 259 c 2,11,-1
 105 259 l 1,0,1
105 362 m 2,12,13
 79 362 79 362 79 384 c 0,14,15
 79 405 79 405 103 405 c 0,16,17
 104 405 104 405 105 405 c 1,18,-1
 350 405 l 2,19,20
 379 405 379 405 379 382 c 0,21,22
 379 362 379 362 350 362 c 2,23,-1
 105 362 l 2,12,13
EndSplineSet
Validated: 1
EndChar

StartChar: greater
Encoding: 62 62 31
Width: 522
Flags: W
LayerCount: 2
Fore
SplineSet
89 526 m 1,0,1
 72 534 72 534 72 544 c 0,2,3
 72 568 72 568 91 569 c 0,4,5
 99 569 99 569 109 563 c 2,6,-1
 473 353 l 1,7,8
 489 342 489 342 489 330 c 128,-1,9
 489 318 489 318 473 309 c 2,10,-1
 109 99 l 2,11,12
 102 94 102 94 92 94 c 0,13,14
 72 94 72 94 72 113 c 0,15,16
 72 126 72 126 88 136 c 2,17,-1
 427 331 l 1,18,-1
 89 526 l 1,0,1
EndSplineSet
Validated: 1
EndChar

StartChar: question
Encoding: 63 63 32
Width: 528
Flags: W
HStem: -7 72<204.988 288.879> 602 42<121.329 403.557>
VStem: 39 43<443.007 565.646> 201 92<-0.286133 58.2861> 226 42<166.007 303> 443 42<408.952 559.13>
LayerCount: 2
Fore
SplineSet
201 29 m 128,-1,1
 201 43 201 43 216 54 c 128,-1,2
 231 65 231 65 246.5 65 c 128,-1,3
 262 65 262 65 277.5 54 c 128,-1,4
 293 43 293 43 293 29 c 128,-1,5
 293 15 293 15 277.5 4 c 128,-1,6
 262 -7 262 -7 246.5 -7 c 128,-1,7
 231 -7 231 -7 216 4 c 128,-1,0
 201 15 201 15 201 29 c 128,-1,1
268 303 m 1,8,-1
 268 194 l 2,9,10
 268 166 268 166 247 166 c 128,-1,11
 226 166 226 166 226 194 c 2,12,-1
 226 334 l 1,13,-1
 379 376 l 2,14,15
 407 384 407 384 425 413 c 128,-1,16
 443 442 443 442 443 485 c 128,-1,17
 443 528 443 528 418.5 565 c 128,-1,18
 394 602 394 602 341 602 c 2,19,-1
 248 602 l 2,20,21
 200 602 200 602 173.5 598.5 c 128,-1,22
 147 595 147 595 123.5 582.5 c 128,-1,23
 100 570 100 570 91 543 c 128,-1,24
 82 516 82 516 82 471 c 0,25,26
 82 443 82 443 60.5 443 c 128,-1,27
 39 443 39 443 39 471 c 0,28,29
 40 580 40 580 98 614 c 0,30,31
 128 632 128 632 162 638 c 128,-1,32
 196 644 196 644 248 644 c 2,33,-1
 324 644 l 2,34,35
 410 644 410 644 447.5 597 c 128,-1,36
 485 550 485 550 485 484 c 128,-1,37
 485 418 485 418 457.5 383 c 128,-1,38
 430 348 430 348 362 329 c 2,39,-1
 268 303 l 1,8,-1
EndSplineSet
Validated: 1
EndChar

StartChar: at
Encoding: 64 64 33
Width: 584
Flags: W
HStem: 0 42<193.625 460.073> 190 42<232.048 398.998> 431 42<232.214 362.786> 594 42<193.625 393.375>
VStem: 71 42<129.379 506.621> 176 42<245.604 417.396> 377 42<245.805 417.167> 474 42<57.473 136.963 268.381 505.693>
LayerCount: 2
Fore
SplineSet
420 0 m 2,0,-1
 279 0 l 2,1,2
 184 0 184 0 127.5 64 c 128,-1,3
 71 128 71 128 71 241 c 2,4,-1
 71 395 l 2,5,6
 71 508 71 508 127.5 572 c 128,-1,7
 184 636 184 636 279 636 c 2,8,-1
 308 636 l 2,9,10
 403 636 403 636 459.5 572 c 128,-1,11
 516 508 516 508 516 402 c 128,-1,12
 516 296 516 296 494.5 259.5 c 128,-1,13
 473 223 473 223 426.5 206.5 c 128,-1,14
 380 190 380 190 303.5 190 c 128,-1,15
 227 190 227 190 201.5 222.5 c 128,-1,16
 176 255 176 255 176 331.5 c 128,-1,17
 176 408 176 408 201.5 440.5 c 128,-1,18
 227 473 227 473 297.5 473 c 128,-1,19
 368 473 368 473 393.5 440.5 c 128,-1,20
 419 408 419 408 419 341.5 c 128,-1,21
 419 275 419 275 406 243 c 1,22,23
 434 249 434 249 447 261 c 0,24,25
 474 286 474 286 474 387.5 c 128,-1,26
 474 489 474 489 432 541.5 c 128,-1,27
 390 594 390 594 308 594 c 2,28,-1
 279 594 l 2,29,30
 197 594 197 594 155 541.5 c 128,-1,31
 113 489 113 489 113 395 c 2,32,-1
 113 241 l 2,33,34
 113 147 113 147 155 94.5 c 128,-1,35
 197 42 197 42 279 42 c 2,36,-1
 413 42 l 2,37,38
 447 42 447 42 460.5 57 c 128,-1,39
 474 72 474 72 474 104.5 c 128,-1,40
 474 137 474 137 495 137 c 0,41,42
 516 136 516 136 516 110 c 0,43,44
 516 63 516 63 499 31.5 c 128,-1,45
 482 0 482 0 420 0 c 2,0,-1
232 252.5 m 128,-1,47
 246 232 246 232 297.5 232 c 128,-1,48
 349 232 349 232 363 252.5 c 128,-1,49
 377 273 377 273 377 331.5 c 128,-1,50
 377 390 377 390 363 410.5 c 128,-1,51
 349 431 349 431 297.5 431 c 128,-1,52
 246 431 246 431 232 410.5 c 128,-1,53
 218 390 218 390 218 331.5 c 128,-1,46
 218 273 218 273 232 252.5 c 128,-1,47
EndSplineSet
Validated: 1
EndChar

StartChar: A
Encoding: 65 65 34
Width: 548
Flags: W
HStem: 204 42<154 394>
VStem: 23 43<-15.9805 4> 482 43<-15.9805 4>
AnchorPoint: "top" 273 678 basechar 0
AnchorPoint: "bottom" 274 0 basechar 0
LayerCount: 2
Fore
SplineSet
44 -16 m 0,0,1
 23 -16 23 -16 23 4 c 0,2,3
 23 11 23 11 26 18 c 2,4,-1
 251 636 l 1,5,-1
 297 636 l 1,6,-1
 522 18 l 2,7,8
 525 11 525 11 525 4 c 0,9,10
 525 -16 525 -16 504 -16 c 0,11,12
 490 -16 490 -16 482 4 c 2,13,-1
 410 204 l 1,14,-1
 138 204 l 1,15,-1
 66 4 l 1,16,17
 57 -16 57 -16 44 -16 c 0,0,1
154 246 m 1,18,-1
 394 246 l 1,19,-1
 273 575 l 1,20,-1
 154 246 l 1,18,-1
EndSplineSet
Validated: 1
EndChar

StartChar: B
Encoding: 66 66 35
Width: 584
Flags: W
HStem: 0 42<126 444.041> 337 42<126 405.992> 594 42<126 404.812>
VStem: 84 42<42 337 379 594> 444 42<414.185 558.709> 486 42<83.1934 297.16>
AnchorPoint: "top" 273 678 basechar 0
AnchorPoint: "bottom" 273 0 basechar 0
LayerCount: 2
Fore
SplineSet
126 42 m 1,0,-1
 321 42 l 2,1,2
 368 42 368 42 394.5 45.5 c 128,-1,3
 421 49 421 49 444 62.5 c 128,-1,4
 467 76 467 76 476.5 103 c 128,-1,5
 486 130 486 130 486 175 c 2,6,-1
 486 204 l 2,7,8
 486 249 486 249 476.5 276 c 128,-1,9
 467 303 467 303 444 316.5 c 128,-1,10
 421 330 421 330 394.5 333.5 c 128,-1,11
 368 337 368 337 321 337 c 2,12,-1
 126 337 l 1,13,-1
 126 42 l 1,0,-1
84 31 m 2,14,-1
 84 605 l 2,15,16
 84 636 84 636 103 636 c 2,17,-1
 279 636 l 2,18,19
 382 636 382 636 434 604 c 128,-1,20
 486 572 486 572 486 487 c 128,-1,21
 486 402 486 402 431 367 c 1,22,23
 480 352 480 352 504 314 c 128,-1,24
 528 276 528 276 528 204 c 2,25,-1
 528 175 l 2,26,27
 528 70 528 70 477 35 c 128,-1,28
 426 0 426 0 321 0 c 2,29,-1
 103 0 l 2,30,31
 84 0 84 0 84 31 c 2,14,-1
279 379 m 2,32,33
 368 380 368 380 406 400 c 128,-1,34
 444 420 444 420 444 486 c 128,-1,35
 444 552 444 552 406.5 573 c 128,-1,36
 369 594 369 594 279 594 c 2,37,-1
 126 594 l 1,38,-1
 126 379 l 1,39,-1
 279 379 l 2,32,33
EndSplineSet
Validated: 1
EndChar

StartChar: C
Encoding: 67 67 36
Width: 572
Flags: W
HStem: 0 42<156.038 460.589> 594 42<156.038 460.589>
VStem: 72 42<83.1934 552.807> 474 42<57.473 136.963 499.009 578.012>
AnchorPoint: "top" 312 678 basechar 0
AnchorPoint: "bottom" 312 0 basechar 0
LayerCount: 2
Fore
SplineSet
421 0 m 2,0,-1
 280 0 l 2,1,2
 174 0 174 0 123 35 c 128,-1,3
 72 70 72 70 72 175 c 2,4,-1
 72 461 l 2,5,6
 72 566 72 566 123 601 c 128,-1,7
 174 636 174 636 280 636 c 2,8,-1
 421 636 l 2,9,10
 484 636 484 636 500 604 c 128,-1,11
 516 572 516 572 516 535.5 c 128,-1,12
 516 499 516 499 495 499 c 128,-1,13
 474 499 474 499 474 531 c 128,-1,14
 474 563 474 563 461 578.5 c 128,-1,15
 448 594 448 594 414 594 c 2,16,-1
 280 594 l 2,17,18
 232 594 232 594 205.5 590.5 c 128,-1,19
 179 587 179 587 156 573.5 c 128,-1,20
 133 560 133 560 123.5 533 c 128,-1,21
 114 506 114 506 114 461 c 2,22,-1
 114 175 l 2,23,24
 114 130 114 130 123.5 103 c 128,-1,25
 133 76 133 76 156 62.5 c 128,-1,26
 179 49 179 49 205.5 45.5 c 128,-1,27
 232 42 232 42 280 42 c 2,28,-1
 414 42 l 2,29,30
 448 42 448 42 461 57 c 128,-1,31
 474 72 474 72 474 104.5 c 128,-1,32
 474 137 474 137 495 137 c 0,33,34
 516 136 516 136 516 110 c 0,35,36
 516 64 516 64 500 32 c 128,-1,37
 484 0 484 0 421 0 c 2,0,-1
EndSplineSet
Validated: 1
EndChar

StartChar: D
Encoding: 68 68 37
Width: 600
Flags: W
HStem: 0 42<126 444.041> 594 42<126 444.041>
VStem: 84 42<42 594> 486 42<83.1934 552.807>
AnchorPoint: "top" 290 678 basechar 0
AnchorPoint: "bottom" 290 0 basechar 0
LayerCount: 2
Fore
SplineSet
528 461 m 2,0,-1
 528 175 l 2,1,2
 528 70 528 70 477 35 c 128,-1,3
 426 0 426 0 321 0 c 2,4,-1
 103 0 l 2,5,6
 84 0 84 0 84 31 c 2,7,-1
 84 605 l 2,8,9
 84 636 84 636 103 636 c 2,10,-1
 321 636 l 2,11,12
 426 636 426 636 477 601 c 128,-1,13
 528 566 528 566 528 461 c 2,0,-1
486 175 m 2,14,-1
 486 461 l 2,15,16
 486 506 486 506 476.5 533 c 128,-1,17
 467 560 467 560 444 573.5 c 128,-1,18
 421 587 421 587 394.5 590.5 c 128,-1,19
 368 594 368 594 321 594 c 2,20,-1
 126 594 l 1,21,-1
 126 42 l 1,22,-1
 321 42 l 2,23,24
 368 42 368 42 394.5 45.5 c 128,-1,25
 421 49 421 49 444 62.5 c 128,-1,26
 467 76 467 76 476.5 103 c 128,-1,27
 486 130 486 130 486 175 c 2,14,-1
EndSplineSet
Validated: 1
EndChar

StartChar: E
Encoding: 69 69 38
Width: 577
Flags: W
HStem: 0 42<126 527.936> 337 42<126 410.934> 594 42<126 527.936>
VStem: 84 42<42 337 379 594>
AnchorPoint: "top" 290 678 basechar 0
AnchorPoint: "bottom" 290 0 basechar 0
LayerCount: 2
Fore
SplineSet
126 337 m 1,0,-1
 126 42 l 1,1,-1
 499 42 l 2,2,3
 528 42 528 42 528 19 c 0,4,5
 528 0 528 0 499 0 c 2,6,-1
 103 0 l 2,7,8
 84 0 84 0 84 31 c 2,9,-1
 84 605 l 2,10,11
 84 636 84 636 103 636 c 2,12,-1
 499 636 l 2,13,14
 528 636 528 636 528 613 c 0,15,16
 528 594 528 594 499 594 c 2,17,-1
 126 594 l 1,18,-1
 126 379 l 1,19,-1
 381 379 l 2,20,21
 411 379 411 379 411 356 c 0,22,23
 411 337 411 337 381 337 c 2,24,-1
 126 337 l 1,0,-1
EndSplineSet
Validated: 1
EndChar

StartChar: F
Encoding: 70 70 39
Width: 558
Flags: W
HStem: -7 21G<94.5 115.5> 337 42<126 410.934> 594 42<126 527.936>
VStem: 84 42<-6.99268 337 379 594>
AnchorPoint: "top" 290 678 basechar 0
AnchorPoint: "bottom" 290 0 basechar 0
LayerCount: 2
Fore
SplineSet
126 23 m 2,0,1
 126 -7 126 -7 105 -7 c 128,-1,2
 84 -7 84 -7 84 23 c 2,3,-1
 84 605 l 2,4,5
 84 636 84 636 103 636 c 2,6,-1
 499 636 l 2,7,8
 528 636 528 636 528 613 c 0,9,10
 528 594 528 594 499 594 c 2,11,-1
 126 594 l 1,12,-1
 126 379 l 1,13,-1
 381 379 l 2,14,15
 411 379 411 379 411 356 c 0,16,17
 411 337 411 337 381 337 c 2,18,-1
 126 337 l 1,19,-1
 126 23 l 2,0,1
EndSplineSet
Validated: 1
EndChar

StartChar: G
Encoding: 71 71 40
Width: 585
Flags: W
HStem: 0 42<156.024 460.589> 251 42<311.007 474> 594 42<156.024 460.589>
VStem: 72 42<81.5027 554.497> 474 42<57.4739 251 499.009 578.527>
AnchorPoint: "bottom" 312 0 basechar 0
AnchorPoint: "top" 312 678 basechar 0
LayerCount: 2
Fore
SplineSet
474 251 m 1,0,-1
 341 251 l 2,1,2
 311 251 311 251 311 272 c 128,-1,3
 311 293 311 293 341 293 c 2,4,-1
 516 293 l 1,5,-1
 516 106 l 2,6,7
 516 28 516 28 472 9 c 0,8,9
 452 0 452 0 421 0 c 2,10,-1
 280 0 l 2,11,12
 228 0 228 0 194 6 c 128,-1,13
 160 12 160 12 130 30 c 0,14,15
 72 65 72 65 72 175 c 2,16,-1
 72 461 l 2,17,18
 72 571 72 571 130 606 c 0,19,20
 160 624 160 624 194 630 c 128,-1,21
 228 636 228 636 280 636 c 2,22,-1
 421 636 l 2,23,24
 484 636 484 636 500 604 c 128,-1,25
 516 572 516 572 516 535.5 c 128,-1,26
 516 499 516 499 495 499 c 128,-1,27
 474 499 474 499 474 531.5 c 128,-1,28
 474 564 474 564 461 579 c 128,-1,29
 448 594 448 594 414 594 c 2,30,-1
 280 594 l 2,31,32
 232 594 232 594 205.5 590.5 c 128,-1,33
 179 587 179 587 156 573.5 c 128,-1,34
 133 560 133 560 123.5 533 c 128,-1,35
 114 506 114 506 114 461 c 2,36,-1
 114 175 l 2,37,38
 114 130 114 130 123.5 103 c 128,-1,39
 133 76 133 76 156 62.5 c 128,-1,40
 179 49 179 49 205.5 45.5 c 128,-1,41
 232 42 232 42 280 42 c 2,42,-1
 414 42 l 2,43,44
 448 42 448 42 461 57 c 128,-1,45
 474 72 474 72 474 108 c 2,46,-1
 474 251 l 1,0,-1
EndSplineSet
Validated: 1
EndChar

StartChar: H
Encoding: 72 72 41
Width: 612
Flags: W
HStem: -7 21G<94.5 115.5 496.5 517.5> 322 42<126 486> 623 20G<93.5 114.5 496.5 517.5>
VStem: 84 42<-6.99268 322 364 642.932> 486 42<-6.99268 322 364 642.992>
AnchorPoint: "top" 301 678 basechar 0
AnchorPoint: "bottom" 301 0 basechar 0
LayerCount: 2
Fore
SplineSet
126 23 m 2,0,1
 126 -7 126 -7 105 -7 c 128,-1,2
 84 -7 84 -7 84 23 c 2,3,-1
 84 612 l 2,4,5
 84 643 84 643 103 643 c 0,6,7
 126 643 126 643 126 612 c 2,8,-1
 126 364 l 1,9,-1
 486 364 l 1,10,-1
 486 612 l 2,11,12
 486 643 486 643 507 643 c 128,-1,13
 528 643 528 643 528 612 c 2,14,-1
 528 23 l 2,15,16
 528 -7 528 -7 507 -7 c 128,-1,17
 486 -7 486 -7 486 23 c 2,18,-1
 486 322 l 1,19,-1
 126 322 l 1,20,-1
 126 23 l 2,0,1
EndSplineSet
Validated: 1
EndChar

StartChar: I
Encoding: 73 73 42
Width: 210
Flags: W
HStem: -7 21G<94.5 115.5> 623 20G<94.5 115.5>
VStem: 84 42<-6.99341 642.993>
AnchorPoint: "top" 105 678 basechar 0
AnchorPoint: "bottom" 105 0 basechar 0
LayerCount: 2
Fore
SplineSet
126 20 m 2,0,1
 126 -7 126 -7 105 -7 c 128,-1,2
 84 -7 84 -7 84 20 c 2,3,-1
 84 615 l 2,4,5
 84 643 84 643 105 643 c 128,-1,6
 126 643 126 643 126 615 c 2,7,-1
 126 20 l 2,0,1
EndSplineSet
Validated: 1
EndChar

StartChar: J
Encoding: 74 74 43
Width: 530
Flags: W
HStem: -8 42<115.727 364.976> 623 20G<417.5 438.5>
VStem: 32 43<73.5027 194.938> 407 42<73.5027 642.993>
AnchorPoint: "top" 429 678 basechar 0
AnchorPoint: "bottom" 241 0 basechar 0
LayerCount: 2
Fore
SplineSet
241 34 m 0,0,1
 289 34 289 34 315.5 37.5 c 128,-1,2
 342 41 342 41 365 54.5 c 128,-1,3
 388 68 388 68 397.5 95 c 128,-1,4
 407 122 407 122 407 167 c 2,5,-1
 407 615 l 2,6,7
 407 643 407 643 428 643 c 128,-1,8
 449 643 449 643 449 615 c 2,9,-1
 449 167 l 2,10,11
 449 57 449 57 391 22 c 0,12,13
 361 4 361 4 327 -2 c 128,-1,14
 293 -8 293 -8 241 -8 c 128,-1,15
 189 -8 189 -8 154.5 -2 c 128,-1,16
 120 4 120 4 90 22 c 0,17,18
 32 57 32 57 32 167 c 0,19,20
 32 195 32 195 55 195 c 0,21,22
 75 195 75 195 75 167 c 0,23,24
 75 81 75 81 111 57.5 c 128,-1,25
 147 34 147 34 241 34 c 0,0,1
EndSplineSet
Validated: 1
EndChar

StartChar: K
Encoding: 75 75 44
Width: 497
Flags: W
HStem: -7 21G<94.5 115.5 466.5 475.5> 623 20G<94.5 115.5 400.5 409.5>
VStem: 84 42<-6.99341 255 321 642.993>
AnchorPoint: "top" 259 678 basechar 0
AnchorPoint: "bottom" 274 0 basechar 0
LayerCount: 2
Fore
SplineSet
484 33 m 1,0,1
 494 23 494 23 494 14 c 128,-1,2
 494 5 494 5 487 -1 c 128,-1,3
 480 -7 480 -7 471 -7 c 128,-1,4
 462 -7 462 -7 452 6 c 2,5,-1
 184 325 l 1,6,-1
 126 255 l 1,7,-1
 126 20 l 2,8,9
 126 -7 126 -7 105 -7 c 128,-1,10
 84 -7 84 -7 84 20 c 2,11,-1
 84 615 l 2,12,13
 84 643 84 643 105 643 c 128,-1,14
 126 643 126 643 126 615 c 2,15,-1
 126 321 l 1,16,-1
 386 630 l 2,17,18
 396 643 396 643 405 643 c 128,-1,19
 414 643 414 643 420.5 637.5 c 128,-1,20
 427 632 427 632 427 623 c 128,-1,21
 427 614 427 614 418 603 c 2,22,-1
 212 357 l 1,23,-1
 484 33 l 1,0,1
EndSplineSet
Validated: 1
EndChar

StartChar: L
Encoding: 76 76 45
Width: 495
Flags: W
HStem: 0 42<126 471.993> 623 20G<94.5 115.5>
VStem: 84 42<42 642.993>
AnchorPoint: "top" 106 678 basechar 0
AnchorPoint: "bottom" 274 0 basechar 0
LayerCount: 2
Fore
SplineSet
103 0 m 2,0,1
 84 0 84 0 84 31 c 2,2,-1
 84 615 l 2,3,4
 84 643 84 643 105 643 c 128,-1,5
 126 643 126 643 126 615 c 2,6,-1
 126 42 l 1,7,-1
 444 42 l 2,8,9
 472 42 472 42 472 21 c 128,-1,10
 472 0 472 0 444 0 c 2,11,-1
 103 0 l 2,0,1
EndSplineSet
Validated: 1
EndChar

StartChar: M
Encoding: 77 77 46
Width: 633
Flags: W
HStem: -7 21G<94.5 115.5 517.5 538.5> 623 20G<93.5 110.5 522 539>
VStem: 84 42<-6.99268 557> 507 42<-6.99268 557>
AnchorPoint: "top" 316 678 basechar 0
AnchorPoint: "bottom" 316 0 basechar 0
LayerCount: 2
Fore
SplineSet
329 285 m 2,0,1
 324 279 324 279 316.5 279 c 128,-1,2
 309 279 309 279 304 285 c 2,3,-1
 126 557 l 1,4,-1
 126 23 l 2,5,6
 126 -7 126 -7 105 -7 c 128,-1,7
 84 -7 84 -7 84 23 c 2,8,-1
 84 612 l 2,9,10
 84 643 84 643 103 643 c 0,11,12
 118 643 118 643 129 626 c 2,13,-1
 316 342 l 1,14,-1
 504 626 l 2,15,16
 515 643 515 643 529 643 c 0,17,18
 549 643 549 643 549 612 c 2,19,-1
 549 23 l 2,20,21
 549 -7 549 -7 528 -7 c 128,-1,22
 507 -7 507 -7 507 23 c 2,23,-1
 507 557 l 1,24,-1
 329 285 l 2,0,1
EndSplineSet
Validated: 1
EndChar

StartChar: N
Encoding: 78 78 47
Width: 612
Flags: W
HStem: -7 21G<94.5 115.5 502 518> 623 20G<93.5 110.5 496.5 517.5>
VStem: 84 42<-6.99268 557> 486 42<84 642.992>
AnchorPoint: "bottom" 310 0 basechar 0
AnchorPoint: "top" 310 678 basechar 0
LayerCount: 2
Fore
SplineSet
508 -7 m 0,0,1
 496 -7 496 -7 492 0 c 2,2,-1
 126 557 l 1,3,-1
 126 23 l 2,4,5
 126 -7 126 -7 105 -7 c 128,-1,6
 84 -7 84 -7 84 23 c 2,7,-1
 84 612 l 2,8,9
 84 643 84 643 103 643 c 0,10,11
 118 643 118 643 129 626 c 2,12,-1
 486 84 l 1,13,-1
 486 612 l 2,14,15
 486 643 486 643 507 643 c 128,-1,16
 528 643 528 643 528 612 c 2,17,-1
 528 23 l 2,18,19
 528 -7 528 -7 508 -7 c 0,0,1
EndSplineSet
Validated: 1
EndChar

StartChar: O
Encoding: 79 79 48
Width: 574
Flags: W
HStem: -9 42<196.102 377.898> 603 42<196.102 377.898>
VStem: 65 42<126.058 509.942> 467 42<126.058 509.942>
AnchorPoint: "bottom" 287 0 basechar 0
AnchorPoint: "top" 287 678 basechar 0
LayerCount: 2
Fore
SplineSet
287 -9 m 128,-1,1
 190 -9 190 -9 127.5 54 c 128,-1,2
 65 117 65 117 65 227 c 2,3,-1
 65 409 l 2,4,5
 65 519 65 519 127.5 582 c 128,-1,6
 190 645 190 645 287 645 c 128,-1,7
 384 645 384 645 446.5 582 c 128,-1,8
 509 519 509 519 509 409 c 2,9,-1
 509 227 l 2,10,11
 509 117 509 117 446.5 54 c 128,-1,0
 384 -9 384 -9 287 -9 c 128,-1,1
287 603 m 128,-1,13
 203 603 203 603 155 551.5 c 128,-1,14
 107 500 107 500 107 409 c 2,15,-1
 107 227 l 2,16,17
 107 136 107 136 155 84.5 c 128,-1,18
 203 33 203 33 287 33 c 128,-1,19
 371 33 371 33 419 84.5 c 128,-1,20
 467 136 467 136 467 227 c 2,21,-1
 467 409 l 2,22,23
 467 500 467 500 419 551.5 c 128,-1,12
 371 603 371 603 287 603 c 128,-1,13
EndSplineSet
Validated: 1
EndChar

StartChar: P
Encoding: 80 80 49
Width: 520
Flags: W
HStem: -7 21G<94.5 115.5> 337 42<126 404.427> 594 42<126 404.812>
VStem: 84 42<-6.99341 337 379 594> 444 42<413.615 558.453>
AnchorPoint: "bottom" 261 0 basechar 0
AnchorPoint: "top" 261 678 basechar 0
LayerCount: 2
Fore
SplineSet
486 492 m 0,0,1
 486 337 486 337 321 337 c 2,2,-1
 126 337 l 1,3,-1
 126 20 l 2,4,5
 126 -7 126 -7 105 -7 c 128,-1,6
 84 -7 84 -7 84 20 c 2,7,-1
 84 605 l 2,8,9
 84 636 84 636 103 636 c 2,10,-1
 279 636 l 2,11,12
 382 636 382 636 434 604 c 128,-1,13
 486 572 486 572 486 492 c 0,0,1
279 379 m 2,14,15
 369 379 369 379 406.5 399.5 c 128,-1,16
 444 420 444 420 444 486 c 128,-1,17
 444 552 444 552 406.5 573 c 128,-1,18
 369 594 369 594 279 594 c 2,19,-1
 126 594 l 1,20,-1
 126 379 l 1,21,-1
 279 379 l 2,14,15
EndSplineSet
Validated: 1
EndChar

StartChar: Q
Encoding: 81 81 50
Width: 574
Flags: W
HStem: -9 42<194.695 378.104> 603 42<196.102 377.898>
VStem: 65 42<126.058 509.942> 467 42<123.82 509.942>
AnchorPoint: "top" 287 678 basechar 0
AnchorPoint: "bottom" 287 0 basechar 0
LayerCount: 2
Fore
SplineSet
287 603 m 128,-1,1
 203 603 203 603 155 551.5 c 128,-1,2
 107 500 107 500 107 409 c 2,3,-1
 107 227 l 2,4,5
 107 136 107 136 155 84.5 c 128,-1,6
 203 33 203 33 279.5 33 c 128,-1,7
 356 33 356 33 399 67 c 1,8,-1
 341 124 l 2,9,10
 330 135 330 135 330 143 c 128,-1,11
 330 151 330 151 336 158 c 128,-1,12
 342 165 342 165 351 165 c 128,-1,13
 360 165 360 165 371 154 c 2,14,-1
 429 95 l 1,15,16
 467 145 467 145 467 227 c 2,17,-1
 467 409 l 2,18,19
 467 500 467 500 419 551.5 c 128,-1,0
 371 603 371 603 287 603 c 128,-1,1
429 37 m 1,20,21
 369 -9 369 -9 279.5 -9 c 128,-1,22
 190 -9 190 -9 127.5 54 c 128,-1,23
 65 117 65 117 65 227 c 2,24,-1
 65 409 l 2,25,26
 65 519 65 519 127.5 582 c 128,-1,27
 190 645 190 645 287 645 c 128,-1,28
 384 645 384 645 446.5 582 c 128,-1,29
 509 519 509 519 509 409 c 2,30,-1
 509 227 l 2,31,32
 509 128 509 128 458 67 c 1,33,-1
 496 29 l 2,34,35
 506 19 506 19 506 10 c 128,-1,36
 506 1 506 1 500.5 -5.5 c 128,-1,37
 495 -12 495 -12 487 -12 c 128,-1,38
 479 -12 479 -12 466 -1 c 1,39,-1
 429 37 l 1,20,21
EndSplineSet
Validated: 1
EndChar

StartChar: R
Encoding: 82 82 51
Width: 549
Flags: W
HStem: -7 21G<94.5 115.5 468 483> 337 42<126 335.748> 594 42<126 404.812>
VStem: 84 42<-6.99341 337 379 594> 444 42<414.19 558.584> 452 42<-6.96704 109.325>
AnchorPoint: "top" 261 678 basechar 0
AnchorPoint: "bottom" 291 0 basechar 0
LayerCount: 2
Fore
SplineSet
279 379 m 2,0,1
 368 380 368 380 406 400 c 128,-1,2
 444 420 444 420 444 486 c 128,-1,3
 444 552 444 552 406.5 573 c 128,-1,4
 369 594 369 594 279 594 c 2,5,-1
 126 594 l 1,6,-1
 126 379 l 1,7,-1
 279 379 l 2,0,1
126 20 m 2,8,9
 126 -7 126 -7 105 -7 c 128,-1,10
 84 -7 84 -7 84 20 c 2,11,-1
 84 605 l 2,12,13
 84 636 84 636 103 636 c 2,14,-1
 279 636 l 2,15,16
 382 636 382 636 434 604 c 128,-1,17
 486 572 486 572 486 486 c 0,18,19
 486 423 486 423 454 386 c 128,-1,20
 422 349 422 349 363 340 c 1,21,22
 396 314 396 314 428.5 235.5 c 128,-1,23
 461 157 461 157 477.5 94.5 c 128,-1,24
 494 32 494 32 494 20 c 0,25,26
 494 -7 494 -7 472 -7 c 0,27,28
 464 -6 464 -6 458 2 c 128,-1,29
 452 10 452 10 452 22 c 128,-1,30
 452 34 452 34 438 91 c 128,-1,31
 424 148 424 148 390 226 c 128,-1,32
 356 304 356 304 314 337 c 1,33,-1
 126 337 l 1,34,-1
 126 20 l 2,8,9
EndSplineSet
Validated: 1
EndChar

StartChar: S
Encoding: 83 83 52
Width: 570
Flags: W
HStem: -8 42<145.727 426.474> 602 42<144.293 425.671>
VStem: 62 42<75.75 194.938 409.127 557.958> 466 42<78.2634 237.397 443.007 563.466>
AnchorPoint: "top" 306 678 basechar 0
AnchorPoint: "bottom" 306 0 basechar 0
LayerCount: 2
Fore
SplineSet
128.5 564.5 m 128,-1,1
 104 527 104 527 104 484.5 c 128,-1,2
 104 442 104 442 122.5 412.5 c 128,-1,3
 141 383 141 383 168 376 c 2,4,-1
 385 324 l 1,5,6
 508 293 508 293 508 154 c 0,7,8
 508 88 508 88 470.5 40 c 128,-1,9
 433 -8 433 -8 347 -8 c 2,10,-1
 271 -8 l 2,11,12
 219 -8 219 -8 184.5 -2 c 128,-1,13
 150 4 150 4 120 22 c 0,14,15
 62 57 62 57 62 167 c 0,16,17
 62 195 62 195 85 195 c 0,18,19
 105 195 105 195 105 167 c 0,20,21
 105 81 105 81 141 57.5 c 128,-1,22
 177 34 177 34 271 34 c 2,23,-1
 364 34 l 2,24,25
 417 34 417 34 441.5 72 c 128,-1,26
 466 110 466 110 466 157.5 c 128,-1,27
 466 205 466 205 445.5 238 c 128,-1,28
 425 271 425 271 402 276 c 2,29,-1
 186 329 l 2,30,31
 118 345 118 345 90 381 c 128,-1,32
 62 417 62 417 62 483.5 c 128,-1,33
 62 550 62 550 100 597 c 128,-1,34
 138 644 138 644 224 644 c 2,35,-1
 300 644 l 2,36,37
 352 644 352 644 386 638 c 128,-1,38
 420 632 420 632 450 614 c 0,39,40
 508 580 508 580 508 471 c 0,41,42
 508 443 508 443 486.5 443 c 128,-1,43
 465 443 465 443 465 471 c 0,44,45
 465 516 465 516 456 543 c 128,-1,46
 447 570 447 570 423.5 582.5 c 128,-1,47
 400 595 400 595 374 598.5 c 128,-1,48
 348 602 348 602 300 602 c 2,49,-1
 206 602 l 2,50,0
 153 602 153 602 128.5 564.5 c 128,-1,1
EndSplineSet
Validated: 1
EndChar

StartChar: T
Encoding: 84 84 53
Width: 460
Flags: W
HStem: -7 21G<219.5 240.5> 594 42<26.0068 209 251 432.993>
VStem: 209 42<-6.99341 594>
AnchorPoint: "top" 230 678 basechar 0
AnchorPoint: "bottom" 230 0 basechar 0
LayerCount: 2
Fore
SplineSet
405 636 m 2,0,1
 433 636 433 636 433 615 c 128,-1,2
 433 594 433 594 405 594 c 2,3,-1
 251 594 l 1,4,-1
 251 20 l 2,5,6
 251 -7 251 -7 230 -7 c 128,-1,7
 209 -7 209 -7 209 20 c 2,8,-1
 209 594 l 1,9,-1
 54 594 l 2,10,11
 26 594 26 594 26 615 c 128,-1,12
 26 636 26 636 54 636 c 2,13,-1
 405 636 l 2,0,1
EndSplineSet
Validated: 1
EndChar

StartChar: U
Encoding: 85 85 54
Width: 598
Flags: W
HStem: -9 42<208.102 389.898> 623 20G<87.5 108.5 489.5 510.5>
VStem: 77 42<126.058 642.993> 479 42<126.058 642.993>
AnchorPoint: "top" 299 678 basechar 0
AnchorPoint: "bottom" 299 0 basechar 0
LayerCount: 2
Fore
SplineSet
479 615 m 2,0,1
 479 643 479 643 500 643 c 128,-1,2
 521 643 521 643 521 615 c 2,3,-1
 521 227 l 2,4,5
 521 117 521 117 458.5 54 c 128,-1,6
 396 -9 396 -9 299 -9 c 128,-1,7
 202 -9 202 -9 139.5 54 c 128,-1,8
 77 117 77 117 77 227 c 2,9,-1
 77 615 l 2,10,11
 77 643 77 643 98 643 c 128,-1,12
 119 643 119 643 119 615 c 2,13,-1
 119 227 l 2,14,15
 119 136 119 136 167 84.5 c 128,-1,16
 215 33 215 33 299 33 c 128,-1,17
 383 33 383 33 431 84.5 c 128,-1,18
 479 136 479 136 479 227 c 2,19,-1
 479 615 l 2,0,1
EndSplineSet
Validated: 1
EndChar

StartChar: V
Encoding: 86 86 55
Width: 548
Flags: W
HStem: 0 21G<243.707 304.293>
VStem: 23 43<632 651.956>
AnchorPoint: "bottom" 274 0 basechar 0
AnchorPoint: "top" 273 678 basechar 0
LayerCount: 2
Fore
SplineSet
23 632 m 0,0,1
 26 652 26 652 46 652 c 0,2,3
 57 652 57 652 66 632 c 1,4,-1
 274 60 l 1,5,-1
 482 632 l 2,6,7
 490 652 490 652 504 652 c 0,8,9
 513 652 513 652 519 645.5 c 128,-1,10
 525 639 525 639 525 632.5 c 128,-1,11
 525 626 525 626 522 617 c 2,12,-1
 297 0 l 1,13,-1
 251 0 l 1,14,-1
 26 617 l 2,15,16
 23 626 23 626 23 632 c 0,0,1
EndSplineSet
Validated: 1
EndChar

StartChar: W
Encoding: 87 87 56
Width: 892
Flags: W
HStem: 0 21G<213.906 275.195 613.77 676.224>
AnchorPoint: "bottom" 446 0 basechar 0
AnchorPoint: "top" 445 678 basechar 0
LayerCount: 2
Fore
SplineSet
421 630 m 2,0,1
 428 652 428 652 445 652 c 128,-1,2
 462 652 462 652 469 630 c 2,3,-1
 646 60 l 1,4,-1
 822 632 l 1,5,6
 830 652 830 652 841 652 c 128,-1,7
 852 652 852 652 858.5 645.5 c 128,-1,8
 865 639 865 639 865 632.5 c 128,-1,9
 865 626 865 626 862 617 c 2,10,-1
 670 0 l 1,11,-1
 620 0 l 1,12,-1
 444 565 l 1,13,-1
 269 0 l 1,14,-1
 220 0 l 1,15,-1
 32 617 l 2,16,17
 31 620 31 620 27.5 625 c 128,-1,18
 24 630 24 630 24 634 c 0,19,20
 24 640 24 640 32 646 c 128,-1,21
 40 652 40 652 48 652 c 0,22,23
 61 652 61 652 67 632 c 2,24,-1
 245 60 l 1,25,-1
 421 630 l 2,0,1
EndSplineSet
Validated: 1
EndChar

StartChar: X
Encoding: 88 88 57
Width: 537
Flags: W
HStem: -7 21G<52.5 61.5 475.5 484.5> 623 20G<52.5 61.5 475.25 483.75>
AnchorPoint: "bottom" 268 0 basechar 0
AnchorPoint: "top" 267 678 basechar 0
LayerCount: 2
Fore
SplineSet
460 627 m 2,0,1
 471 643 471 643 479.5 643 c 128,-1,2
 488 643 488 643 495 637 c 128,-1,3
 502 631 502 631 502 621.5 c 128,-1,4
 502 612 502 612 495 604 c 1,5,-1
 294 317 l 1,6,-1
 495 32 l 2,7,8
 502 21 502 21 502 12.5 c 128,-1,9
 502 4 502 4 495.5 -1.5 c 128,-1,10
 489 -7 489 -7 480 -7 c 128,-1,11
 471 -7 471 -7 460 7 c 2,12,-1
 268 281 l 1,13,-1
 77 7 l 1,14,15
 66 -7 66 -7 57 -7 c 128,-1,16
 48 -7 48 -7 41.5 -1.5 c 128,-1,17
 35 4 35 4 35 12.5 c 128,-1,18
 35 21 35 21 42 32 c 2,19,-1
 243 317 l 1,20,-1
 42 604 l 1,21,22
 35 612 35 612 35 621.5 c 128,-1,23
 35 631 35 631 41.5 637 c 128,-1,24
 48 643 48 643 57 643 c 128,-1,25
 66 643 66 643 77 627 c 2,26,-1
 268 354 l 1,27,-1
 460 627 l 2,0,1
EndSplineSet
Validated: 1
EndChar

StartChar: Y
Encoding: 89 89 58
Width: 499
Flags: W
HStem: -7 21G<240 260> 623 20G<457 465.5>
VStem: 229 41<-6.99341 310>
AnchorPoint: "bottom" 249 0 basechar 0
AnchorPoint: "top" 248 678 basechar 0
LayerCount: 2
Fore
SplineSet
229 310 m 1,0,-1
 23 604 l 2,1,2
 16 614 16 614 16 622 c 128,-1,3
 16 630 16 630 22 636 c 0,4,5
 30 642 30 642 38 642.5 c 128,-1,6
 46 643 46 643 57 627 c 2,7,-1
 249 354 l 1,8,-1
 440 627 l 1,9,10
 453 643 453 643 461 643 c 0,11,12
 470 642 470 642 476 636 c 128,-1,13
 482 630 482 630 482 622 c 128,-1,14
 482 614 482 614 475 604 c 2,15,-1
 270 310 l 1,16,-1
 270 20 l 2,17,18
 270 -7 270 -7 250 -7 c 128,-1,19
 230 -7 230 -7 229 20 c 1,20,-1
 229 310 l 1,0,-1
EndSplineSet
Validated: 1
EndChar

StartChar: Z
Encoding: 90 90 59
Width: 535
Flags: W
HStem: 0 42<95 488.993> 594 42<45.0076 442>
AnchorPoint: "bottom" 268 0 basechar 0
AnchorPoint: "top" 267 678 basechar 0
LayerCount: 2
Fore
SplineSet
46 0 m 1,0,-1
 46 44 l 1,1,-1
 442 594 l 1,2,-1
 76 594 l 2,3,4
 45 594 45 594 45 615 c 128,-1,5
 45 636 45 636 76 636 c 2,6,-1
 489 636 l 1,7,-1
 489 590 l 1,8,-1
 95 42 l 1,9,-1
 459 42 l 2,10,11
 489 42 489 42 489 21 c 128,-1,12
 489 0 489 0 459 0 c 2,13,-1
 46 0 l 1,0,-1
EndSplineSet
Validated: 1
EndChar

StartChar: bracketleft
Encoding: 91 91 60
Width: 244
Flags: W
HStem: -42 42<122 200> 636 42<122 200>
VStem: 80 120<-42 0 636 678> 80 42<0 636>
LayerCount: 2
Fore
SplineSet
200 636 m 1,0,-1
 122 636 l 1,1,-1
 122 0 l 1,2,-1
 200 0 l 1,3,-1
 200 -42 l 1,4,-1
 80 -42 l 1,5,-1
 80 678 l 1,6,-1
 200 678 l 1,7,-1
 200 636 l 1,0,-1
EndSplineSet
Validated: 1
EndChar

StartChar: backslash
Encoding: 92 92 61
Width: 349
Flags: W
HStem: -8 21G<277 295> 625 20G<53.5 71.5>
VStem: 43 42<625 644.995> 264 42<-7.98047 12>
LayerCount: 2
Fore
SplineSet
64 645 m 0,0,1
 79 645 79 645 85 625 c 1,2,-1
 303 27 l 2,3,4
 306 17 306 17 306 11 c 0,5,6
 306 -8 306 -8 284 -8 c 0,7,8
 270 -8 270 -8 264 12 c 1,9,-1
 46 610 l 2,10,11
 43 619 43 619 43 626 c 0,12,13
 43 645 43 645 64 645 c 0,0,1
EndSplineSet
Validated: 1
EndChar

StartChar: bracketright
Encoding: 93 93 62
Width: 244
Flags: W
HStem: -42 42<44 122> 636 42<44 122>
VStem: 44 120<-42 0 636 678> 122 42<0 636>
LayerCount: 2
Fore
SplineSet
44 0 m 1,0,-1
 122 0 l 1,1,-1
 122 636 l 1,2,-1
 44 636 l 1,3,-1
 44 678 l 1,4,-1
 164 678 l 1,5,-1
 164 -42 l 1,6,-1
 44 -42 l 1,7,-1
 44 0 l 1,0,-1
EndSplineSet
Validated: 1
EndChar

StartChar: asciicircum
Encoding: 94 94 63
Width: 443
Flags: W
HStem: 365 271
VStem: 85 42<365.215 383> 316 42<365.215 383>
LayerCount: 2
Fore
SplineSet
223 590 m 1,0,-1
 220 590 l 1,1,-1
 127 383 l 2,2,3
 118 365 118 365 103 365 c 0,4,5
 85 365 85 365 85 383 c 0,6,7
 85 385 85 385 87 393 c 1,8,-1
 195 636 l 1,9,-1
 249 636 l 1,10,-1
 356 393 l 2,11,12
 358 389 358 389 358 383 c 0,13,14
 358 365 358 365 340 365 c 0,15,16
 325 365 325 365 316 383 c 2,17,-1
 223 590 l 1,0,-1
EndSplineSet
Validated: 1
EndChar

StartChar: underscore
Encoding: 95 95 64
Width: 475
Flags: W
HStem: -42 42<0.00683594 474.993>
LayerCount: 2
Fore
SplineSet
28 -42 m 2,0,1
 0 -42 0 -42 0 -21 c 128,-1,2
 0 0 0 0 28 0 c 2,3,-1
 447 0 l 2,4,5
 475 0 475 0 475 -21 c 128,-1,6
 475 -42 475 -42 447 -42 c 2,7,-1
 28 -42 l 2,0,1
EndSplineSet
Validated: 1
EndChar

StartChar: grave
Encoding: 96 96 65
Width: 212
Flags: W
HStem: 510 168
VStem: 34 145
LayerCount: 2
Fore
SplineSet
42 638 m 2,0,1
 34 647 34 647 34 656.5 c 128,-1,2
 34 666 34 666 40.5 672 c 128,-1,3
 47 678 47 678 55 678 c 128,-1,4
 63 678 63 678 75 665 c 2,5,-1
 171 550 l 2,6,7
 179 541 179 541 179 531.5 c 128,-1,8
 179 522 179 522 172.5 516 c 128,-1,9
 166 510 166 510 158 510 c 128,-1,10
 150 510 150 510 138 523 c 2,11,-1
 42 638 l 2,0,1
EndSplineSet
Validated: 1
EndChar

StartChar: a
Encoding: 97 97 66
Width: 534
Flags: W
HStem: 0 42<122.83 341.215> 248 42<144.03 420> 419 42<125.281 406.589>
VStem: 60 42<63.571 207.97 324.007 397.275> 420 42<-6.99268 72 124.102 248 290 403.526>
AnchorPoint: "top" 263 510 basechar 0
AnchorPoint: "bottom" 254 0 basechar 0
LayerCount: 2
Fore
SplineSet
268 248 m 2,0,1
 220 248 220 248 193.5 244.5 c 128,-1,2
 167 241 167 241 144 227.5 c 128,-1,3
 121 214 121 214 111.5 187 c 128,-1,4
 102 160 102 160 102 123.5 c 128,-1,5
 102 87 102 87 120.5 64.5 c 128,-1,6
 139 42 139 42 162 42 c 2,7,-1
 255 42 l 2,8,9
 334 42 334 42 377 90 c 128,-1,10
 420 138 420 138 420 228 c 2,11,-1
 420 248 l 1,12,-1
 268 248 l 2,0,1
268 290 m 2,13,-1
 420 290 l 1,14,-1
 420 354 l 2,15,16
 420 389 420 389 407 404 c 128,-1,17
 394 419 394 419 360 419 c 2,18,-1
 219 419 l 2,19,20
 102 419 102 419 102 354 c 0,21,22
 102 324 102 324 81 324 c 128,-1,23
 60 324 60 324 60 354 c 0,24,25
 60 408 60 408 102.5 434.5 c 128,-1,26
 145 461 145 461 212 461 c 2,27,-1
 367 461 l 2,28,29
 422 461 422 461 442 434 c 128,-1,30
 462 407 462 407 462 337 c 2,31,-1
 462 23 l 2,32,33
 462 -7 462 -7 441 -7 c 128,-1,34
 420 -7 420 -7 420 23 c 2,35,-1
 420 72 l 1,36,37
 366 0 366 0 255 0 c 2,38,-1
 162 0 l 2,39,40
 116 0 116 0 88 32 c 0,41,42
 60 66 60 66 60 114 c 0,43,44
 60 242 60 242 141 272 c 0,45,46
 189 290 189 290 268 290 c 2,13,-1
EndSplineSet
Validated: 1
EndChar

StartChar: b
Encoding: 98 98 67
Width: 580
Flags: W
HStem: 0 42<193.4 434.041> 419 42<193.4 434.041> 623 20G<83.5 104.5>
VStem: 74 42<-6.99268 72 124.102 336.135 389 642.932> 476 42<83.1934 377.807>
AnchorPoint: "bottom" 297 0 basechar 0
AnchorPoint: "top" 306 510 basechar 0
LayerCount: 2
Fore
SplineSet
116 389 m 1,0,1
 172 461 172 461 282 461 c 2,2,-1
 311 461 l 2,3,4
 416 461 416 461 467 426 c 128,-1,5
 518 391 518 391 518 286 c 2,6,-1
 518 175 l 2,7,8
 518 70 518 70 467 35 c 128,-1,9
 416 0 416 0 311 0 c 2,10,-1
 282 0 l 2,11,12
 172 0 172 0 116 72 c 1,13,-1
 116 23 l 2,14,15
 116 -7 116 -7 95 -7 c 128,-1,16
 74 -7 74 -7 74 23 c 2,17,-1
 74 612 l 2,18,19
 74 643 74 643 93 643 c 0,20,21
 116 643 116 643 116 612 c 2,22,-1
 116 389 l 1,0,1
282 419 m 2,23,24
 202 419 202 419 159 370.5 c 128,-1,25
 116 322 116 322 116 232 c 2,26,-1
 116 228 l 2,27,28
 116 138 116 138 159 90 c 128,-1,29
 202 42 202 42 282 42 c 2,30,-1
 311 42 l 2,31,32
 358 42 358 42 384.5 45.5 c 128,-1,33
 411 49 411 49 434 62.5 c 128,-1,34
 457 76 457 76 466.5 103 c 128,-1,35
 476 130 476 130 476 175 c 2,36,-1
 476 286 l 2,37,38
 476 331 476 331 466.5 358 c 128,-1,39
 457 385 457 385 434 398.5 c 128,-1,40
 411 412 411 412 384.5 415.5 c 128,-1,41
 358 419 358 419 311 419 c 2,42,-1
 282 419 l 2,23,24
EndSplineSet
Validated: 1
EndChar

StartChar: c
Encoding: 99 99 68
Width: 564
Flags: W
HStem: 0 42<146.038 450.589> 419 42<146.038 450.589>
VStem: 62 42<83.1934 377.807> 464 42<57.473 136.963 324.009 403.012>
AnchorPoint: "bottom" 294 0 basechar 0
AnchorPoint: "top" 294 510 basechar 0
LayerCount: 2
Fore
SplineSet
411 0 m 2,0,-1
 270 0 l 2,1,2
 164 0 164 0 113 35 c 128,-1,3
 62 70 62 70 62 175 c 2,4,-1
 62 286 l 2,5,6
 62 391 62 391 113 426 c 128,-1,7
 164 461 164 461 270 461 c 2,8,-1
 411 461 l 1,9,10
 413 461 413 461 415 461 c 0,11,12
 475 461 475 461 490 429 c 0,13,14
 506 396 506 396 506 360 c 128,-1,15
 506 324 506 324 485 324 c 128,-1,16
 464 324 464 324 464 356 c 128,-1,17
 464 388 464 388 451 403.5 c 128,-1,18
 438 419 438 419 404 419 c 2,19,-1
 270 419 l 2,20,21
 222 419 222 419 195.5 415.5 c 128,-1,22
 169 412 169 412 146 398.5 c 128,-1,23
 123 385 123 385 113.5 358 c 128,-1,24
 104 331 104 331 104 286 c 2,25,-1
 104 175 l 2,26,27
 104 130 104 130 113.5 103 c 128,-1,28
 123 76 123 76 146 62.5 c 128,-1,29
 169 49 169 49 195.5 45.5 c 128,-1,30
 222 42 222 42 270 42 c 2,31,-1
 404 42 l 2,32,33
 438 42 438 42 451 57 c 128,-1,34
 464 72 464 72 464 104.5 c 128,-1,35
 464 137 464 137 485 137 c 0,36,37
 506 136 506 136 506 110 c 0,38,39
 506 64 506 64 490 32 c 128,-1,40
 474 0 474 0 411 0 c 2,0,-1
EndSplineSet
Validated: 1
EndChar

StartChar: d
Encoding: 100 100 69
Width: 580
Flags: W
HStem: 0 42<146.038 385.215> 419 42<146.038 464> 623 20G<475.5 496.5>
VStem: 62 42<83.1934 377.807> 464 42<-6.99268 72 124.102 419 461 642.932>
AnchorPoint: "bottom" 284 0 basechar 0
AnchorPoint: "top" 265 510 basechar 0
LayerCount: 2
Fore
SplineSet
104 175 m 2,0,1
 104 130 104 130 113.5 103 c 128,-1,2
 123 76 123 76 146 62.5 c 128,-1,3
 169 49 169 49 195.5 45.5 c 128,-1,4
 222 42 222 42 270 42 c 2,5,-1
 299 42 l 2,6,7
 378 42 378 42 421 90 c 128,-1,8
 464 138 464 138 464 228 c 2,9,-1
 464 419 l 1,10,-1
 270 419 l 2,11,12
 222 419 222 419 195.5 415.5 c 128,-1,13
 169 412 169 412 146 398.5 c 128,-1,14
 123 385 123 385 113.5 358 c 128,-1,15
 104 331 104 331 104 286 c 2,16,-1
 104 175 l 2,0,1
62 286 m 2,17,18
 62 391 62 391 113 426 c 128,-1,19
 164 461 164 461 270 461 c 2,20,-1
 464 461 l 1,21,-1
 464 612 l 2,22,23
 464 643 464 643 487 643 c 0,24,25
 506 643 506 643 506 612 c 2,26,-1
 506 23 l 2,27,28
 506 -7 506 -7 485 -7 c 128,-1,29
 464 -7 464 -7 464 23 c 2,30,-1
 464 72 l 1,31,32
 410 0 410 0 299 0 c 2,33,-1
 270 0 l 2,34,35
 164 0 164 0 113 35 c 128,-1,36
 62 70 62 70 62 175 c 2,37,-1
 62 286 l 2,17,18
EndSplineSet
Validated: 1
EndChar

StartChar: e
Encoding: 101 101 70
Width: 566
Flags: W
HStem: 0 42<146.038 450.589> 250 42<104 464> 419 42<146.038 422.041>
VStem: 62 42<83.1934 250 292 379.909> 464 42<57.473 136.963 292 379.909>
AnchorPoint: "top" 294 510 basechar 0
AnchorPoint: "bottom" 294 0 basechar 0
LayerCount: 2
Fore
SplineSet
506 286 m 2,0,-1
 506 250 l 1,1,-1
 104 250 l 1,2,-1
 104 175 l 2,3,4
 104 130 104 130 113.5 103 c 128,-1,5
 123 76 123 76 146 62.5 c 128,-1,6
 169 49 169 49 195.5 45.5 c 128,-1,7
 222 42 222 42 270 42 c 2,8,-1
 404 42 l 2,9,10
 438 42 438 42 451 57 c 128,-1,11
 464 72 464 72 464 104.5 c 128,-1,12
 464 137 464 137 485 137 c 0,13,14
 506 136 506 136 506 110 c 0,15,16
 506 64 506 64 490 32 c 128,-1,17
 474 0 474 0 411 0 c 2,18,-1
 270 0 l 2,19,20
 164 0 164 0 113 35 c 128,-1,21
 62 70 62 70 62 175 c 2,22,-1
 62 286 l 2,23,24
 62 391 62 391 113 426 c 128,-1,25
 164 461 164 461 270 461 c 2,26,-1
 299 461 l 2,27,28
 404 461 404 461 455 426 c 128,-1,29
 506 391 506 391 506 286 c 2,0,-1
299 419 m 2,30,-1
 270 419 l 2,31,32
 178 419 178 419 141 396 c 128,-1,33
 104 373 104 373 104 292 c 1,34,-1
 464 292 l 1,35,36
 464 373 464 373 427 396 c 128,-1,37
 390 419 390 419 299 419 c 2,30,-1
EndSplineSet
Validated: 1
EndChar

StartChar: f
Encoding: 102 102 71
Width: 313
Flags: W
HStem: -7 21G<88.5 109.5> 419 42<48.0076 79 121 294.932> 594 42<163.024 317.932>
VStem: 79 42<-6.93188 419 461 554.497>
AnchorPoint: "top" 241 678 basechar 0
AnchorPoint: "bottom" 99 2 basechar 0
LayerCount: 2
Fore
SplineSet
287 594 m 0,0,1
 239 594 239 594 212.5 590.5 c 128,-1,2
 186 587 186 587 163 573.5 c 128,-1,3
 140 560 140 560 130.5 533 c 128,-1,4
 121 506 121 506 121 461 c 1,5,-1
 264 461 l 2,6,7
 295 461 295 461 295 438 c 0,8,9
 295 419 295 419 264 419 c 2,10,-1
 121 419 l 1,11,-1
 121 24 l 2,12,13
 121 -7 121 -7 98 -7 c 0,14,15
 79 -7 79 -7 79 24 c 2,16,-1
 79 419 l 1,17,18
 48 419 48 419 48 440 c 128,-1,19
 48 461 48 461 79 461 c 1,20,21
 79 571 79 571 137 606 c 0,22,23
 167 624 167 624 201 630 c 128,-1,24
 235 636 235 636 287 636 c 0,25,26
 318 636 318 636 318 613 c 0,27,28
 318 594 318 594 287 594 c 0,0,1
EndSplineSet
Validated: 1
EndChar

StartChar: g
Encoding: 103 103 72
Width: 581
Flags: W
HStem: -205 42<117.411 453.682> 0 42<146.038 450.589> 419 42<146.038 385.215>
VStem: 62 42<-147.012 -68.0088 83.1934 377.807> 464 42<-151.136 9 56.9581 336.135 389 467.993>
AnchorPoint: "top" 294 510 basechar 0
AnchorPoint: "bottom" 294 0 basechar 0
LayerCount: 2
Fore
SplineSet
62 286 m 2,0,1
 62 391 62 391 113 426 c 128,-1,2
 164 461 164 461 270 461 c 2,3,-1
 299 461 l 2,4,5
 410 461 410 461 464 389 c 1,6,-1
 464 438 l 2,7,8
 464 468 464 468 485 468 c 128,-1,9
 506 468 506 468 506 438 c 2,10,-1
 506 -92 l 2,11,12
 506 -156 506 -156 488 -180.5 c 128,-1,13
 470 -205 470 -205 420 -205 c 2,14,-1
 157 -205 l 1,15,16
 155 -205 155 -205 153 -205 c 0,17,18
 93 -205 93 -205 78 -173 c 0,19,20
 62 -140 62 -140 62 -104 c 128,-1,21
 62 -68 62 -68 83 -68 c 128,-1,22
 104 -68 104 -68 104 -100 c 128,-1,23
 104 -132 104 -132 117 -147.5 c 128,-1,24
 130 -163 130 -163 164 -163 c 2,25,-1
 413 -163 l 2,26,27
 444 -163 444 -163 454 -151.5 c 128,-1,28
 464 -140 464 -140 464 -108 c 2,29,-1
 464 9 l 1,30,31
 445 0 445 0 411 0 c 2,32,-1
 270 0 l 2,33,34
 164 0 164 0 113 35 c 128,-1,35
 62 70 62 70 62 175 c 2,36,-1
 62 286 l 2,0,1
104 175 m 2,37,38
 104 130 104 130 113.5 103 c 128,-1,39
 123 76 123 76 146 62.5 c 128,-1,40
 169 49 169 49 195.5 45.5 c 128,-1,41
 222 42 222 42 270 42 c 2,42,-1
 404 42 l 2,43,44
 438 42 438 42 451 56.5 c 128,-1,45
 464 71 464 71 464 106 c 2,46,-1
 464 232 l 2,47,48
 464 322 464 322 421 370.5 c 128,-1,49
 378 419 378 419 299 419 c 2,50,-1
 270 419 l 2,51,52
 222 419 222 419 195.5 415.5 c 128,-1,53
 169 412 169 412 146 398.5 c 128,-1,54
 123 385 123 385 113.5 358 c 128,-1,55
 104 331 104 331 104 286 c 2,56,-1
 104 175 l 2,37,38
EndSplineSet
Validated: 1
EndChar

StartChar: h
Encoding: 104 104 73
Width: 588
Flags: W
HStem: -7 21G<84.5 105.5 486.5 507.5> 419 42<193.4 434.041> 623 20G<83.5 104.5>
VStem: 74 42<-6.99268 336.135 389 642.932> 476 42<-6.99268 377.807>
AnchorPoint: "top" 306 510 basechar 0
AnchorPoint: "bottom" 297 0 basechar 0
LayerCount: 2
Fore
SplineSet
282 419 m 2,0,1
 202 419 202 419 159 370.5 c 128,-1,2
 116 322 116 322 116 232 c 2,3,-1
 116 23 l 2,4,5
 116 -7 116 -7 95 -7 c 128,-1,6
 74 -7 74 -7 74 23 c 2,7,-1
 74 612 l 2,8,9
 74 643 74 643 93 643 c 0,10,11
 116 643 116 643 116 612 c 2,12,-1
 116 389 l 1,13,14
 172 461 172 461 282 461 c 2,15,-1
 311 461 l 2,16,17
 416 461 416 461 467 426 c 128,-1,18
 518 391 518 391 518 286 c 2,19,-1
 518 23 l 2,20,21
 518 -7 518 -7 497 -7 c 128,-1,22
 476 -7 476 -7 476 23 c 2,23,-1
 476 286 l 2,24,25
 476 331 476 331 466.5 358 c 128,-1,26
 457 385 457 385 434 398.5 c 128,-1,27
 411 412 411 412 384.5 415.5 c 128,-1,28
 358 419 358 419 311 419 c 2,29,-1
 282 419 l 2,0,1
EndSplineSet
Validated: 1
EndChar

StartChar: i
Encoding: 105 105 74
Width: 190
Flags: W
HStem: -7 21G<84.5 105.5> 448 20G<84.5 105.5> 565 72<53.5879 136.879>
VStem: 49 92<571.714 630.286> 74 42<-6.99341 467.993>
AnchorPoint: "top" 95 678 basechar 0
AnchorPoint: "bottom" 95 0 basechar 0
LayerCount: 2
Fore
SplineSet
49 601 m 0,0,1
 50 615 50 615 64 626 c 128,-1,2
 78 637 78 637 94 637 c 128,-1,3
 110 637 110 637 125.5 626 c 128,-1,4
 141 615 141 615 141 601 c 128,-1,5
 141 587 141 587 125.5 576 c 128,-1,6
 110 565 110 565 94 565 c 128,-1,7
 78 565 78 565 63.5 576 c 128,-1,8
 49 587 49 587 49 601 c 0,0,1
116 20 m 2,9,10
 116 -7 116 -7 95 -7 c 128,-1,11
 74 -7 74 -7 74 20 c 2,12,-1
 74 440 l 2,13,14
 74 468 74 468 95 468 c 128,-1,15
 116 468 116 468 116 440 c 2,16,-1
 116 20 l 2,9,10
EndSplineSet
Validated: 1
EndChar

StartChar: j
Encoding: 106 106 75
Width: 192
Flags: W
HStem: -175 42<-121.992 32.9756> 448 20G<85.5 106.5> 565 72<54.121 138.012>
VStem: 50 92<571.714 630.286> 75 42<-92.5 467.992>
AnchorPoint: "bottom" 96 -175 basechar 0
AnchorPoint: "top" 99 678 basechar 0
LayerCount: 2
Fore
SplineSet
50 601 m 128,-1,1
 50 615 50 615 65.5 626 c 128,-1,2
 81 637 81 637 96.5 637 c 128,-1,3
 112 637 112 637 127 626 c 128,-1,4
 142 615 142 615 142 601 c 128,-1,5
 142 587 142 587 127 576 c 128,-1,6
 112 565 112 565 96.5 565 c 128,-1,7
 81 565 81 565 65.5 576 c 128,-1,0
 50 587 50 587 50 601 c 128,-1,1
117 0 m 2,8,9
 117 -112 117 -112 59 -146 c 0,10,11
 29 -164 29 -164 -5 -169.5 c 128,-1,12
 -39 -175 -39 -175 -91 -175 c 0,13,14
 -122 -175 -122 -175 -122 -154 c 128,-1,15
 -122 -133 -122 -133 -91 -133 c 0,16,17
 -43 -133 -43 -133 -16.5 -129.5 c 128,-1,18
 10 -126 10 -126 33 -112.5 c 128,-1,19
 56 -99 56 -99 65.5 -72 c 128,-1,20
 75 -45 75 -45 75 0 c 2,21,-1
 75 437 l 2,22,23
 75 468 75 468 96 468 c 128,-1,24
 117 468 117 468 117 437 c 2,25,-1
 117 0 l 2,8,9
EndSplineSet
Validated: 1
EndChar

StartChar: k
Encoding: 107 107 76
Width: 433
Flags: W
HStem: -7 22G<84.5 105.5 396.5 405.5> 446 20G<324.75 332.25> 623 20G<84.5 105.5>
VStem: 74 42<-6.99341 203 262 642.993>
AnchorPoint: "bottom" 247 0 basechar 0
AnchorPoint: "top" 241 510 basechar 0
LayerCount: 2
Fore
SplineSet
411 35 m 2,0,1
 421 25 421 25 421 16 c 128,-1,2
 421 7 421 7 415.5 0.5 c 128,-1,3
 410 -6 410 -6 401 -6 c 128,-1,4
 392 -6 392 -6 381 5 c 2,5,-1
 150 237 l 1,6,-1
 116 203 l 1,7,-1
 116 20 l 2,8,9
 116 -7 116 -7 95 -7 c 128,-1,10
 74 -7 74 -7 74 20 c 2,11,-1
 74 615 l 2,12,13
 74 643 74 643 95 643 c 128,-1,14
 116 643 116 643 116 615 c 2,15,-1
 116 262 l 1,16,-1
 308 455 l 1,17,18
 321 466 321 466 328.5 466 c 128,-1,19
 336 466 336 466 342.5 460 c 128,-1,20
 349 454 349 454 349 445 c 128,-1,21
 349 436 349 436 338 425 c 2,22,-1
 179 266 l 1,23,-1
 411 35 l 2,0,1
EndSplineSet
Validated: 1
EndChar

StartChar: l
Encoding: 108 108 77
Width: 260
Flags: W
HStem: 0 42<145.411 221.992> 623 20G<100.5 121.5>
VStem: 90 42<56.9581 642.993>
AnchorPoint: "bottom" 153 0 basechar 0
AnchorPoint: "top" 111 678 basechar 0
LayerCount: 2
Fore
SplineSet
192 0 m 2,0,-1
 185 0 l 2,1,2
 130 0 130 0 110 27 c 128,-1,3
 90 54 90 54 90 124 c 2,4,-1
 90 613 l 2,5,6
 90 643 90 643 111 643 c 128,-1,7
 132 643 132 643 132 613 c 2,8,-1
 132 106 l 2,9,10
 132 71 132 71 145 56.5 c 128,-1,11
 158 42 158 42 190 42 c 128,-1,12
 222 42 222 42 222 21 c 128,-1,13
 222 0 222 0 192 0 c 2,0,-1
EndSplineSet
Validated: 1
EndChar

StartChar: m
Encoding: 109 109 78
Width: 812
Flags: W
HStem: -7 21G<84.5 105.5 396.5 417.5 709.5 730.5> 419 42<179.488 353.043 491.504 666.153>
VStem: 74 42<-6.99268 345.486 389 467.932> 386 42<-6.99268 345.326> 699 42<-6.99268 386.01>
AnchorPoint: "bottom" 407 0 basechar 0
AnchorPoint: "top" 407 510 basechar 0
LayerCount: 2
Fore
SplineSet
251 419 m 0,0,1
 187 419 187 419 151.5 370.5 c 128,-1,2
 116 322 116 322 116 232 c 2,3,-1
 116 23 l 2,4,5
 116 -7 116 -7 95 -7 c 128,-1,6
 74 -7 74 -7 74 23 c 2,7,-1
 74 437 l 2,8,9
 74 468 74 468 93 468 c 0,10,11
 116 468 116 468 116 437 c 2,12,-1
 116 389 l 1,13,14
 146 428 146 428 175 444.5 c 128,-1,15
 204 461 204 461 261 461 c 128,-1,16
 318 461 318 461 359 443 c 128,-1,17
 400 425 400 425 417 374 c 1,18,19
 464 461 464 461 558 461 c 128,-1,20
 652 461 652 461 696.5 426 c 128,-1,21
 741 391 741 391 741 286 c 2,22,-1
 741 23 l 2,23,24
 741 -7 741 -7 720 -7 c 128,-1,25
 699 -7 699 -7 699 23 c 2,26,-1
 699 286 l 2,27,28
 699 331 699 331 692 358 c 128,-1,29
 685 385 685 385 666 398.5 c 128,-1,30
 647 412 647 412 625 415.5 c 128,-1,31
 603 419 603 419 563 419 c 0,32,33
 499 419 499 419 463.5 370.5 c 128,-1,34
 428 322 428 322 428 232 c 2,35,-1
 428 23 l 2,36,37
 428 -7 428 -7 407 -7 c 128,-1,38
 386 -7 386 -7 386 23 c 2,39,-1
 386 286 l 2,40,41
 386 331 386 331 379 358 c 128,-1,42
 372 385 372 385 353 398.5 c 128,-1,43
 334 412 334 412 312.5 415.5 c 128,-1,44
 291 419 291 419 251 419 c 0,0,1
EndSplineSet
Validated: 1
EndChar

StartChar: n
Encoding: 110 110 79
Width: 587
Flags: W
HStem: -7 21G<84.5 105.5 486.5 507.5> 419 42<193.4 434.041>
VStem: 74 42<-6.99268 336.135 389 467.932> 476 42<-6.99268 377.807>
AnchorPoint: "bottom" 306 0 basechar 0
AnchorPoint: "top" 306 510 basechar 0
LayerCount: 2
Fore
SplineSet
282 419 m 2,0,1
 202 419 202 419 159 370.5 c 128,-1,2
 116 322 116 322 116 232 c 2,3,-1
 116 23 l 2,4,5
 116 -7 116 -7 95 -7 c 128,-1,6
 74 -7 74 -7 74 23 c 2,7,-1
 74 437 l 2,8,9
 74 468 74 468 93 468 c 0,10,11
 116 468 116 468 116 437 c 2,12,-1
 116 389 l 1,13,14
 172 461 172 461 282 461 c 2,15,-1
 311 461 l 2,16,17
 416 461 416 461 467 426 c 128,-1,18
 518 391 518 391 518 286 c 2,19,-1
 518 23 l 2,20,21
 518 -7 518 -7 497 -7 c 128,-1,22
 476 -7 476 -7 476 23 c 2,23,-1
 476 286 l 2,24,25
 476 331 476 331 466.5 358 c 128,-1,26
 457 385 457 385 434 398.5 c 128,-1,27
 411 412 411 412 384.5 415.5 c 128,-1,28
 358 419 358 419 311 419 c 2,29,-1
 282 419 l 2,0,1
EndSplineSet
Validated: 1
EndChar

StartChar: o
Encoding: 111 111 80
Width: 568
Flags: W
HStem: 0 42<146.038 422.041> 419 42<146.038 422.041>
VStem: 62 42<83.1934 377.807> 464 42<83.1934 377.807>
AnchorPoint: "bottom" 284 0 basechar 0
AnchorPoint: "top" 284 510 basechar 0
LayerCount: 2
Fore
SplineSet
299 0 m 2,0,-1
 270 0 l 2,1,2
 164 0 164 0 113 35 c 128,-1,3
 62 70 62 70 62 175 c 2,4,-1
 62 286 l 2,5,6
 62 391 62 391 113 426 c 128,-1,7
 164 461 164 461 270 461 c 2,8,-1
 299 461 l 2,9,10
 404 461 404 461 455 426 c 128,-1,11
 506 391 506 391 506 286 c 2,12,-1
 506 175 l 2,13,14
 506 70 506 70 455 35 c 128,-1,15
 404 0 404 0 299 0 c 2,0,-1
270 42 m 2,16,-1
 299 42 l 2,17,18
 346 42 346 42 372.5 45.5 c 128,-1,19
 399 49 399 49 422 62.5 c 128,-1,20
 445 76 445 76 454.5 103 c 128,-1,21
 464 130 464 130 464 175 c 2,22,-1
 464 286 l 2,23,24
 464 331 464 331 454.5 358 c 128,-1,25
 445 385 445 385 422 398.5 c 128,-1,26
 399 412 399 412 372.5 415.5 c 128,-1,27
 346 419 346 419 299 419 c 2,28,-1
 270 419 l 2,29,30
 222 419 222 419 195.5 415.5 c 128,-1,31
 169 412 169 412 146 398.5 c 128,-1,32
 123 385 123 385 113.5 358 c 128,-1,33
 104 331 104 331 104 286 c 2,34,-1
 104 175 l 2,35,36
 104 130 104 130 113.5 103 c 128,-1,37
 123 76 123 76 146 62.5 c 128,-1,38
 169 49 169 49 195.5 45.5 c 128,-1,39
 222 42 222 42 270 42 c 2,16,-1
EndSplineSet
Validated: 1
EndChar

StartChar: p
Encoding: 112 112 81
Width: 581
Flags: W
HStem: 0 42<117 435.041> 419 42<194.4 435.041>
VStem: 75 42<-181.934 0 42 336.135 389 467.993> 477 42<83.1934 377.807>
AnchorPoint: "bottom" 307 0 basechar 0
AnchorPoint: "top" 307 510 basechar 0
LayerCount: 2
Fore
SplineSet
477 286 m 2,0,1
 477 331 477 331 467.5 358 c 128,-1,2
 458 385 458 385 435 398.5 c 128,-1,3
 412 412 412 412 385.5 415.5 c 128,-1,4
 359 419 359 419 312 419 c 2,5,-1
 283 419 l 2,6,7
 203 419 203 419 160 370.5 c 128,-1,8
 117 322 117 322 117 232 c 2,9,-1
 117 42 l 1,10,-1
 312 42 l 2,11,12
 359 42 359 42 385.5 45.5 c 128,-1,13
 412 49 412 49 435 62.5 c 128,-1,14
 458 76 458 76 467.5 103 c 128,-1,15
 477 130 477 130 477 175 c 2,16,-1
 477 286 l 2,0,1
519 175 m 2,17,18
 519 70 519 70 468 35 c 128,-1,19
 417 0 417 0 312 0 c 2,20,-1
 117 0 l 1,21,-1
 117 -152 l 2,22,23
 117 -182 117 -182 94 -182 c 0,24,25
 75 -182 75 -182 75 -152 c 2,26,-1
 75 438 l 2,27,28
 75 468 75 468 96 468 c 128,-1,29
 117 468 117 468 117 438 c 2,30,-1
 117 389 l 1,31,32
 173 461 173 461 283 461 c 2,33,-1
 312 461 l 2,34,35
 417 461 417 461 468 426 c 128,-1,36
 519 391 519 391 519 286 c 2,37,-1
 519 175 l 2,17,18
EndSplineSet
Validated: 1
EndChar

StartChar: q
Encoding: 113 113 82
Width: 581
Flags: W
HStem: 0 42<146.038 464> 419 42<146.038 385.215>
VStem: 62 42<83.1934 377.807> 464 42<-181.934 0 42 336.135 389 467.993>
AnchorPoint: "bottom" 278 0 basechar 0
AnchorPoint: "top" 278 510 basechar 0
LayerCount: 2
Fore
SplineSet
104 286 m 2,0,-1
 104 175 l 2,1,2
 104 130 104 130 113.5 103 c 128,-1,3
 123 76 123 76 146 62.5 c 128,-1,4
 169 49 169 49 195.5 45.5 c 128,-1,5
 222 42 222 42 270 42 c 2,6,-1
 464 42 l 1,7,-1
 464 232 l 2,8,9
 464 322 464 322 421 370.5 c 128,-1,10
 378 419 378 419 299 419 c 2,11,-1
 270 419 l 2,12,13
 222 419 222 419 195.5 415.5 c 128,-1,14
 169 412 169 412 146 398.5 c 128,-1,15
 123 385 123 385 113.5 358 c 128,-1,16
 104 331 104 331 104 286 c 2,0,-1
62 175 m 2,17,-1
 62 286 l 2,18,19
 62 391 62 391 113 426 c 128,-1,20
 164 461 164 461 270 461 c 2,21,-1
 299 461 l 2,22,23
 410 461 410 461 464 389 c 1,24,-1
 464 438 l 2,25,26
 464 468 464 468 485 468 c 128,-1,27
 506 468 506 468 506 438 c 2,28,-1
 506 -152 l 2,29,30
 506 -182 506 -182 487 -182 c 0,31,32
 464 -182 464 -182 464 -152 c 2,33,-1
 464 0 l 1,34,-1
 270 0 l 2,35,36
 164 0 164 0 113 35 c 128,-1,37
 62 70 62 70 62 175 c 2,17,-1
EndSplineSet
Validated: 1
EndChar

StartChar: r
Encoding: 114 114 83
Width: 372
Flags: W
HStem: -7 21G<84.5 105.5> 419 42<193.4 357.993>
VStem: 74 42<-6.99268 336.135 389 467.932>
AnchorPoint: "bottom" 186 0 basechar 0
AnchorPoint: "top" 236 510 basechar 0
LayerCount: 2
Fore
SplineSet
282 419 m 2,0,1
 202 419 202 419 159 370.5 c 128,-1,2
 116 322 116 322 116 232 c 2,3,-1
 116 23 l 2,4,5
 116 -7 116 -7 95 -7 c 128,-1,6
 74 -7 74 -7 74 23 c 2,7,-1
 74 437 l 2,8,9
 74 468 74 468 93 468 c 0,10,11
 116 468 116 468 116 437 c 2,12,-1
 116 389 l 1,13,14
 172 461 172 461 282 461 c 2,15,-1
 328 461 l 2,16,17
 358 461 358 461 358 440 c 128,-1,18
 358 419 358 419 328 419 c 2,19,-1
 282 419 l 2,0,1
EndSplineSet
Validated: 1
EndChar

StartChar: s
Encoding: 115 115 84
Width: 566
Flags: W
HStem: 0 42<115.411 447.863> 215 42<121.709 442.458> 419 42<117.016 448.589>
VStem: 60 42<57.473 136.991 279.244 404.508> 464 42<57.8203 191.439 324.141 403.012>
AnchorPoint: "bottom" 282 0 basechar 0
AnchorPoint: "top" 282 510 basechar 0
LayerCount: 2
Fore
SplineSet
155 0 m 2,0,1
 92 0 92 0 76 32 c 128,-1,2
 60 64 60 64 60 100.5 c 128,-1,3
 60 137 60 137 81 137 c 128,-1,4
 102 137 102 137 102 104.5 c 128,-1,5
 102 72 102 72 115 57 c 128,-1,6
 128 42 128 42 162 42 c 2,7,-1
 400 42 l 2,8,9
 464 42 464 42 464 123 c 0,10,11
 464 165 464 165 446 190 c 128,-1,12
 428 215 428 215 400 215 c 2,13,-1
 184 215 l 2,14,15
 60 215 60 215 60 343 c 0,16,17
 60 401 60 401 88.5 431 c 128,-1,18
 117 461 117 461 184 461 c 2,19,-1
 409 461 l 1,20,21
 411 461 411 461 413 461 c 0,22,23
 473 461 473 461 488 429 c 0,24,25
 504 396 504 396 504 360 c 128,-1,26
 504 324 504 324 483 324 c 128,-1,27
 462 324 462 324 462 356 c 128,-1,28
 462 388 462 388 449 403.5 c 128,-1,29
 436 419 436 419 402 419 c 2,30,-1
 166 419 l 2,31,32
 102 419 102 419 102 343 c 0,33,34
 102 302 102 302 120 279.5 c 128,-1,35
 138 257 138 257 166 257 c 2,36,-1
 383 257 l 2,37,38
 506 257 506 257 506 123 c 0,39,40
 506 0 506 0 383 0 c 2,41,-1
 155 0 l 2,0,1
EndSplineSet
Validated: 1
EndChar

StartChar: t
Encoding: 116 116 85
Width: 330
Flags: W
HStem: 0 42<160.285 314.934> 419 42<46.0076 77 119 292.932>
VStem: 77 42<83 419 461 600.932>
AnchorPoint: "bottom" 204 0 basechar 0
AnchorPoint: "top" 214 510 basechar 0
LayerCount: 2
Fore
SplineSet
119 175 m 2,0,1
 119 130 119 130 128.5 103 c 128,-1,2
 138 76 138 76 161 62.5 c 128,-1,3
 184 49 184 49 210.5 45.5 c 128,-1,4
 237 42 237 42 285 42 c 0,5,6
 315 42 315 42 315 23 c 0,7,8
 315 0 315 0 285 0 c 0,9,10
 184 0 184 0 134 31 c 1,11,12
 77 65 77 65 77 171 c 2,13,14
 77 419 l 1,15,16
 46 419 46 419 46 440 c 128,-1,17
 46 461 46 461 77 461 c 1,18,-1
 77 570 l 2,19,20
 77 601 77 601 96 601 c 0,21,22
 119 601 119 601 119 570 c 2,23,-1
 119 461 l 1,24,-1
 262 461 l 2,25,26
 293 461 293 461 293 438 c 0,27,28
 293 419 293 419 262 419 c 2,29,-1
 119 419 l 1,30,-1
 119 175 l 2,0,1
EndSplineSet
Validated: 1
EndChar

StartChar: u
Encoding: 117 117 86
Width: 588
Flags: W
HStem: 0 42<154.038 393.215> 448 20G<80.5 101.5 482.5 503.5>
VStem: 70 42<83.1934 467.993> 472 42<-6.93188 72 124.102 467.993>
AnchorPoint: "bottom" 292 0 basechar 0
AnchorPoint: "top" 292 510 basechar 0
LayerCount: 2
Fore
SplineSet
307 42 m 2,0,1
 386 42 386 42 429 90 c 128,-1,2
 472 138 472 138 472 228 c 2,3,-1
 472 438 l 2,4,5
 472 468 472 468 493 468 c 128,-1,6
 514 468 514 468 514 438 c 2,7,-1
 514 24 l 2,8,9
 514 -7 514 -7 495 -7 c 0,10,11
 472 -7 472 -7 472 24 c 2,12,-1
 472 72 l 1,13,14
 418 0 418 0 307 0 c 2,15,-1
 278 0 l 2,16,17
 172 0 172 0 121 35 c 128,-1,18
 70 70 70 70 70 175 c 2,19,-1
 70 438 l 2,20,21
 70 468 70 468 91 468 c 128,-1,22
 112 468 112 468 112 438 c 2,23,-1
 112 175 l 2,24,25
 112 130 112 130 121.5 103 c 128,-1,26
 131 76 131 76 154 62.5 c 128,-1,27
 177 49 177 49 203.5 45.5 c 128,-1,28
 230 42 230 42 278 42 c 2,29,-1
 307 42 l 2,0,1
EndSplineSet
Validated: 1
EndChar

StartChar: v
Encoding: 118 118 87
Width: 499
Flags: W
HStem: 0 21G<203.754 284.793> 448 20G<39 56 446 462.5>
VStem: 28 42<449 467.981> 430 42<450 467.89>
AnchorPoint: "bottom" 246 0 basechar 0
AnchorPoint: "top" 246 510 basechar 0
LayerCount: 2
Fore
SplineSet
28 449 m 0,0,1
 28 468 28 468 50 468 c 0,2,3
 62 468 62 468 70 449 c 2,4,-1
 243 46 l 1,5,-1
 250 46 l 1,6,-1
 430 450 l 2,7,8
 439 468 439 468 453 468 c 0,9,10
 472 468 472 468 472 450 c 0,11,12
 472 442 472 442 469 439 c 1,13,-1
 276 0 l 1,14,-1
 212 0 l 1,15,-1
 31 439 l 1,16,17
 28 441 28 441 28 449 c 0,0,1
EndSplineSet
Validated: 1
EndChar

StartChar: w
Encoding: 119 119 88
Width: 771
Flags: W
HStem: 0 46<214 220 546 552> 448 20G<54.5 63 376 394 708.5 718>
VStem: 31 44<449 467.291> 697 45<450 467.367>
AnchorPoint: "bottom" 387 0 basechar 0
AnchorPoint: "top" 387 510 basechar 0
LayerCount: 2
Fore
SplineSet
408 450 m 2,0,-1
 546 46 l 1,1,-1
 552 46 l 1,2,-1
 697 450 l 2,3,4
 703 468 703 468 714 468 c 0,5,6
 722 468 722 468 732 463 c 128,-1,7
 742 458 742 458 742 451 c 0,8,9
 742 443 742 443 738 439 c 1,10,-1
 583 0 l 1,11,-1
 512 0 l 1,12,-1
 386 384 l 1,13,-1
 250 0 l 1,14,-1
 179 0 l 1,15,-1
 34 439 l 1,16,17
 31 440 31 440 31 448 c 128,-1,18
 31 456 31 456 41 462 c 128,-1,19
 51 468 51 468 58 468 c 0,20,21
 68 468 68 468 75 449 c 2,22,-1
 214 46 l 1,23,-1
 220 46 l 1,24,-1
 364 450 l 1,25,26
 367 467 367 467 385 467 c 128,-1,27
 403 467 403 467 408 450 c 2,0,-1
EndSplineSet
Validated: 1
EndChar

StartChar: x
Encoding: 120 120 89
Width: 488
Flags: W
HStem: 452 20G<56 64 424 432>
AnchorPoint: "bottom" 245 0 basechar 0
AnchorPoint: "top" 245 510 basechar 0
LayerCount: 2
Fore
SplineSet
450 8 m 128,-1,1
 450 0 450 0 443 -6 c 0,2,3
 437 -12 437 -12 429 -12 c 0,4,5
 428 -12 l 0,6,7
 420 -12 420 -12 410 1 c 2,8,-1
 245 198 l 1,9,-1
 79 1 l 2,10,11
 69 -11 69 -11 60 -11 c 128,-1,12
 51 -11 51 -11 44.5 -5.5 c 128,-1,13
 38 -0 38 -0 38 8 c 128,-1,14
 38 16 38 16 47 29 c 1,15,-1
 217 230 l 1,16,-1
 47 433 l 2,17,18
 38 444 38 444 38 452 c 128,-1,19
 38 460 38 460 44 466 c 0,20,21
 52 472 52 472 60 472 c 128,-1,22
 68 472 68 472 79 460 c 2,23,-1
 245 263 l 1,24,-1
 410 460 l 2,25,26
 420 472 420 472 428 472 c 128,-1,27
 436 472 436 472 443 466 c 128,-1,28
 450 460 450 460 450 452 c 128,-1,29
 450 444 450 444 441 433 c 2,30,-1
 271 230 l 1,31,-1
 441 29 l 1,32,0
 450 16 450 16 450 8 c 128,-1,1
EndSplineSet
Validated: 1
EndChar

StartChar: y
Encoding: 121 121 90
Width: 589
Flags: W
HStem: -205 42<125.411 461.682> 0 42<154.038 393.215> 448 20G<80.5 101.5 482.5 503.5>
VStem: 70 42<-147.012 -68.0088 83.1934 467.992> 472 42<-151.136 72 124.102 467.992>
AnchorPoint: "bottom" 291 0 basechar 0
AnchorPoint: "top" 291 510 basechar 0
LayerCount: 2
Fore
SplineSet
514 -92 m 2,0,1
 514 -156 514 -156 496 -180.5 c 128,-1,2
 478 -205 478 -205 428 -205 c 2,3,-1
 165 -205 l 1,4,5
 163 -205 163 -205 161 -205 c 0,6,7
 101 -205 101 -205 86 -173 c 0,8,9
 70 -140 70 -140 70 -104 c 128,-1,10
 70 -68 70 -68 91 -68 c 128,-1,11
 112 -68 112 -68 112 -100 c 128,-1,12
 112 -132 112 -132 125 -147.5 c 128,-1,13
 138 -163 138 -163 172 -163 c 2,14,-1
 421 -163 l 2,15,16
 452 -163 452 -163 462 -151.5 c 128,-1,17
 472 -140 472 -140 472 -108 c 2,18,-1
 472 72 l 1,19,20
 418 0 418 0 307 0 c 2,21,-1
 278 0 l 2,22,23
 172 0 172 0 121 35 c 128,-1,24
 70 70 70 70 70 175 c 2,25,-1
 70 436 l 2,26,27
 70 468 70 468 91 468 c 128,-1,28
 112 468 112 468 112 436 c 2,29,-1
 112 175 l 2,30,31
 112 130 112 130 121.5 103 c 128,-1,32
 131 76 131 76 154 62.5 c 128,-1,33
 177 49 177 49 203.5 45.5 c 128,-1,34
 230 42 230 42 278 42 c 2,35,-1
 307 42 l 2,36,37
 386 42 386 42 429 90 c 128,-1,38
 472 138 472 138 472 228 c 2,39,-1
 472 436 l 2,40,41
 472 468 472 468 493 468 c 128,-1,42
 514 468 514 468 514 436 c 2,43,-1
 514 -92 l 2,0,1
EndSplineSet
Validated: 1
EndChar

StartChar: z
Encoding: 122 122 91
Width: 530
Flags: W
HStem: 0 42<108 418.559> 419 42<110.835 412>
VStem: 58 42<306.009 397.856> 438 42<54.8911 155.969>
AnchorPoint: "bottom" 258 0 basechar 0
AnchorPoint: "top" 258 510 basechar 0
LayerCount: 2
Fore
SplineSet
108 42 m 1,0,-1
 377 42 l 2,1,2
 405 42 405 42 419 54.5 c 128,-1,3
 433 67 433 67 435.5 81.5 c 128,-1,4
 438 96 438 96 438 126 c 128,-1,5
 438 156 438 156 458 156 c 0,6,-1
 459 156 l 0,7,8
 480 156 480 156 480 124 c 0,9,10
 480 54 480 54 459.5 27 c 128,-1,11
 439 0 439 0 385 0 c 2,12,-1
 58 0 l 1,13,-1
 58 59 l 1,14,-1
 412 419 l 1,15,-1
 160 419 l 2,16,17
 121 419 121 419 110.5 398.5 c 128,-1,18
 100 378 100 378 100 342 c 128,-1,19
 100 306 100 306 79 306 c 128,-1,20
 58 306 58 306 58 337 c 0,21,22
 58 407 58 407 78 434 c 128,-1,23
 98 461 98 461 153 461 c 2,24,-1
 459 461 l 1,25,-1
 459 399 l 1,26,-1
 108 42 l 1,0,-1
EndSplineSet
Validated: 1
EndChar

StartChar: braceleft
Encoding: 123 123 92
Width: 250
Flags: W
HStem: -42 42<137.374 202> 636 42<137.374 202>
VStem: 82 42<11.8336 188.712 446.937 623.259> 110 42<148.081 276.124 359.58 487.76>
LayerCount: 2
Fore
SplineSet
76 317 m 1,0,1
 103 305 103 305 127.5 280 c 128,-1,2
 152 255 152 255 152 232.5 c 128,-1,3
 152 210 152 210 138 165 c 128,-1,4
 124 120 124 120 124 108 c 0,5,6
 124 39 124 39 137 19.5 c 128,-1,7
 150 0 150 0 202 0 c 1,8,-1
 202 -42 l 1,9,10
 136 -42 136 -42 109 -11.5 c 128,-1,11
 82 19 82 19 82 108 c 0,12,13
 82 126 82 126 96 171.5 c 128,-1,14
 110 217 110 217 110 236 c 128,-1,15
 110 255 110 255 91 275.5 c 128,-1,16
 72 296 72 296 53 306 c 2,17,-1
 34 317 l 1,18,19
 60 329 60 329 85 355 c 128,-1,20
 110 381 110 381 110 400 c 128,-1,21
 110 419 110 419 96 464.5 c 128,-1,22
 82 510 82 510 82 528 c 0,23,24
 82 617 82 617 109 647.5 c 128,-1,25
 136 678 136 678 202 678 c 1,26,-1
 202 636 l 1,27,28
 150 636 150 636 137 616 c 128,-1,29
 124 596 124 596 124 528 c 0,30,31
 124 516 124 516 138 470.5 c 128,-1,32
 152 425 152 425 152 403 c 128,-1,33
 152 381 152 381 133 360 c 128,-1,34
 114 339 114 339 95 328 c 2,35,-1
 76 317 l 1,0,1
EndSplineSet
Validated: 1
EndChar

StartChar: bar
Encoding: 124 124 93
Width: 204
Flags: W
HStem: -7 21G<91.5 112.5> 623 20G<91.5 112.5>
VStem: 81 42<-6.99341 642.993>
LayerCount: 2
Fore
SplineSet
123 20 m 2,0,1
 123 -7 123 -7 102 -7 c 128,-1,2
 81 -7 81 -7 81 20 c 2,3,-1
 81 615 l 2,4,5
 81 643 81 643 102 643 c 128,-1,6
 123 643 123 643 123 615 c 2,7,-1
 123 20 l 2,0,1
EndSplineSet
Validated: 1
EndChar

StartChar: braceright
Encoding: 125 125 94
Width: 251
Flags: W
HStem: -42 42<48 112.626> 636 42<48 112.626>
VStem: 98 42<148.081 276.162 359.851 487.76> 126 42<11.8336 188.712 446.937 623.259>
LayerCount: 2
Fore
SplineSet
174 318 m 1,0,1
 148 329 148 329 123 355 c 128,-1,2
 98 381 98 381 98 403 c 128,-1,3
 98 425 98 425 112 470.5 c 128,-1,4
 126 516 126 516 126 528 c 0,5,6
 126 596 126 596 113 616 c 128,-1,7
 100 636 100 636 48 636 c 1,8,-1
 48 678 l 1,9,10
 114 678 114 678 141 647.5 c 128,-1,11
 168 617 168 617 168 528 c 0,12,13
 168 510 168 510 154 464.5 c 128,-1,14
 140 419 140 419 140 400 c 128,-1,15
 140 381 140 381 159 360.5 c 128,-1,16
 178 340 178 340 197 329 c 2,17,-1
 216 318 l 1,18,19
 190 307 190 307 165 281 c 128,-1,20
 140 255 140 255 140 236 c 128,-1,21
 140 217 140 217 154 171.5 c 128,-1,22
 168 126 168 126 168 108 c 0,23,24
 168 19 168 19 141 -11.5 c 128,-1,25
 114 -42 114 -42 48 -42 c 1,26,-1
 48 0 l 1,27,28
 100 0 100 0 113 19.5 c 128,-1,29
 126 39 126 39 126 108 c 0,30,31
 126 120 126 120 112 165 c 128,-1,32
 98 210 98 210 98 232.5 c 128,-1,33
 98 255 98 255 117 275.5 c 128,-1,34
 136 296 136 296 155 307 c 2,35,-1
 174 318 l 1,0,1
EndSplineSet
Validated: 1
EndChar

StartChar: asciitilde
Encoding: 126 126 95
Width: 418
Flags: W
HStem: 183 46<205.172 293.359> 223 46<123.773 212.828>
VStem: 73 272
LayerCount: 2
Fore
SplineSet
256 231 m 2,0,1
 260 229 260 229 264 229 c 128,-1,2
 268 229 268 229 274 234 c 2,3,-1
 305 262 l 1,4,5
 316 270 316 270 324 270 c 128,-1,6
 332 270 332 270 338.5 265 c 128,-1,7
 345 260 345 260 345 250 c 128,-1,8
 345 240 345 240 333 229 c 2,9,-1
 286 190 l 2,10,11
 278 183 278 183 272 183 c 128,-1,12
 266 183 266 183 260 185 c 2,13,-1
 162 221 l 2,14,15
 158 223 158 223 154 223 c 128,-1,16
 150 223 150 223 143 218 c 2,17,-1
 112 190 l 2,18,19
 102 182 102 182 94 182 c 128,-1,20
 86 182 86 182 80 188 c 0,21,22
 73 195 73 195 73 205 c 128,-1,23
 73 215 73 215 85 223 c 2,24,-1
 132 262 l 1,25,26
 138 269 138 269 144 269 c 128,-1,27
 150 269 150 269 158 267 c 2,28,-1
 256 231 l 2,0,1
EndSplineSet
Validated: 1
EndChar

StartChar: exclamdown
Encoding: 161 161 96
Width: 218
Flags: W
HStem: 414 72<65.988 150.879>
VStem: 62 93<420.714 479.286> 88 42<-164.993 309.993>
LayerCount: 2
Fore
SplineSet
130 -138 m 2,0,1
 130 -165 130 -165 109 -165 c 128,-1,2
 88 -165 88 -165 88 -138 c 2,3,-1
 88 282 l 2,4,5
 88 310 88 310 109 310 c 128,-1,6
 130 310 130 310 130 282 c 2,7,-1
 130 -138 l 2,0,1
62 450 m 128,-1,9
 62 464 62 464 77 475 c 128,-1,10
 92 486 92 486 108 486 c 128,-1,11
 124 486 124 486 139.5 475 c 128,-1,12
 155 464 155 464 155 450 c 128,-1,13
 155 436 155 436 139.5 425 c 128,-1,14
 124 414 124 414 108 414 c 128,-1,15
 92 414 92 414 77 425 c 128,-1,8
 62 436 62 436 62 450 c 128,-1,9
EndSplineSet
Validated: 1
EndChar

StartChar: cent
Encoding: 162 162 97
Width: 471
Flags: W
HStem: -7 21G<229.5 250.5> 123 42<133.222 219 261 356.073> 473 42<135.745 219 261 358.073> 623 20G<229.5 250.5>
VStem: 50 42<204.8 431.644> 219 42<-6.99341 123 166 472 515 642.993> 370 42<180.473 259.992 378.127 457.527>
LayerCount: 2
Fore
SplineSet
261 20 m 2,0,1
 261 -7 261 -7 240 -7 c 128,-1,2
 219 -7 219 -7 219 20 c 2,3,-1
 219 124 l 1,4,5
 134 128 134 128 92 165 c 128,-1,6
 50 202 50 202 50 298 c 2,7,-1
 50 340 l 2,8,9
 50 435 50 435 92.5 472.5 c 128,-1,10
 135 510 135 510 219 514 c 1,11,-1
 219 615 l 2,12,13
 219 643 219 643 240 643 c 128,-1,14
 261 643 261 643 261 615 c 2,15,-1
 261 515 l 1,16,-1
 318 515 l 2,17,18
 376 515 376 515 395 486 c 128,-1,19
 414 457 414 457 414 409 c 0,20,21
 414 378 414 378 393 378 c 128,-1,22
 372 378 372 378 372 410.5 c 128,-1,23
 372 443 372 443 358.5 458 c 128,-1,24
 345 473 345 473 311 473 c 2,25,-1
 261 473 l 1,26,-1
 261 165 l 1,27,-1
 309 165 l 2,28,29
 343 165 343 165 356.5 180 c 128,-1,30
 370 195 370 195 370 227.5 c 128,-1,31
 370 260 370 260 391 260 c 128,-1,32
 412 260 412 260 412 234 c 0,33,34
 412 187 412 187 395 155 c 128,-1,35
 378 123 378 123 316 123 c 2,36,-1
 261 123 l 1,37,-1
 261 20 l 2,0,1
219 166 m 1,38,-1
 219 472 l 1,39,40
 151 470 151 470 121.5 442.5 c 128,-1,41
 92 415 92 415 92 340 c 2,42,-1
 92 298 l 2,43,44
 92 221 92 221 120.5 194.5 c 128,-1,45
 149 168 149 168 219 166 c 1,38,-1
EndSplineSet
Validated: 1
EndChar

StartChar: sterling
Encoding: 163 163 98
Width: 491
Flags: W
HStem: 0 42<109 432.993> 322 42<137 202.993> 601 42<192.612 365.499>
VStem: 389 42<473.008 577.447>
LayerCount: 2
Fore
SplineSet
82 0 m 2,0,1
 65 0 65 0 65 23 c 0,2,3
 65 28 65 28 66 31 c 2,4,-1
 104 468 l 2,5,6
 114 579 114 579 168 613 c 0,7,8
 215 643 215 643 283.5 643 c 128,-1,9
 352 643 352 643 391.5 613.5 c 128,-1,10
 431 584 431 584 431 501 c 0,11,12
 431 473 431 473 410 473 c 128,-1,13
 389 473 389 473 389 504 c 0,14,15
 389 570 389 570 356 587 c 0,16,17
 329 601 329 601 274 601 c 128,-1,18
 219 601 219 601 186 576 c 128,-1,19
 153 551 153 551 146 468 c 2,20,-1
 137 364 l 1,21,-1
 176 364 l 2,22,23
 203 364 203 364 203 343 c 128,-1,24
 203 322 203 322 176 322 c 2,25,-1
 133 322 l 1,26,-1
 109 42 l 1,27,-1
 405 42 l 2,28,29
 433 42 433 42 433 21 c 128,-1,30
 433 0 433 0 405 0 c 2,31,-1
 82 0 l 2,0,1
EndSplineSet
Validated: 1
EndChar

StartChar: currency
Encoding: 164 164 99
Width: 493
Flags: W
HStem: 87 34<187.932 305.068> 340 34<187.932 305.068>
VStem: 103 34<171.932 288.853> 356 34<171.962 289.108>
LayerCount: 2
Fore
SplineSet
169 308 m 128,-1,1
 137 276 137 276 137 230.5 c 128,-1,2
 137 185 137 185 169 153 c 128,-1,3
 201 121 201 121 246.5 121 c 128,-1,4
 292 121 292 121 324 153 c 128,-1,5
 356 185 356 185 356 230.5 c 128,-1,6
 356 276 356 276 324 308 c 128,-1,7
 292 340 292 340 246.5 340 c 128,-1,0
 201 340 201 340 169 308 c 128,-1,1
131 145 m 1,8,9
 103 182 103 182 103 230.5 c 128,-1,10
 103 279 103 279 131 315 c 1,11,-1
 83 364 l 2,12,13
 72 375 72 375 72 383 c 128,-1,14
 72 391 72 391 78.5 397.5 c 128,-1,15
 85 404 85 404 93 404 c 128,-1,16
 101 404 101 404 112 393 c 2,17,-1
 161 345 l 1,18,19
 198 374 198 374 246.5 374 c 128,-1,20
 295 374 295 374 332 345 c 1,21,-1
 380 393 l 2,22,23
 391 404 391 404 399 404 c 128,-1,24
 407 404 407 404 414 398.5 c 128,-1,25
 421 393 421 393 421 384 c 128,-1,26
 421 375 421 375 409 364 c 2,27,-1
 361 315 l 1,28,29
 390 280 390 280 390 231 c 128,-1,30
 390 182 390 182 361 145 c 1,31,-1
 409 97 l 1,32,33
 421 87 421 87 421 78.5 c 128,-1,34
 421 70 421 70 414 63 c 128,-1,35
 407 56 407 56 398.5 56 c 128,-1,36
 390 56 390 56 380 68 c 1,37,-1
 332 116 l 1,38,39
 295 87 295 87 246.5 87 c 128,-1,40
 198 87 198 87 161 116 c 1,41,-1
 112 68 l 1,42,43
 102 56 102 56 93.5 56 c 128,-1,44
 85 56 85 56 78.5 61.5 c 128,-1,45
 72 67 72 67 72 76.5 c 128,-1,46
 72 86 72 86 83 97 c 2,47,-1
 131 145 l 1,8,9
EndSplineSet
Validated: 1
EndChar

StartChar: yen
Encoding: 165 165 100
Width: 529
Flags: W
HStem: -7 21G<256 276> 140 43<113.059 245 286 412.993> 229 43<113.059 245 286 412.993> 623 20G<473 481.5>
VStem: 245 41<-6.99341 140 183 229 272 310>
LayerCount: 2
Fore
SplineSet
245 310 m 1,0,-1
 39 604 l 2,1,2
 32 614 32 614 32 622 c 128,-1,3
 32 630 32 630 38 636 c 0,4,5
 46 642 46 642 54 642.5 c 128,-1,6
 62 643 62 643 73 627 c 2,7,-1
 265 354 l 1,8,-1
 456 627 l 1,9,10
 469 643 469 643 477 643 c 0,11,12
 486 642 486 642 492 636 c 128,-1,13
 498 630 498 630 498 622 c 128,-1,14
 498 614 498 614 491 604 c 2,15,-1
 286 310 l 1,16,-1
 286 272 l 1,17,-1
 385 272 l 2,18,19
 413 272 413 272 413 250 c 0,20,21
 413 229 413 229 387 229 c 0,22,23
 386 229 386 229 385 229 c 1,24,-1
 286 229 l 1,25,-1
 286 183 l 1,26,-1
 385 183 l 1,27,28
 386 183 386 183 387 183 c 0,29,30
 413 183 413 183 413 162 c 0,31,32
 413 140 413 140 385 140 c 2,33,-1
 286 140 l 1,34,-1
 286 20 l 2,35,36
 286 -7 286 -7 266 -7 c 128,-1,37
 246 -7 246 -7 245 20 c 1,38,-1
 245 140 l 1,39,-1
 140 140 l 2,40,41
 113 140 113 140 113 163 c 0,42,43
 113 183 113 183 140 183 c 2,44,-1
 245 183 l 1,45,-1
 245 229 l 1,46,-1
 140 229 l 2,47,48
 113 229 113 229 113 252 c 0,49,50
 113 272 113 272 140 272 c 2,51,-1
 245 272 l 1,52,-1
 245 310 l 1,0,-1
EndSplineSet
Validated: 1
EndChar

StartChar: brokenbar
Encoding: 166 166 101
Width: 207
Flags: W
HStem: -7 21G<92.5 113> 623 20G<94 114>
VStem: 83 41<-6.93628 262.994 373.062 642.993>
LayerCount: 2
Fore
SplineSet
83 616 m 1,0,1
 84 643 84 643 104 643 c 128,-1,2
 124 643 124 643 124 616 c 2,3,-1
 124 401 l 2,4,5
 124 373 124 373 102 373 c 0,6,7
 83 373 83 373 83 401 c 2,8,-1
 83 616 l 1,0,1
83 237 m 1,9,10
 84 263 84 263 104 263 c 128,-1,11
 124 263 124 263 124 237 c 2,12,-1
 124 22 l 2,13,14
 124 -7 124 -7 102 -7 c 0,15,16
 83 -7 83 -7 83 22 c 2,17,-1
 83 237 l 1,9,10
EndSplineSet
Validated: 1
EndChar

StartChar: section
Encoding: 167 167 102
Width: 510
Flags: W
HStem: 0 42<125.77 382.683> 552 42<127.317 384.23>
VStem: 75 42<50.7684 110.992 262.042 362.967 429.791 541.307> 393 42<51.3594 164.209 231.174 332.597 483.006 543.23>
LayerCount: 2
Fore
SplineSet
75 86 m 128,-1,1
 75 111 75 111 96 111 c 128,-1,2
 117 111 117 111 117 79 c 0,3,4
 117 59 117 59 125.5 50.5 c 128,-1,5
 134 42 134 42 162 42 c 2,6,-1
 346 42 l 2,7,8
 373 42 373 42 383 55.5 c 128,-1,9
 393 69 393 69 393 99 c 0,10,11
 393 168 393 168 350 174 c 2,12,-1
 175 199 l 2,13,14
 75 213 75 213 75 306 c 0,15,16
 75 382 75 382 128 399 c 1,17,18
 75 424 75 424 75 495 c 0,19,20
 75 594 75 594 175 594 c 2,21,-1
 360 594 l 2,22,23
 410 594 410 594 422.5 569 c 128,-1,24
 435 544 435 544 435 508 c 0,25,26
 435 483 435 483 414 483 c 128,-1,27
 393 483 393 483 393 509 c 128,-1,28
 393 535 393 535 384.5 543.5 c 128,-1,29
 376 552 376 552 348 552 c 2,30,-1
 164 552 l 2,31,32
 137 552 137 552 127 538 c 128,-1,33
 117 524 117 524 117 495 c 0,34,35
 117 426 117 426 160 420 c 2,36,-1
 335 395 l 2,37,38
 435 381 435 381 435 289 c 0,39,40
 435 212 435 212 382 195 c 1,41,42
 435 170 435 170 435 99 c 0,43,44
 435 0 435 0 335 0 c 2,45,-1
 151 0 l 2,46,47
 118 0 118 0 100.5 14 c 128,-1,48
 83 28 83 28 79 44.5 c 128,-1,0
 75 61 75 61 75 86 c 128,-1,1
133.5 362 m 128,-1,50
 117 351 117 351 117 307 c 128,-1,51
 117 263 117 263 172 242 c 128,-1,52
 227 221 227 221 293.5 221 c 128,-1,53
 360 221 360 221 376.5 232 c 128,-1,54
 393 243 393 243 393 287.5 c 128,-1,55
 393 332 393 332 338 352.5 c 128,-1,56
 283 373 283 373 216.5 373 c 128,-1,49
 150 373 150 373 133.5 362 c 128,-1,50
EndSplineSet
Validated: 1
EndChar

StartChar: dieresis
Encoding: 168 168 103
Width: 367
Flags: W
HStem: 594 72<69.5879 152.879 215.588 298.879>
VStem: 65 92<600.714 659.286> 211 92<600.714 659.286>
LayerCount: 2
Fore
SplineSet
211 630 m 0,0,1
 212 644 212 644 226 655 c 128,-1,2
 240 666 240 666 256 666 c 128,-1,3
 272 666 272 666 287.5 655 c 128,-1,4
 303 644 303 644 303 630 c 128,-1,5
 303 616 303 616 287.5 605 c 128,-1,6
 272 594 272 594 256 594 c 128,-1,7
 240 594 240 594 225.5 605 c 128,-1,8
 211 616 211 616 211 630 c 0,0,1
65 630 m 0,9,10
 66 644 66 644 80 655 c 128,-1,11
 94 666 94 666 110 666 c 128,-1,12
 126 666 126 666 141.5 655 c 128,-1,13
 157 644 157 644 157 630 c 128,-1,14
 157 616 157 616 141.5 605 c 128,-1,15
 126 594 126 594 110 594 c 128,-1,16
 94 594 94 594 79.5 605 c 128,-1,17
 65 616 65 616 65 630 c 0,9,10
EndSplineSet
Validated: 1
EndChar

StartChar: copyright
Encoding: 169 169 104
Width: 604
Flags: W
HStem: 87 42<164.038 440.041> 219 31<255.049 366.969> 385 31<255.049 366.839> 506 42<164.038 440.041>
VStem: 80 42<170.193 464.807> 207 30<264.677 370.323> 368 29<251.157 283.997 351.003 383.629> 482 42<170.193 464.807>
LayerCount: 2
Fore
SplineSet
347 219 m 2,0,-1
 297 219 l 2,1,2
 260 219 260 219 233.5 239 c 128,-1,3
 207 259 207 259 207 298 c 2,4,-1
 207 337 l 2,5,6
 207 376 207 376 233.5 396 c 128,-1,7
 260 416 260 416 297 416 c 2,8,-1
 347 416 l 2,9,10
 367 416 367 416 382 403 c 128,-1,11
 397 390 397 390 397 362 c 0,12,13
 397 351 397 351 382.5 351 c 128,-1,14
 368 351 368 351 368 361 c 0,15,16
 368 385 368 385 345 385 c 2,17,-1
 297 385 l 2,18,19
 272 385 272 385 254.5 372.5 c 128,-1,20
 237 360 237 360 237 337 c 2,21,-1
 237 298 l 2,22,23
 237 275 237 275 254.5 262.5 c 128,-1,24
 272 250 272 250 297 250 c 2,25,-1
 345 250 l 2,26,27
 368 250 368 250 368 273 c 0,28,29
 368 284 368 284 382.5 284 c 128,-1,30
 397 284 397 284 397 272.5 c 128,-1,31
 397 261 397 261 394 250.5 c 128,-1,32
 391 240 391 240 379 229.5 c 128,-1,33
 367 219 367 219 347 219 c 2,0,-1
317 87 m 2,34,-1
 288 87 l 2,35,36
 182 87 182 87 131 122 c 128,-1,37
 80 157 80 157 80 262 c 2,38,-1
 80 373 l 2,39,40
 80 478 80 478 131 513 c 128,-1,41
 182 548 182 548 288 548 c 2,42,-1
 317 548 l 2,43,44
 422 548 422 548 473 513 c 128,-1,45
 524 478 524 478 524 373 c 2,46,-1
 524 262 l 2,47,48
 524 157 524 157 473 122 c 128,-1,49
 422 87 422 87 317 87 c 2,34,-1
288 129 m 2,50,-1
 317 129 l 2,51,52
 364 129 364 129 390.5 132.5 c 128,-1,53
 417 136 417 136 440 149.5 c 128,-1,54
 463 163 463 163 472.5 190 c 128,-1,55
 482 217 482 217 482 262 c 2,56,-1
 482 373 l 2,57,58
 482 418 482 418 472.5 445 c 128,-1,59
 463 472 463 472 440 485.5 c 128,-1,60
 417 499 417 499 390.5 502.5 c 128,-1,61
 364 506 364 506 317 506 c 2,62,-1
 288 506 l 2,63,64
 240 506 240 506 213.5 502.5 c 128,-1,65
 187 499 187 499 164 485.5 c 128,-1,66
 141 472 141 472 131.5 445 c 128,-1,67
 122 418 122 418 122 373 c 2,68,-1
 122 262 l 2,69,70
 122 217 122 217 131.5 190 c 128,-1,71
 141 163 141 163 164 149.5 c 128,-1,72
 187 136 187 136 213.5 132.5 c 128,-1,73
 240 129 240 129 288 129 c 2,50,-1
EndSplineSet
Validated: 1
EndChar

StartChar: ordfeminine
Encoding: 170 170 105
Width: 376
Flags: W
HStem: 164 35<68.0051 307.949> 249 31<131.219 229.558> 354 31<138.959 252> 430 31<125.305 246.326>
VStem: 93 31<285.793 346.124 392.013 428.627> 252 31<246.012 292 301.441 354 385 423.811>
LayerCount: 2
Fore
SplineSet
89 164 m 2,0,1
 68 164 68 164 68 182 c 128,-1,2
 68 200 68 200 89 199 c 1,3,-1
 285 199 l 2,4,5
 308 199 308 199 308 180 c 0,6,7
 308 164 308 164 285 164 c 2,8,-1
 89 164 l 2,0,1
252 354 m 1,9,-1
 190 354 l 2,10,11
 153 354 153 354 138.5 346 c 128,-1,12
 124 338 124 338 124 318 c 128,-1,13
 124 298 124 298 131 289 c 128,-1,14
 138 280 138 280 148 280 c 2,15,-1
 185 280 l 2,16,17
 217 280 217 280 234.5 299 c 128,-1,18
 252 318 252 318 252 354 c 1,9,-1
148 430 m 2,19,20
 124 430 124 430 124 405 c 0,21,22
 124 392 124 392 108 392 c 128,-1,23
 92 392 92 392 93 404 c 1,24,25
 93 428 93 428 107.5 444.5 c 128,-1,26
 122 461 122 461 145 461 c 2,27,-1
 230 461 l 2,28,29
 283 461 283 461 283 397 c 2,30,-1
 283 258 l 1,31,32
 284 246 284 246 268 246 c 128,-1,33
 252 246 252 246 252 258 c 2,34,-1
 252 292 l 1,35,36
 244 270 244 270 230 259.5 c 128,-1,37
 216 249 216 249 185 249 c 2,38,-1
 148 249 l 2,39,40
 124 249 124 249 108.5 268 c 128,-1,41
 93 287 93 287 93 311 c 0,42,43
 93 353 93 353 116.5 369 c 128,-1,44
 140 385 140 385 190 385 c 2,45,-1
 252 385 l 1,46,-1
 252 404 l 2,47,48
 252 418 252 418 246.5 424 c 128,-1,49
 241 430 241 430 227 430 c 2,50,-1
 148 430 l 2,19,20
EndSplineSet
Validated: 1
EndChar

StartChar: guillemotleft
Encoding: 171 171 106
Width: 484
Flags: W
VStem: 36 232 190 232
LayerCount: 2
Back
SplineSet
256 178 m 2x80
 267 167 269 158 269 150 c 0
 269 141 263 135 254 135 c 0
 249 135 240 135 234 141 c 2
 52 310 l 2
 44 317 36 324 36 333 c 0
 36 340 42 345 52 354 c 2
 234 523 l 2
 240 529 249 528 254 528 c 0
 263 528 269 522 269 514 c 0
 269 507 267 498 256 486 c 2
 98 333 l 1
 256 178 l 2x80
410 178 m 2x40
 421 167 423 158 423 150 c 0
 423 141 417 135 408 135 c 0
 403 135 394 135 388 141 c 2
 206 310 l 2
 198 317 190 324 190 333 c 0
 190 340 196 345 206 354 c 2
 388 523 l 2
 394 529 403 528 408 528 c 0
 417 528 423 522 423 514 c 0
 423 507 421 498 410 486 c 2
 252 333 l 1
 410 178 l 2x40
EndSplineSet
Fore
Refer: 648 8249 N 1 0 0 1 154 0 2
Refer: 648 8249 N 1 0 0 1 0 0 2
Validated: 1
EndChar

StartChar: logicalnot
Encoding: 172 172 107
Width: 515
Flags: W
HStem: 209 43<83.0063 393>
VStem: 393 43<113.062 209>
LayerCount: 2
Fore
SplineSet
436 225 m 2,0,-1
 436 141 l 2,1,2
 436 113 436 113 413 113 c 0,3,4
 393 113 393 113 393 141 c 2,5,-1
 393 209 l 1,6,-1
 109 209 l 1,7,8
 108 209 108 209 107 209 c 0,9,10
 83 209 83 209 83 230 c 0,11,12
 83 252 83 252 109 252 c 2,13,-1
 407 252 l 2,14,15
 436 252 436 252 436 225 c 2,0,-1
EndSplineSet
Validated: 1
EndChar

StartChar: uni00AD
Encoding: 173 173 108
Width: 446
Flags: W
HStem: 209 43<73.0063 372.936>
VStem: 73 300<209.328 251.641>
LayerCount: 2
Fore
SplineSet
99 209 m 1,0,1
 98 209 98 209 97 209 c 0,2,3
 73 209 73 209 73 230 c 0,4,5
 73 252 73 252 99 252 c 2,6,-1
 344 252 l 2,7,8
 373 252 373 252 373 229 c 0,9,10
 373 209 373 209 344 209 c 2,11,-1
 99 209 l 1,0,1
EndSplineSet
Validated: 1
EndChar

StartChar: registered
Encoding: 174 174 109
Width: 604
Flags: W
HStem: 87 42<164.038 440.041> 303 31<234 330.239> 390 31<234 356.979> 506 42<164.038 440.041>
VStem: 80 42<170.193 464.807> 203 31<208.009 303 334 390> 374 31<208.712 252.958 339.351 384.527> 482 42<170.193 464.807>
LayerCount: 2
Fore
SplineSet
301 334 m 2,0,1
 341 334 341 334 357.5 339 c 128,-1,2
 374 344 374 344 374 362 c 128,-1,3
 374 380 374 380 357.5 385 c 128,-1,4
 341 390 341 390 301 390 c 2,5,-1
 234 390 l 1,6,-1
 234 334 l 1,7,-1
 301 334 l 2,0,1
234 217 m 2,8,9
 234 208 234 208 218 208 c 128,-1,10
 202 208 202 208 203 217 c 1,11,-1
 203 411 l 2,12,13
 203 421 203 421 217 421 c 2,14,-1
 301 421 l 2,15,16
 405 421 405 421 405 361 c 0,17,18
 405 340 405 340 390 323.5 c 128,-1,19
 375 307 375 307 350 304 c 1,20,21
 365 295 365 295 379.5 274 c 128,-1,22
 394 253 394 253 401 236.5 c 128,-1,23
 408 220 408 220 408 217 c 0,24,25
 408 208 408 208 398 208 c 128,-1,26
 388 208 388 208 382.5 211 c 128,-1,27
 377 214 377 214 377 217 c 128,-1,28
 377 220 377 220 369.5 235 c 128,-1,29
 362 250 362 250 345.5 271 c 128,-1,30
 329 292 329 292 311 303 c 1,31,-1
 234 303 l 1,32,-1
 234 217 l 2,8,9
317 87 m 2,33,-1
 288 87 l 2,34,35
 182 87 182 87 131 122 c 128,-1,36
 80 157 80 157 80 262 c 2,37,-1
 80 373 l 2,38,39
 80 478 80 478 131 513 c 128,-1,40
 182 548 182 548 288 548 c 2,41,-1
 317 548 l 2,42,43
 422 548 422 548 473 513 c 128,-1,44
 524 478 524 478 524 373 c 2,45,-1
 524 262 l 2,46,47
 524 157 524 157 473 122 c 128,-1,48
 422 87 422 87 317 87 c 2,33,-1
288 129 m 2,49,-1
 317 129 l 2,50,51
 364 129 364 129 390.5 132.5 c 128,-1,52
 417 136 417 136 440 149.5 c 128,-1,53
 463 163 463 163 472.5 190 c 128,-1,54
 482 217 482 217 482 262 c 2,55,-1
 482 373 l 2,56,57
 482 418 482 418 472.5 445 c 128,-1,58
 463 472 463 472 440 485.5 c 128,-1,59
 417 499 417 499 390.5 502.5 c 128,-1,60
 364 506 364 506 317 506 c 2,61,-1
 288 506 l 2,62,63
 240 506 240 506 213.5 502.5 c 128,-1,64
 187 499 187 499 164 485.5 c 128,-1,65
 141 472 141 472 131.5 445 c 128,-1,66
 122 418 122 418 122 373 c 2,67,-1
 122 262 l 2,68,69
 122 217 122 217 131.5 190 c 128,-1,70
 141 163 141 163 164 149.5 c 128,-1,71
 187 136 187 136 213.5 132.5 c 128,-1,72
 240 129 240 129 288 129 c 2,49,-1
EndSplineSet
Validated: 1
EndChar

StartChar: macron
Encoding: 175 175 110
Width: 429
Flags: W
HStem: 678 43<65.0063 364.936>
VStem: 65 300<678.344 720.641>
LayerCount: 2
Fore
SplineSet
91 678 m 2,0,1
 65 678 65 678 65 700 c 0,2,3
 65 721 65 721 89 721 c 0,4,5
 90 721 90 721 91 721 c 1,6,-1
 336 721 l 2,7,8
 365 721 365 721 365 698 c 0,9,10
 365 678 365 678 336 678 c 2,11,-1
 91 678 l 2,0,1
EndSplineSet
Validated: 1
EndChar

StartChar: degree
Encoding: 176 176 111
Width: 394
Flags: W
HStem: 391 41<136.347 258.232> 637 41<136.347 258.232>
VStem: 54 41<473.768 595.653> 300 41<473.768 595.653>
LayerCount: 2
Fore
SplineSet
125 607 m 128,-1,1
 95 577 95 577 95 534.5 c 128,-1,2
 95 492 95 492 125 462 c 128,-1,3
 155 432 155 432 197.5 432 c 128,-1,4
 240 432 240 432 270 462 c 128,-1,5
 300 492 300 492 300 534.5 c 128,-1,6
 300 577 300 577 270 607 c 128,-1,7
 240 637 240 637 197.5 637 c 128,-1,0
 155 637 155 637 125 607 c 128,-1,1
54 535 m 128,-1,9
 54 594 54 594 96 636 c 128,-1,10
 138 678 138 678 197 678 c 128,-1,11
 256 678 256 678 298.5 636 c 128,-1,12
 341 594 341 594 341 535 c 128,-1,13
 341 476 341 476 298.5 433.5 c 128,-1,14
 256 391 256 391 197 391 c 128,-1,15
 138 391 138 391 96 433.5 c 128,-1,8
 54 476 54 476 54 535 c 128,-1,9
EndSplineSet
Validated: 1
EndChar

StartChar: plusminus
Encoding: 177 177 112
Width: 573
Flags: W
HStem: 0 43<70.0571 502.936> 270 43<70.0571 265 307 502.993> 448 20G<275.5 296.5>
VStem: 265 42<116.007 270 313 467.993>
LayerCount: 2
Fore
SplineSet
474 43 m 2,0,1
 503 43 503 43 503 20 c 0,2,3
 503 0 503 0 474 0 c 2,4,-1
 96 0 l 2,5,6
 70 0 70 0 70 23 c 0,7,8
 70 43 70 43 96 43 c 2,9,-1
 474 43 l 2,0,1
307 143 m 2,10,11
 307 116 307 116 286 116 c 128,-1,12
 265 116 265 116 265 143 c 2,13,-1
 265 270 l 1,14,-1
 96 270 l 2,15,16
 70 270 70 270 70 293 c 0,17,18
 70 313 70 313 96 313 c 2,19,-1
 265 313 l 1,20,-1
 265 440 l 2,21,22
 265 468 265 468 286 468 c 128,-1,23
 307 468 307 468 307 440 c 2,24,-1
 307 313 l 1,25,-1
 474 313 l 1,26,27
 475 313 475 313 476 313 c 0,28,29
 503 313 503 313 503 292 c 0,30,31
 503 270 503 270 474 270 c 2,32,-1
 307 270 l 1,33,-1
 307 143 l 2,10,11
EndSplineSet
Validated: 1
EndChar

StartChar: twosuperior
Encoding: 178 178 113
Width: 310
Flags: W
HStem: 461 33<78 265.985> 734 33<80.6405 214.429>
VStem: 41 37<494 536.224 685.012 730.662> 233 33<653.034 724.654>
LayerCount: 2
Fore
SplineSet
266 682 m 0,0,1
 266 654 266 654 236.5 629.5 c 128,-1,2
 207 605 207 605 172 589 c 128,-1,3
 137 573 137 573 107.5 547.5 c 128,-1,4
 78 522 78 522 78 494 c 1,5,-1
 244 494 l 2,6,7
 252 494 252 494 259 489 c 128,-1,8
 266 484 266 484 266 478 c 128,-1,9
 266 472 266 472 259 466.5 c 128,-1,10
 252 461 252 461 244 461 c 2,11,-1
 41 461 l 1,12,-1
 41 483 l 2,13,14
 41 518 41 518 61 545.5 c 128,-1,15
 81 573 81 573 109 590 c 128,-1,16
 137 607 137 607 165 621 c 128,-1,17
 193 635 193 635 213 650 c 128,-1,18
 233 665 233 665 233 682 c 0,19,20
 233 717 233 717 215 725.5 c 128,-1,21
 197 734 197 734 146 734 c 2,22,-1
 120 734 l 2,23,24
 77 734 77 734 77 703 c 0,25,26
 77 696 77 696 71.5 690.5 c 128,-1,27
 66 685 66 685 60 685 c 128,-1,28
 54 685 54 685 47.5 690.5 c 128,-1,29
 41 696 41 696 41 703 c 0,30,31
 41 730 41 730 63.5 748.5 c 128,-1,32
 86 767 86 767 116 767 c 2,33,-1
 146 767 l 2,34,35
 207 767 207 767 236.5 751 c 128,-1,36
 266 735 266 735 266 682 c 0,0,1
EndSplineSet
Validated: 1
EndChar

StartChar: threesuperior
Encoding: 179 179 114
Width: 280
Flags: W
HStem: 461 33<73.7981 199.648> 601 33<101.004 175.357> 734 33<73.7981 200.471>
VStem: 30 36<504.356 539.996 688.004 723.644> 211 32<505.32 572.255 657.996 722.685>
LayerCount: 2
Fore
SplineSet
143 734 m 2,0,-1
 131 734 l 2,1,2
 108 734 108 734 87 725.5 c 128,-1,3
 66 717 66 717 66 701 c 0,4,5
 66 688 66 688 48 688 c 128,-1,6
 30 688 30 688 30 706 c 128,-1,7
 30 724 30 724 56.5 745.5 c 128,-1,8
 83 767 83 767 127 767 c 2,9,-1
 139 767 l 2,10,11
 196 767 196 767 219.5 748 c 128,-1,12
 243 729 243 729 243 684 c 0,13,14
 243 660 243 660 218 641 c 128,-1,15
 193 622 193 622 173 618 c 1,16,17
 194 615 194 615 218.5 592.5 c 128,-1,18
 243 570 243 570 243 534 c 128,-1,19
 243 498 243 498 219.5 479.5 c 128,-1,20
 196 461 196 461 139 461 c 2,21,-1
 127 461 l 2,22,23
 83 461 83 461 56.5 482.5 c 128,-1,24
 30 504 30 504 30 522 c 128,-1,25
 30 540 30 540 48 540 c 128,-1,26
 66 540 66 540 66 527 c 0,27,28
 66 511 66 511 87 502.5 c 128,-1,29
 108 494 108 494 131 494 c 2,30,-1
 143 494 l 2,31,32
 189 494 189 494 200 507 c 128,-1,33
 211 520 211 520 211 542.5 c 128,-1,34
 211 565 211 565 180.5 583 c 128,-1,35
 150 601 150 601 119 601 c 0,36,37
 101 601 101 601 101 617.5 c 128,-1,38
 101 634 101 634 119 634 c 0,39,40
 151 634 151 634 181 649 c 128,-1,41
 211 664 211 664 211 687 c 0,42,43
 210 722 210 722 180 730 c 0,44,45
 166 734 166 734 143 734 c 2,0,-1
EndSplineSet
Validated: 1
EndChar

StartChar: acute
Encoding: 180 180 115
Width: 212
Flags: W
HStem: 510 168
VStem: 34 145
LayerCount: 2
Fore
SplineSet
172.5 672 m 128,-1,1
 179 666 179 666 179 656.5 c 128,-1,2
 179 647 179 647 171 638 c 2,3,-1
 75 523 l 2,4,5
 63 510 63 510 55 510 c 128,-1,6
 47 510 47 510 40.5 516 c 128,-1,7
 34 522 34 522 34 531.5 c 128,-1,8
 34 541 34 541 42 550 c 2,9,-1
 138 665 l 2,10,11
 150 678 150 678 158 678 c 128,-1,0
 166 678 166 678 172.5 672 c 128,-1,1
EndSplineSet
Validated: 1
EndChar

StartChar: paragraph
Encoding: 182 182 117
Width: 447
Flags: W
HStem: -7 21G<253.5 274.5 326.5 347.5> 594 42<285 316>
VStem: 36 249<400.612 576.328> 243 42<-6.99341 337> 316 42<-6.99341 594>
LayerCount: 2
Fore
SplineSet
358 20 m 2,0,1
 358 -7 358 -7 337 -7 c 128,-1,2
 316 -7 316 -7 316 20 c 2,3,-1
 316 594 l 1,4,-1
 285 594 l 1,5,-1
 285 20 l 2,6,7
 285 -7 285 -7 264 -7 c 128,-1,8
 243 -7 243 -7 243 20 c 2,9,-1
 243 337 l 1,10,-1
 201 337 l 2,11,12
 36 337 36 337 36 492 c 0,13,14
 36 572 36 572 88 604 c 128,-1,15
 140 636 140 636 243 636 c 2,16,-1
 358 636 l 1,17,-1
 358 20 l 2,0,1
EndSplineSet
Validated: 1
EndChar

StartChar: periodcentered
Encoding: 183 183 118
Width: 232
Flags: W
HStem: 351 72<73.988 158.012>
VStem: 70 92<357.448 416.552>
LayerCount: 2
Fore
SplineSet
70 387 m 128,-1,1
 70 401 70 401 85 412 c 128,-1,2
 100 423 100 423 116 423 c 128,-1,3
 132 423 132 423 147 412 c 128,-1,4
 162 401 162 401 162 387 c 128,-1,5
 162 373 162 373 147 362 c 128,-1,6
 132 351 132 351 116 351 c 128,-1,7
 100 351 100 351 85 362 c 128,-1,0
 70 373 70 373 70 387 c 128,-1,1
EndSplineSet
Validated: 1
EndChar

StartChar: cedilla
Encoding: 184 184 119
Width: 242
Flags: W
HStem: -165 40<52.3952 162.797>
VStem: 96 42<-26.3796 15> 165 42<-121.444 -61.6102>
LayerCount: 2
Fore
SplineSet
42 -120 m 0,0,1
 42 -107 42 -107 52 -107 c 0,2,3
 55 -107 55 -107 78 -116 c 128,-1,4
 101 -125 101 -125 118 -125 c 0,5,6
 165 -125 165 -125 165 -94 c 1,7,8
 164 -73 164 -73 130 -51 c 0,9,10
 118 -43 118 -43 107 -25.5 c 128,-1,11
 96 -8 96 -8 96 15 c 1,12,-1
 138 15 l 1,13,14
 138 -17 138 -17 172.5 -36 c 128,-1,15
 207 -55 207 -55 207 -88.5 c 128,-1,16
 207 -122 207 -122 181 -143.5 c 128,-1,17
 155 -165 155 -165 124 -165 c 128,-1,18
 93 -165 93 -165 67.5 -154.5 c 128,-1,19
 42 -144 42 -144 42 -120 c 0,0,1
EndSplineSet
Validated: 1
EndChar

StartChar: onesuperior
Encoding: 185 185 120
Width: 138
Flags: W
HStem: 458 312<52.1006 86>
VStem: 52 34<458.005 715>
LayerCount: 2
Fore
SplineSet
52 715 m 1,0,-1
 25 688 l 2,1,2
 16 678 16 678 5 678 c 0,3,4
 -10 678 -10 678 -10 692 c 0,5,6
 -10 701 -10 701 0 710 c 2,7,-1
 49 760 l 2,8,9
 59 770 59 770 68 770 c 0,10,11
 86 770 86 770 86 751 c 2,12,-1
 86 480 l 2,13,14
 86 458 86 458 69 458 c 128,-1,15
 52 458 52 458 52 480 c 2,16,-1
 52 715 l 1,0,-1
EndSplineSet
Validated: 1
EndChar

StartChar: ordmasculine
Encoding: 186 186 121
Width: 376
Flags: W
HStem: 164 35<68.0051 307.949> 249 31<135.865 239.619> 430 31<135.865 239.619>
VStem: 93 31<289.288 420.712> 252 31<289.288 420.712>
LayerCount: 2
Fore
SplineSet
183 280 m 2,0,-1
 192 280 l 2,1,2
 228 280 228 280 240 289 c 128,-1,3
 252 298 252 298 252 333 c 2,4,-1
 252 377 l 2,5,6
 252 412 252 412 240 421 c 128,-1,7
 228 430 228 430 192 430 c 2,8,-1
 183 430 l 2,9,10
 147 430 147 430 135.5 421 c 128,-1,11
 124 412 124 412 124 377 c 2,12,-1
 124 333 l 2,13,14
 124 298 124 298 135.5 289 c 128,-1,15
 147 280 147 280 183 280 c 2,0,-1
192 249 m 2,16,-1
 183 249 l 2,17,18
 132 249 132 249 112.5 266 c 128,-1,19
 93 283 93 283 93 333 c 2,20,-1
 93 377 l 2,21,22
 93 426 93 426 112.5 443.5 c 128,-1,23
 132 461 132 461 183 461 c 2,24,-1
 192 461 l 2,25,26
 244 461 244 461 263.5 443.5 c 128,-1,27
 283 426 283 426 283 377 c 2,28,-1
 283 333 l 2,29,30
 283 283 283 283 263.5 266 c 128,-1,31
 244 249 244 249 192 249 c 2,16,-1
89 164 m 2,32,33
 68 164 68 164 68 182 c 0,34,35
 68 199 68 199 87 199 c 0,36,37
 88 199 88 199 89 199 c 1,38,-1
 285 199 l 2,39,40
 308 199 308 199 308 180 c 0,41,42
 308 164 308 164 285 164 c 2,43,-1
 89 164 l 2,32,33
EndSplineSet
Validated: 1
EndChar

StartChar: guillemotright
Encoding: 187 187 122
Width: 484
Flags: W
VStem: 61 233 215 233
LayerCount: 2
Back
SplineSet
74 178 m 2x80
 232 333 l 1
 74 486 l 2
 63 498 61 507 61 514 c 0
 61 522 67 528 76 528 c 0
 81 528 89 529 95 523 c 2
 278 354 l 2
 288 345 294 340 294 333 c 0
 294 324 286 317 278 310 c 2
 95 141 l 2
 89 135 81 135 76 135 c 0
 67 135 61 141 61 150 c 0
 61 158 63 167 74 178 c 2x80
228 178 m 2x40
 386 333 l 1
 228 486 l 2
 217 498 215 507 215 514 c 0
 215 522 221 528 230 528 c 0
 235 528 243 529 249 523 c 2
 432 354 l 2
 442 345 448 340 448 333 c 0
 448 324 440 317 432 310 c 2
 249 141 l 2
 243 135 235 135 230 135 c 0
 221 135 215 141 215 150 c 0
 215 158 217 167 228 178 c 2x40
EndSplineSet
Fore
Refer: 649 8250 N 1 0 0 1 154 0 2
Refer: 649 8250 N 1 0 0 1 0 0 2
Validated: 1
EndChar

StartChar: onequarter
Encoding: 188 188 123
Width: 579
Flags: W
HStem: 100 33<331 434 468 537.979> 324 312<159.101 193>
VStem: 159 34<324.005 581> 434 34<-3.99463 100 133 271>
LayerCount: 2
Back
SplineSet
517 100 m 2
 468 100 l 1
 468 18 l 2
 468 3.33333 462.333 -4 451 -4 c 128
 439.667 -4 434 3.33333 434 18 c 2
 434 100 l 1
 302 100 l 1
 302 145 l 1
 422 305 l 1
 468 305 l 1
 468 133 l 1
 517 133 l 2
 531 133 538 127.667 538 117 c 0
 538 105.667 531 100 517 100 c 2
434 133 m 1
 434 271 l 1
 331 133 l 1
 434 133 l 1
481 534 m 0
 491 534 496 529 496 519 c 0
 496 513.663 492.333 506.663 485 498 c 1
 76 89 l 2
 68.6667 81.6667 61.6667 78 55 78 c 0
 45 78 40 83 40 93 c 0
 40 99.6667 43.6667 106.667 51 114 c 2
 460 523 l 1
 468.667 530.333 475.667 534 481 534 c 0
159 581 m 1
 132 554 l 2
 126 547.333 119.333 544 112 544 c 0
 102 544 97 548.667 97 558 c 0
 97 564 100.333 570 107 576 c 2
 156 626 l 2
 162.667 632.667 169 636 175 636 c 0
 187 636 193 629.667 193 617 c 2
 193 346 l 2
 193 331.333 187.333 324 176 324 c 128
 164.667 324 159 331.333 159 346 c 2
 159 581 l 1
EndSplineSet
Fore
Refer: 651 8308 S 1 0 0 1 277 -462 2
Refer: 120 185 N 1 0 0 1 107 -134 2
Refer: 650 8260 N 1 0 0 1 156 0 2
Validated: 1
EndChar

StartChar: onehalf
Encoding: 189 189 124
Width: 602
Flags: W
HStem: -1 33<361 548.985> 272 33<363.641 497.429> 324 312<159.101 193>
VStem: 159 34<324.005 581> 324 37<32 74.2241 223.012 268.662> 516 33<191.034 262.654>
LayerCount: 2
Back
SplineSet
159 581 m 1
 132 554 l 2
 126 547.333 119.333 544 112 544 c 0
 102 544 97 548.667 97 558 c 0
 97 564 100.333 570 107 576 c 2
 156 626 l 2
 162.667 632.667 169 636 175 636 c 0
 187 636 193 629.667 193 617 c 2
 193 346 l 2
 193 331.333 187.333 324 176 324 c 128
 164.667 324 159 331.333 159 346 c 2
 159 581 l 1
549 220 m 0
 549 201.333 539.167 183.833 519.5 167.5 c 128
 499.833 151.167 478.333 137.667 455 127 c 128
 431.667 116.333 410.167 102.5 390.5 85.5 c 128
 370.833 68.5 361 50.6667 361 32 c 1
 527 32 l 2
 532.333 32 537.333 30.1667 542 26.5 c 128
 546.667 22.8333 549 19 549 15 c 0
 549 11.6667 546.667 8.16667 542 4.5 c 128
 537.333 0.833333 532.333 -1 527 -1 c 2
 324 -1 l 1
 324 21 l 2
 324 44.3333 330.667 65.1667 344 83.5 c 128
 357.333 101.833 373.333 116.667 392 128 c 128
 410.667 139.333 429.333 149.667 448 159 c 128
 466.667 168.333 482.667 178 496 188 c 128
 509.333 198 516 208.667 516 220 c 0
 516 243.333 510 257.833 498 263.5 c 128
 486 269.167 463 272 429 272 c 2
 403 272 l 2
 374.333 272 360 261.667 360 241 c 0
 360 236.333 358.167 232.167 354.5 228.5 c 128
 350.831 224.833 346.664 223 342 223 c 0
 338 223 334 224.833 330 228.5 c 128
 326 232.168 324 236.334 324 241 c 0
 324 259 331.5 274.167 346.5 286.5 c 128
 361.5 298.833 379 305 399 305 c 2
 429 305 l 2
 469.667 305 499.833 299.667 519.5 289 c 128
 539.167 278.333 549 255.333 549 220 c 0
481 534 m 0
 491 534 496 529 496 519 c 0
 496 513.663 492.333 506.663 485 498 c 1
 76 89 l 2
 68.6667 81.6667 61.6667 78 55 78 c 0
 45 78 40 83 40 93 c 0
 40 99.6667 43.6667 106.667 51 114 c 2
 460 523 l 1
 468.667 530.333 475.667 534 481 534 c 0
EndSplineSet
Fore
Refer: 113 178 S 1 0 0 1 283 -462 2
Refer: 120 185 N 1 0 0 1 107 -134 2
Refer: 650 8260 N 1 0 0 1 156 0 2
Validated: 1
EndChar

StartChar: threequarters
Encoding: 190 190 125
Width: 622
Flags: W
HStem: 100 33<372 475 509 578.979> 330 33<109.798 235.648> 470 33<137.004 211.357> 603 33<109.798 236.471>
VStem: 66 36<373.356 408.996 557.004 592.644> 247 32<374.32 441.255 526.996 591.685> 475 34<-3.99463 100 133 271>
LayerCount: 2
Back
SplineSet
179 603 m 2
 167 603 l 2
 151.667 603 137 600.167 123 594.5 c 128
 109 588.833 102 580.667 102 570 c 0
 102 561.333 95.6667 557 83 557 c 0
 71.6667 557 66 562 66 572 c 0
 66 586 74.8333 600.167 92.5 614.5 c 128
 110.167 628.833 133.667 636 163 636 c 2
 175 636 l 2
 213 636 239.833 629.667 255.5 617 c 128
 271.167 604.333 279 583 279 553 c 0
 279 537 270.667 522.667 254 510 c 128
 237.333 497.331 222.333 489.665 209 487 c 1
 223 485 238.167 476.5 254.5 461.5 c 128
 270.833 446.5 279 429 279 409 c 0
 279 381 271.167 360.833 255.5 348.5 c 128
 239.833 336.167 213 330 175 330 c 2
 163 330 l 2
 133.667 330 110.167 337.167 92.5 351.5 c 128
 74.8333 365.833 66 380 66 394 c 0
 66 404 71.6667 409 83 409 c 0
 95.6667 409 102 404.667 102 396 c 0
 102 385.332 109 377.165 123 371.5 c 128
 137 365.833 151.667 363 167 363 c 2
 179 363 l 2
 194.333 363 206.833 364.167 216.5 366.5 c 128
 226.167 368.833 233 372.5 237 377.5 c 128
 241 382.5 243.667 387.333 245 392 c 128
 246.333 396.667 247 402.667 247 410 c 0
 247 426 236.833 440 216.5 452 c 128
 196.167 464 175.667 470 155 470 c 0
 143 470 137 475.667 137 487 c 0
 137 497.667 143 503 155 503 c 0
 176.333 503 197 508 217 518 c 128
 237 528 247 540.667 247 556 c 0
 247 563.333 246.333 569.333 245 574 c 128
 243.667 578.667 241 583.5 237 588.5 c 128
 233 593.5 226.167 597.167 216.5 599.5 c 128
 206.833 601.833 194.333 603 179 603 c 2
531 534 m 0
 541 534 546 529 546 519 c 0
 546 513.663 542.333 506.663 535 498 c 1
 126 89 l 2
 118.667 81.6667 111.667 78 105 78 c 0
 95 78 90 83 90 93 c 0
 90 99.6667 93.6667 106.667 101 114 c 2
 510 523 l 1
 518.667 530.333 525.667 534 531 534 c 0
558 100 m 2
 509 100 l 1
 509 18 l 2
 509 3.33333 503.333 -4 492 -4 c 128
 480.667 -4 475 3.33333 475 18 c 2
 475 100 l 1
 343 100 l 1
 343 145 l 1
 463 305 l 1
 509 305 l 1
 509 133 l 1
 558 133 l 2
 572 133 579 127.667 579 117 c 0
 579 105.667 572 100 558 100 c 2
475 133 m 1
 475 271 l 1
 372 133 l 1
 475 133 l 1
EndSplineSet
Fore
Refer: 651 8308 N 1 0 0 1 318 -462 2
Refer: 114 179 N 1 0 0 1 36 -131 2
Refer: 650 8260 N 1 0 0 1 206 0 2
Validated: 1
EndChar

StartChar: questiondown
Encoding: 191 191 126
Width: 520
Flags: W
HStem: -165 42<119.531 402.671> 414 72<235.121 319.879>
VStem: 39 42<-80.1317 68.689> 231 93<420.714 479.286> 256 42<176 312.993> 442 43<-85.2314 35.9932>
LayerCount: 2
Fore
SplineSet
324 450 m 128,-1,1
 324 436 324 436 308.5 425 c 128,-1,2
 293 414 293 414 277.5 414 c 128,-1,3
 262 414 262 414 246.5 425 c 128,-1,4
 231 436 231 436 231 450 c 128,-1,5
 231 464 231 464 246.5 475 c 128,-1,6
 262 486 262 486 277.5 486 c 128,-1,7
 293 486 293 486 308.5 475 c 128,-1,0
 324 464 324 464 324 450 c 128,-1,1
256 176 m 1,8,-1
 256 285 l 2,9,10
 256 313 256 313 277 313 c 128,-1,11
 298 313 298 313 298 285 c 2,12,-1
 298 145 l 1,13,-1
 145 103 l 2,14,15
 118 95 118 95 99.5 65.5 c 128,-1,16
 81 36 81 36 81 -6.5 c 128,-1,17
 81 -49 81 -49 105.5 -86 c 128,-1,18
 130 -123 130 -123 183 -123 c 2,19,-1
 277 -123 l 2,20,21
 325 -123 325 -123 351 -119.5 c 128,-1,22
 377 -116 377 -116 400.5 -103.5 c 128,-1,23
 424 -91 424 -91 433 -64 c 128,-1,24
 442 -37 442 -37 442 8 c 0,25,26
 442 36 442 36 463.5 36 c 128,-1,27
 485 36 485 36 485 8 c 0,28,29
 485 -102 485 -102 427 -136 c 0,30,31
 397 -154 397 -154 363 -159.5 c 128,-1,32
 329 -165 329 -165 277 -165 c 2,33,-1
 201 -165 l 2,34,35
 115 -165 115 -165 77 -118 c 128,-1,36
 39 -71 39 -71 39 -5 c 128,-1,37
 39 61 39 61 67 96 c 128,-1,38
 95 131 95 131 163 150 c 2,39,-1
 256 176 l 1,8,-1
EndSplineSet
Validated: 1
EndChar

StartChar: Agrave
Encoding: 192 192 127
Width: 548
Flags: W
HStem: 204 42<154 394> 698 121
VStem: 23 43<-15.9805 4> 171 122 482 43<-15.9805 4>
LayerCount: 2
Back
SplineSet
171 799 m 0
 171 806 180 819 192 819 c 0
 198 819 205 816 212 808 c 2
 282 739 l 2
 289 731 293 725 293 717 c 0
 293 710 285 698 273 698 c 0
 267 698 259 701 252 709 c 2
 183 778 l 2
 175 786 171 792 171 799 c 0
44 -16 m 0
 38 -16 23 -12 23 4 c 0
 23 8 24 13 26 18 c 2
 251 636 l 1
 297 636 l 1
 522 18 l 2
 524 13 525 8 525 4 c 0
 525 -12 510 -16 504 -16 c 0
 495 -16 487 -9 482 4 c 2
 410 204 l 1
 138 204 l 1
 66 4 l 1
 60 -9 53 -16 44 -16 c 0
154 246 m 1
 394 246 l 1
 273 575 l 1
 154 246 l 1
EndSplineSet
Fore
Refer: 325 768 N 1 0 0 1 541 188 2
Refer: 34 65 N 1 0 0 1 0 0 3
Validated: 1
EndChar

StartChar: Aacute
Encoding: 193 193 128
Width: 548
Flags: W
HStem: 204 42<154 394> 698 121
VStem: 23 43<-15.9805 4> 235 122 482 43<-15.9805 4>
LayerCount: 2
Back
SplineSet
357 799 m 0
 357 792 353 786 346 778 c 2
 276 709 l 2
 269 701 262 698 256 698 c 0
 244 698 235 710 235 717 c 0
 235 725 239 731 247 739 c 2
 316 808 l 2
 323 816 331 819 337 819 c 0
 349 819 357 806 357 799 c 0
44 -16 m 0
 38 -16 23 -12 23 4 c 0
 23 8 24 13 26 18 c 2
 251 636 l 1
 297 636 l 1
 522 18 l 2
 524 13 525 8 525 4 c 0
 525 -12 510 -16 504 -16 c 0
 495 -16 487 -9 482 4 c 2
 410 204 l 1
 138 204 l 1
 66 4 l 1
 60 -9 53 -16 44 -16 c 0
154 246 m 1
 394 246 l 1
 273 575 l 1
 154 246 l 1
EndSplineSet
Fore
Refer: 326 769 N 1 0 0 1 605 188 2
Refer: 34 65 N 1 0 0 1 0 0 3
Validated: 1
EndChar

StartChar: Acircumflex
Encoding: 194 194 129
Width: 548
Flags: W
HStem: 204 42<154 394> 651 168
VStem: 23 43<-15.9805 4> 138 273<651 677> 482 43<-15.9805 4>
LayerCount: 2
Back
SplineSet
275 773 m 1
 272 773 l 1
 180 669 l 2
 169 657 166 651 156 651 c 0
 146 651 138 657 138 669 c 0
 138 673 139 679 142 682 c 2
 246 819 l 1
 301 819 l 1
 407 682 l 2
 410 678 411 673 411 669 c 0
 411 657 403 651 393 651 c 0
 382 651 379 658 369 669 c 2
 275 773 l 1
44 -16 m 0
 38 -16 23 -12 23 4 c 0
 23 8 24 13 26 18 c 2
 251 636 l 1
 297 636 l 1
 522 18 l 2
 524 13 525 8 525 4 c 0
 525 -12 510 -16 504 -16 c 0
 495 -16 487 -9 482 4 c 2
 410 204 l 1
 138 204 l 1
 66 4 l 1
 60 -9 53 -16 44 -16 c 0
154 246 m 1
 394 246 l 1
 273 575 l 1
 154 246 l 1
EndSplineSet
Fore
Refer: 327 770 S 1 0 0 1 576 141 2
Refer: 34 65 N 1 0 0 1 0 0 3
Validated: 1
EndChar

StartChar: Atilde
Encoding: 195 195 130
Width: 548
Flags: W
HStem: 204 42<154 394> 707 46<270.172 358.359> 747 46<188.773 277.828>
VStem: 23 43<-15.9805 4> 138 272 482 43<-15.9805 4>
CounterMasks: 1 1c
LayerCount: 2
Back
SplineSet
321 755 m 2x28
 323 754 326 753 328 753 c 0
 332 753 335 755 339 758 c 2
 370 786 l 2
 377 791 382 794 389 794 c 0
 399 794 410 787 410 776 c 0
 410 769 407 761 398 753 c 2
 351 714 l 2
 347 710 342 707 335 707 c 0x48
 332 707 328 708 325 709 c 2
 227 745 l 2
 225 746 221 747 219 747 c 0
 215 747 212 745 208 742 c 2
 177 714 l 2
 170 709 165 706 158 706 c 0
 149 706 138 713 138 725 c 0
 138 732 141 740 150 747 c 2
 197 786 l 1
 200 790 205 793 212 793 c 0
 215 793 219 792 223 791 c 2
 321 755 l 2x28
44 -16 m 0x90
 38 -16 23 -12 23 4 c 0
 23 8 24 13 26 18 c 2
 251 636 l 1
 297 636 l 1
 522 18 l 2
 524 13 525 8 525 4 c 0
 525 -12 510 -16 504 -16 c 0
 495 -16 487 -9 482 4 c 2
 410 204 l 1
 138 204 l 1
 66 4 l 1
 60 -9 53 -16 44 -16 c 0x90
154 246 m 1
 394 246 l 1
 273 575 l 1
 154 246 l 1
EndSplineSet
Fore
Refer: 323 732 N 1 0 0 1 73 524 2
Refer: 34 65 N 1 0 0 1 0 0 3
Validated: 1
EndChar

StartChar: Adieresis
Encoding: 196 196 131
Width: 548
Flags: W
HStem: 204 42<154 394> 706 72<159.588 242.879 305.588 388.879>
VStem: 23 43<-15.9805 4> 155 92<712.714 771.286> 301 92<712.714 771.286> 482 43<-15.9805 4>
LayerCount: 2
Back
SplineSet
301 743 m 0
 301 762 327 779 347 779 c 0
 366 779 393 762 393 743 c 0
 393 723 366 707 347 707 c 0
 327 707 301 723 301 743 c 0
155 743 m 0
 155 762 181 779 201 779 c 0
 220 779 247 762 247 743 c 0
 247 723 220 707 201 707 c 0
 181 707 155 723 155 743 c 0
44 -16 m 0
 38 -16 23 -12 23 4 c 0
 23 8 24 13 26 18 c 2
 251 636 l 1
 297 636 l 1
 522 18 l 2
 524 13 525 8 525 4 c 0
 525 -12 510 -16 504 -16 c 0
 495 -16 487 -9 482 4 c 2
 410 204 l 1
 138 204 l 1
 66 4 l 1
 60 -9 53 -16 44 -16 c 0
154 246 m 1
 394 246 l 1
 273 575 l 1
 154 246 l 1
EndSplineSet
Fore
Refer: 103 168 N 1 0 0 1 90 112 2
Refer: 34 65 N 1 0 0 1 0 0 3
Validated: 1
EndChar

StartChar: Aring
Encoding: 197 197 132
Width: 548
Flags: W
HStem: 204 42<154 394> 640 27<240.934 307.066> 765 27<240.255 306.384>
VStem: 23 43<-15.9805 4> 198 27<683.018 749.623> 323 27<683.018 748.751> 482 43<-15.9805 4>
LayerCount: 2
Back
SplineSet
225 716 m 0
 225 689 247 667 274 667 c 0
 300 667 323 689 323 716 c 0
 323 742 300 765 274 765 c 0
 247 765 225 742 225 716 c 0
198 716 m 0
 198 758 232 792 274 792 c 0
 316 792 350 758 350 716 c 0
 350 674 316 640 274 640 c 0
 232 640 198 674 198 716 c 0
44 -16 m 0
 38 -16 23 -12 23 4 c 0
 23 8 24 13 26 18 c 2
 251 636 l 1
 297 636 l 1
 522 18 l 2
 524 13 525 8 525 4 c 0
 525 -12 510 -16 504 -16 c 0
 495 -16 487 -9 482 4 c 2
 410 204 l 1
 138 204 l 1
 66 4 l 1
 60 -9 53 -16 44 -16 c 0
154 246 m 1
 394 246 l 1
 273 575 l 1
 154 246 l 1
EndSplineSet
Fore
Refer: 334 778 S 1 0 0 1 581 130 2
Refer: 34 65 N 1 0 0 1 0 0 3
Validated: 1
EndChar

StartChar: AE
Encoding: 198 198 133
Width: 846
Flags: W
HStem: 0 42<435 797.936> 204 42<203 394> 337 42<435 680.932> 594 42<435 797.936>
VStem: 394 41<42 204 246 337 379 550>
AnchorPoint: "bottom" 421 0 basechar 0
AnchorPoint: "top" 420 678 basechar 0
LayerCount: 2
Fore
SplineSet
435 337 m 1,0,-1
 435 42 l 1,1,-1
 769 42 l 2,2,3
 798 42 798 42 798 19 c 0,4,5
 798 0 798 0 769 0 c 2,6,-1
 413 0 l 2,7,8
 394 0 394 0 394 31 c 2,9,-1
 394 204 l 1,10,-1
 175 204 l 1,11,-1
 52 5 l 2,12,13
 40 -16 40 -16 24 -16 c 128,-1,14
 8 -16 8 -16 8 -3 c 0,15,16
 8 7 8 7 15 18 c 2,17,-1
 398 628 l 2,18,19
 403 636 403 636 413 636 c 2,20,-1
 769 636 l 2,21,22
 798 636 798 636 798 613 c 0,23,24
 798 594 798 594 769 594 c 2,25,-1
 435 594 l 1,26,-1
 435 379 l 1,27,-1
 650 379 l 2,28,29
 681 379 681 379 681 356 c 0,30,31
 681 337 681 337 650 337 c 2,32,-1
 435 337 l 1,0,-1
394 246 m 1,33,-1
 394 550 l 1,34,-1
 203 246 l 1,35,-1
 394 246 l 1,33,-1
EndSplineSet
Validated: 1
EndChar

StartChar: Ccedilla
Encoding: 199 199 134
Width: 572
Flags: W
HStem: -165 40<230.395 340.797> 0 42<156.359 281.925 318 460.589> 594 42<156.038 460.589>
VStem: 72 42<81.886 552.807> 343 42<-121.359 -62.7964> 474 42<57.473 136.963 499.009 578.012>
LayerCount: 2
Fore
SplineSet
220 -120 m 0,0,1
 220 -107 220 -107 230 -107 c 0,2,3
 233 -107 233 -107 256 -116 c 128,-1,4
 279 -125 279 -125 296 -125 c 0,5,6
 343 -125 343 -125 343 -94 c 0,7,8
 343 -80 343 -80 328 -67.5 c 128,-1,9
 313 -55 313 -55 296 -39 c 128,-1,10
 279 -23 279 -23 275 0 c 1,11,12
 172 1 172 1 122 36 c 128,-1,13
 72 71 72 71 72 175 c 2,14,-1
 72 461 l 2,15,16
 72 566 72 566 123 601 c 128,-1,17
 174 636 174 636 280 636 c 2,18,-1
 421 636 l 2,19,20
 484 636 484 636 500 604 c 128,-1,21
 516 572 516 572 516 535.5 c 128,-1,22
 516 499 516 499 495 499 c 128,-1,23
 474 499 474 499 474 531 c 128,-1,24
 474 563 474 563 461 578.5 c 128,-1,25
 448 594 448 594 414 594 c 2,26,-1
 280 594 l 2,27,28
 232 594 232 594 205.5 590.5 c 128,-1,29
 179 587 179 587 156 573.5 c 128,-1,30
 133 560 133 560 123.5 533 c 128,-1,31
 114 506 114 506 114 461 c 2,32,-1
 114 175 l 2,33,34
 114 130 114 130 123.5 103 c 128,-1,35
 133 76 133 76 156 62.5 c 128,-1,36
 179 49 179 49 205.5 45.5 c 128,-1,37
 232 42 232 42 280 42 c 2,38,-1
 414 42 l 2,39,40
 448 42 448 42 461 57 c 128,-1,41
 474 72 474 72 474 104.5 c 128,-1,42
 474 137 474 137 495 137 c 0,43,44
 516 136 516 136 516 110 c 0,45,46
 516 64 516 64 500 32 c 128,-1,47
 484 0 484 0 421 0 c 2,48,-1
 318 0 l 1,49,50
 322 -15 322 -15 339.5 -27.5 c 128,-1,51
 357 -40 357 -40 371 -54 c 128,-1,52
 385 -68 385 -68 385 -95 c 128,-1,53
 385 -122 385 -122 359 -143.5 c 128,-1,54
 333 -165 333 -165 302 -165 c 128,-1,55
 271 -165 271 -165 245.5 -154.5 c 128,-1,56
 220 -144 220 -144 220 -120 c 0,0,1
EndSplineSet
Validated: 1
EndChar

StartChar: Egrave
Encoding: 200 200 135
Width: 577
Flags: W
HStem: 0 42<126 527.936> 337 42<126 410.934> 594 42<126 527.936> 698 121
VStem: 84 42<42 337 379 594> 199 122
LayerCount: 2
Back
SplineSet
199 799 m 0
 199 806 208 819 220 819 c 0
 226 819 233 816 240 808 c 2
 310 739 l 2
 317 731 321 725 321 717 c 0
 321 710 313 698 301 698 c 0
 295 698 287 701 280 709 c 2
 211 778 l 2
 203 786 199 792 199 799 c 0
126 337 m 1
 126 42 l 1
 499 42 l 2
 519 42 528 36 528 19 c 0
 528 4 519 0 499 0 c 2
 103 0 l 2
 89 0 84 10 84 31 c 2
 84 605 l 2
 84 626 89 636 103 636 c 2
 499 636 l 2
 519 636 528 630 528 613 c 0
 528 598 519 594 499 594 c 2
 126 594 l 1
 126 379 l 1
 381 379 l 2
 401 379 411 373 411 356 c 0
 411 341 401 337 381 337 c 2
 126 337 l 1
EndSplineSet
Fore
Refer: 325 768 N 1 0 0 1 569 188 2
Refer: 38 69 N 1 0 0 1 0 0 3
Validated: 1
EndChar

StartChar: Eacute
Encoding: 201 201 136
Width: 577
Flags: W
HStem: 0 42<126 527.936> 337 42<126 410.934> 594 42<126 527.936> 698 121
VStem: 84 42<42 337 379 594> 250 122
LayerCount: 2
Back
SplineSet
372 799 m 0
 372 792 368 786 361 778 c 2
 291 709 l 2
 284 701 277 698 271 698 c 0
 259 698 250 710 250 717 c 0
 250 725 254 731 262 739 c 2
 331 808 l 2
 338 816 346 819 352 819 c 0
 364 819 372 806 372 799 c 0
126 337 m 1
 126 42 l 1
 499 42 l 2
 519 42 528 36 528 19 c 0
 528 4 519 0 499 0 c 2
 103 0 l 2
 89 0 84 10 84 31 c 2
 84 605 l 2
 84 626 89 636 103 636 c 2
 499 636 l 2
 519 636 528 630 528 613 c 0
 528 598 519 594 499 594 c 2
 126 594 l 1
 126 379 l 1
 381 379 l 2
 401 379 411 373 411 356 c 0
 411 341 401 337 381 337 c 2
 126 337 l 1
EndSplineSet
Fore
Refer: 326 769 N 1 0 0 1 620 188 2
Refer: 38 69 N 1 0 0 1 0 0 3
Validated: 1
EndChar

StartChar: Ecircumflex
Encoding: 202 202 137
Width: 577
Flags: W
HStem: 0 42<126 527.936> 337 42<126 410.934> 594 42<126 527.936> 651 168
VStem: 84 42<42 337 379 594> 165 273<651 677>
LayerCount: 2
Back
SplineSet
302 773 m 1
 299 773 l 1
 207 669 l 2
 196 657 193 651 183 651 c 0
 173 651 165 657 165 669 c 0
 165 673 166 679 169 682 c 2
 273 819 l 1
 328 819 l 1
 434 682 l 2
 437 678 438 673 438 669 c 0
 438 657 430 651 420 651 c 0
 409 651 406 658 396 669 c 2
 302 773 l 1
126 337 m 1
 126 42 l 1
 499 42 l 2
 519 42 528 36 528 19 c 0
 528 4 519 0 499 0 c 2
 103 0 l 2
 89 0 84 10 84 31 c 2
 84 605 l 2
 84 626 89 636 103 636 c 2
 499 636 l 2
 519 636 528 630 528 613 c 0
 528 598 519 594 499 594 c 2
 126 594 l 1
 126 379 l 1
 381 379 l 2
 401 379 411 373 411 356 c 0
 411 341 401 337 381 337 c 2
 126 337 l 1
EndSplineSet
Fore
Refer: 327 770 S 1 0 0 1 603 141 2
Refer: 38 69 N 1 0 0 1 0 0 3
Validated: 1
EndChar

StartChar: Edieresis
Encoding: 203 203 138
Width: 577
Flags: W
HStem: 0 42<126 527.936> 337 42<126 410.934> 594 42<126 527.936> 706 72<186.588 269.879 332.588 415.879>
VStem: 84 42<42 337 379 594> 182 92<712.714 771.286> 328 92<712.714 771.286>
LayerCount: 2
Back
SplineSet
329 743 m 0
 329 762 355 779 375 779 c 0
 394 779 421 762 421 743 c 0
 421 723 394 707 375 707 c 0
 355 707 329 723 329 743 c 0
183 743 m 0
 183 762 209 779 229 779 c 0
 248 779 275 762 275 743 c 0
 275 723 248 707 229 707 c 0
 209 707 183 723 183 743 c 0
126 337 m 1
 126 42 l 1
 499 42 l 2
 519 42 528 36 528 19 c 0
 528 4 519 0 499 0 c 2
 103 0 l 2
 89 0 84 10 84 31 c 2
 84 605 l 2
 84 626 89 636 103 636 c 2
 499 636 l 2
 519 636 528 630 528 613 c 0
 528 598 519 594 499 594 c 2
 126 594 l 1
 126 379 l 1
 381 379 l 2
 401 379 411 373 411 356 c 0
 411 341 401 337 381 337 c 2
 126 337 l 1
EndSplineSet
Fore
Refer: 103 168 N 1 0 0 1 117 112 2
Refer: 38 69 N 1 0 0 1 0 0 3
Validated: 1
EndChar

StartChar: Igrave
Encoding: 204 204 139
Width: 210
Flags: W
HStem: -7 21<94.5 115.5> 623 20<94.5 115.5> 698 121
VStem: 4 122 84 42<-6.99341 642.993>
LayerCount: 2
Back
SplineSet
4 799 m 0x30
 4 806 13 819 25 819 c 0
 31 819 38 816 45 808 c 2
 115 739 l 2
 122 731 126 725 126 717 c 0
 126 710 118 698 106 698 c 0
 100 698 92 701 85 709 c 2
 16 778 l 2
 8 786 4 792 4 799 c 0x30
126 20 m 2xc8
 126 2 119 -7 104 -7 c 0
 91 -7 84 2 84 20 c 2
 84 615 l 2
 84 634 91 643 105 643 c 0
 119 643 126 634 126 615 c 2
 126 20 l 2xc8
EndSplineSet
Fore
Refer: 325 768 N 1 0 0 1 374 188 2
Refer: 42 73 N 1 0 0 1 0 0 3
Validated: 1
EndChar

StartChar: Iacute
Encoding: 205 205 140
Width: 210
Flags: W
HStem: -7 21<94.5 115.5> 623 20<94.5 115.5> 698 121
VStem: 84 42<-6.99341 642.993> 85 122
LayerCount: 2
Back
SplineSet
207 799 m 0x28
 207 792 203 786 196 778 c 2
 126 709 l 2
 119 701 112 698 106 698 c 0
 94 698 85 710 85 717 c 0
 85 725 89 731 97 739 c 2
 166 808 l 2
 173 816 181 819 187 819 c 0
 199 819 207 806 207 799 c 0x28
126 20 m 2xd0
 126 2 119 -7 104 -7 c 0
 91 -7 84 2 84 20 c 2
 84 615 l 2
 84 634 91 643 105 643 c 0
 119 643 126 634 126 615 c 2
 126 20 l 2xd0
EndSplineSet
Fore
Refer: 326 769 N 1 0 0 1 455 188 2
Refer: 42 73 N 1 0 0 1 0 0 3
Validated: 1
EndChar

StartChar: Icircumflex
Encoding: 206 206 141
Width: 210
Flags: W
HStem: -7 21<94.5 115.5> 623 20<94.5 115.5> 651 168
VStem: -30 273<651 677> 84 42<-6.99341 642.993>
LayerCount: 2
Back
SplineSet
107 773 m 1x30
 104 773 l 1
 12 669 l 2
 1 657 -2 651 -12 651 c 0
 -22 651 -30 657 -30 669 c 0
 -30 673 -29 679 -26 682 c 2
 78 819 l 1
 133 819 l 1
 239 682 l 2
 242 678 243 673 243 669 c 0
 243 657 235 651 225 651 c 0
 214 651 211 658 201 669 c 2
 107 773 l 1x30
126 20 m 2xc8
 126 2 119 -7 104 -7 c 0
 91 -7 84 2 84 20 c 2
 84 615 l 2
 84 634 91 643 105 643 c 0
 119 643 126 634 126 615 c 2
 126 20 l 2xc8
EndSplineSet
Fore
Refer: 327 770 N 1 0 0 1 408 141 2
Refer: 42 73 N 1 0 0 1 0 0 3
Validated: 1
EndChar

StartChar: Idieresis
Encoding: 207 207 142
Width: 210
Flags: W
HStem: -7 21<94.5 115.5> 623 20<94.5 115.5> 706 72<-9.41211 73.879 136.588 219.879>
VStem: -14 92<712.714 771.286> 84 42<-6.99341 642.993> 132 92<712.714 771.286>
CounterMasks: 1 1c
LayerCount: 2
Back
SplineSet
133 743 m 0
 133 762 159 779 179 779 c 0
 198 779 225 762 225 743 c 0
 225 723 198 707 179 707 c 0
 159 707 133 723 133 743 c 0
-13 743 m 0
 -13 762 13 779 33 779 c 0
 52 779 79 762 79 743 c 0
 79 723 52 707 33 707 c 0
 13 707 -13 723 -13 743 c 0
126 20 m 2
 126 2 119 -7 104 -7 c 0
 91 -7 84 2 84 20 c 2
 84 615 l 2
 84 634 91 643 105 643 c 0
 119 643 126 634 126 615 c 2
 126 20 l 2
EndSplineSet
Fore
Refer: 103 168 N 1 0 0 1 -79 112 2
Refer: 42 73 N 1 0 0 1 0 0 3
Validated: 1
EndChar

StartChar: Eth
Encoding: 208 208 143
Width: 600
Flags: W
HStem: 0 42<126 444.041> 303 43<49.0593 84 126 260.993> 594 42<126 444.041>
VStem: 84 42<42 303 346 594> 486 42<83.1934 552.807>
LayerCount: 2
Fore
SplineSet
76 303 m 2,0,1
 49 303 49 303 49 326 c 0,2,3
 49 346 49 346 76 346 c 2,4,-1
 84 346 l 1,5,-1
 84 605 l 2,6,7
 84 636 84 636 103 636 c 2,8,-1
 321 636 l 2,9,10
 426 636 426 636 477 601 c 128,-1,11
 528 566 528 566 528 461 c 2,12,-1
 528 175 l 2,13,14
 528 70 528 70 477 35 c 128,-1,15
 426 0 426 0 321 0 c 2,16,-1
 103 0 l 2,17,18
 84 0 84 0 84 31 c 2,19,-1
 84 303 l 1,20,-1
 76 303 l 2,0,1
486 175 m 2,21,-1
 486 461 l 2,22,23
 486 506 486 506 476.5 533 c 128,-1,24
 467 560 467 560 444 573.5 c 128,-1,25
 421 587 421 587 394.5 590.5 c 128,-1,26
 368 594 368 594 321 594 c 2,27,-1
 126 594 l 1,28,-1
 126 346 l 1,29,-1
 232 346 l 2,30,31
 261 346 261 346 261 324 c 0,32,33
 261 303 261 303 234 303 c 0,34,35
 233 303 233 303 232 303 c 1,36,-1
 126 303 l 1,37,-1
 126 42 l 1,38,-1
 321 42 l 2,39,40
 368 42 368 42 394.5 45.5 c 128,-1,41
 421 49 421 49 444 62.5 c 128,-1,42
 467 76 467 76 476.5 103 c 128,-1,43
 486 130 486 130 486 175 c 2,21,-1
EndSplineSet
Validated: 1
EndChar

StartChar: Ntilde
Encoding: 209 209 144
Width: 612
Flags: W
HStem: -7 21<94.5 115.5 502 518> 623 20<93.5 110.5 496.5 517.5> 707 46<301.172 389.359> 747 46<219.773 308.828>
VStem: 84 42<-6.99268 557> 169 272 486 42<84 642.992>
LayerCount: 2
Back
SplineSet
352 755 m 2x14
 354 754 357 753 359 753 c 0
 363 753 366 755 370 758 c 2
 401 786 l 2
 408 791 413 794 420 794 c 0
 430 794 441 787 441 776 c 0
 441 769 438 761 429 753 c 2
 382 714 l 2
 378 710 373 707 366 707 c 0x24
 363 707 359 708 356 709 c 2
 258 745 l 2
 256 746 252 747 250 747 c 0
 246 747 243 745 239 742 c 2
 208 714 l 2
 201 709 196 706 189 706 c 0
 180 706 169 713 169 725 c 0
 169 732 172 740 181 747 c 2
 228 786 l 1
 231 790 236 793 243 793 c 0
 246 793 250 792 254 791 c 2
 352 755 l 2x14
508 -7 m 0xca
 501 -7 495 -5 492 0 c 2
 126 557 l 1
 126 23 l 2
 126 3 121 -7 105 -7 c 0
 90 -7 84 3 84 23 c 2
 84 612 l 2
 84 629 87 643 103 643 c 0
 114 643 121 638 129 626 c 2
 486 84 l 1
 486 612 l 2
 486 633 492 643 506 643 c 0
 522 643 528 633 528 612 c 2
 528 23 l 2
 528 3 523 -7 508 -7 c 0xca
EndSplineSet
Fore
Refer: 323 732 N 1 0 0 1 104 524 2
Refer: 47 78 N 1 0 0 1 0 0 3
Validated: 1
EndChar

StartChar: Ograve
Encoding: 210 210 145
Width: 574
Flags: W
HStem: -9 42<196.102 377.898> 603 42<196.102 377.898> 698 121
VStem: 65 42<126.058 509.942> 185 122 467 42<126.058 509.942>
LayerCount: 2
Back
SplineSet
185 799 m 0
 185 806 194 819 206 819 c 0
 212 819 219 816 226 808 c 2
 296 739 l 2
 303 731 307 725 307 717 c 0
 307 710 299 698 287 698 c 0
 281 698 273 701 266 709 c 2
 197 778 l 2
 189 786 185 792 185 799 c 0
287 -9 m 0
 161 -9 65 76 65 227 c 2
 65 409 l 2
 65 560 161 645 287 645 c 0
 412 645 509 560 509 409 c 2
 509 227 l 2
 509 76 412 -9 287 -9 c 0
287 603 m 0
 175 603 107 530 107 409 c 2
 107 227 l 2
 107 105 175 33 287 33 c 0
 399 33 467 105 467 227 c 2
 467 409 l 2
 467 530 399 603 287 603 c 0
EndSplineSet
Fore
Refer: 325 768 S 1 0 0 1 555 188 2
Refer: 48 79 N 1 0 0 1 0 0 3
Validated: 1
EndChar

StartChar: Oacute
Encoding: 211 211 146
Width: 574
Flags: W
HStem: -9 42<196.102 377.898> 603 42<196.102 377.898> 698 121
VStem: 65 42<126.058 509.942> 266 122 467 42<126.058 509.942>
LayerCount: 2
Back
SplineSet
388 799 m 0
 388 792 384 786 377 778 c 2
 307 709 l 2
 300 701 293 698 287 698 c 0
 275 698 266 710 266 717 c 0
 266 725 270 731 278 739 c 2
 347 808 l 2
 354 816 362 819 368 819 c 0
 380 819 388 806 388 799 c 0
287 -9 m 0
 161 -9 65 76 65 227 c 2
 65 409 l 2
 65 560 161 645 287 645 c 0
 412 645 509 560 509 409 c 2
 509 227 l 2
 509 76 412 -9 287 -9 c 0
287 603 m 0
 175 603 107 530 107 409 c 2
 107 227 l 2
 107 105 175 33 287 33 c 0
 399 33 467 105 467 227 c 2
 467 409 l 2
 467 530 399 603 287 603 c 0
EndSplineSet
Fore
Refer: 326 769 N 1 0 0 1 636 188 2
Refer: 48 79 N 1 0 0 1 0 0 3
Validated: 1
EndChar

StartChar: Ocircumflex
Encoding: 212 212 147
Width: 574
Flags: W
HStem: -9 42<196.102 377.898> 603 42<196.102 377.898> 651 168
VStem: 65 42<126.058 509.942> 151 273<651 677> 467 42<126.058 509.942>
LayerCount: 2
Back
SplineSet
288 773 m 1
 285 773 l 1
 193 669 l 2
 182 657 179 651 169 651 c 0
 159 651 151 657 151 669 c 0
 151 673 152 679 155 682 c 2
 259 819 l 1
 314 819 l 1
 420 682 l 2
 423 678 424 673 424 669 c 0
 424 657 416 651 406 651 c 0
 395 651 392 658 382 669 c 2
 288 773 l 1
287 -9 m 0
 161 -9 65 76 65 227 c 2
 65 409 l 2
 65 560 161 645 287 645 c 0
 412 645 509 560 509 409 c 2
 509 227 l 2
 509 76 412 -9 287 -9 c 0
287 603 m 0
 175 603 107 530 107 409 c 2
 107 227 l 2
 107 105 175 33 287 33 c 0
 399 33 467 105 467 227 c 2
 467 409 l 2
 467 530 399 603 287 603 c 0
EndSplineSet
Fore
Refer: 327 770 S 1 0 0 1 589 141 2
Refer: 48 79 N 1 0 0 1 0 0 3
Validated: 1
EndChar

StartChar: Otilde
Encoding: 213 213 148
Width: 574
Flags: W
HStem: -9 42<196.102 377.898> 603 42<196.102 377.898> 707 46<283.172 371.359> 747 46<201.773 290.828>
VStem: 65 42<126.058 509.942> 151 272 467 42<126.058 509.942>
CounterMasks: 1 0e
LayerCount: 2
Back
SplineSet
334 755 m 2x14
 336 754 339 753 341 753 c 0
 345 753 348 755 352 758 c 2
 383 786 l 2
 390 791 395 794 402 794 c 0
 412 794 423 787 423 776 c 0
 423 769 420 761 411 753 c 2
 364 714 l 2
 360 710 355 707 348 707 c 0x24
 345 707 341 708 338 709 c 2
 240 745 l 2
 238 746 234 747 232 747 c 0
 228 747 225 745 221 742 c 2
 190 714 l 2
 183 709 178 706 171 706 c 0
 162 706 151 713 151 725 c 0
 151 732 154 740 163 747 c 2
 210 786 l 1
 213 790 218 793 225 793 c 0
 228 793 232 792 236 791 c 2
 334 755 l 2x14
287 -9 m 0xca
 161 -9 65 76 65 227 c 2
 65 409 l 2
 65 560 161 645 287 645 c 0
 412 645 509 560 509 409 c 2
 509 227 l 2
 509 76 412 -9 287 -9 c 0xca
287 603 m 0
 175 603 107 530 107 409 c 2
 107 227 l 2
 107 105 175 33 287 33 c 0
 399 33 467 105 467 227 c 2
 467 409 l 2
 467 530 399 603 287 603 c 0
EndSplineSet
Fore
Refer: 323 732 N 1 0 0 1 86 524 2
Refer: 48 79 N 1 0 0 1 0 0 3
Validated: 1
EndChar

StartChar: Odieresis
Encoding: 214 214 149
Width: 574
Flags: W
HStem: -9 42<196.102 377.898> 603 42<196.102 377.898> 706 72<172.588 255.879 318.588 401.879>
VStem: 65 42<126.058 509.942> 168 92<712.714 771.286> 314 92<712.714 771.286> 467 42<126.058 509.942>
LayerCount: 2
Back
SplineSet
315 743 m 0
 315 762 341 779 361 779 c 0
 380 779 407 762 407 743 c 0
 407 723 380 707 361 707 c 0
 341 707 315 723 315 743 c 0
169 743 m 0
 169 762 195 779 215 779 c 0
 234 779 261 762 261 743 c 0
 261 723 234 707 215 707 c 0
 195 707 169 723 169 743 c 0
287 -9 m 0
 161 -9 65 76 65 227 c 2
 65 409 l 2
 65 560 161 645 287 645 c 0
 412 645 509 560 509 409 c 2
 509 227 l 2
 509 76 412 -9 287 -9 c 0
287 603 m 0
 175 603 107 530 107 409 c 2
 107 227 l 2
 107 105 175 33 287 33 c 0
 399 33 467 105 467 227 c 2
 467 409 l 2
 467 530 399 603 287 603 c 0
EndSplineSet
Fore
Refer: 103 168 N 1 0 0 1 103 112 2
Refer: 48 79 N 1 0 0 1 0 0 3
Validated: 1
EndChar

StartChar: multiply
Encoding: 215 215 150
Width: 491
Flags: W
LayerCount: 2
Fore
SplineSet
82 364 m 2,0,1
 71 375 71 375 71 383 c 128,-1,2
 71 391 71 391 77.5 397.5 c 128,-1,3
 84 404 84 404 92 404 c 128,-1,4
 100 404 100 404 111 393 c 2,5,-1
 246 260 l 1,6,-1
 379 393 l 2,7,8
 390 404 390 404 398 404 c 128,-1,9
 406 404 406 404 413 398.5 c 128,-1,10
 420 393 420 393 420 384 c 128,-1,11
 420 375 420 375 408 364 c 2,12,-1
 275 230 l 1,13,-1
 408 97 l 1,14,15
 420 87 420 87 420 78.5 c 128,-1,16
 420 70 420 70 413 63 c 128,-1,17
 406 56 406 56 398 56 c 128,-1,18
 390 56 390 56 379 68 c 2,19,-1
 246 201 l 1,20,-1
 111 68 l 1,21,22
 101 56 101 56 92.5 56 c 128,-1,23
 84 56 84 56 77.5 61.5 c 128,-1,24
 71 67 71 67 71 76.5 c 128,-1,25
 71 86 71 86 82 97 c 2,26,-1
 215 230 l 1,27,-1
 82 364 l 2,0,1
EndSplineSet
Validated: 1
EndChar

StartChar: Oslash
Encoding: 216 216 151
Width: 574
Flags: W
HStem: -9 42<195.703 379.2> 603 42<194.894 377.308>
VStem: 65 42<123.655 509.942> 467 42<126.058 510.615>
AnchorPoint: "top" 287 678 basechar 0
AnchorPoint: "bottom" 287 0 basechar 0
LayerCount: 2
Fore
SplineSet
406 564 m 1,0,1
 360 603 360 603 281.5 603 c 128,-1,2
 203 603 203 603 155 551.5 c 128,-1,3
 107 500 107 500 107 409 c 2,4,-1
 107 227 l 2,5,6
 107 151 107 151 140 103 c 1,7,-1
 406 564 l 1,0,1
475 631.5 m 128,-1,9
 481 625 481 625 481 618.5 c 128,-1,10
 481 612 481 612 476 600 c 1,11,-1
 457 570 l 1,12,13
 509 507 509 507 509 409 c 2,14,-1
 509 227 l 2,15,16
 509 117 509 117 446.5 54 c 128,-1,17
 384 -9 384 -9 294.5 -9 c 128,-1,18
 205 -9 205 -9 149 35 c 1,19,-1
 137 14 l 2,20,21
 128 -2 128 -2 119 -2 c 0,22,23
 95 -2 95 -2 95 17 c 0,24,25
 95 24 95 24 100 36 c 1,26,-1
 117 65 l 1,27,28
 65 126 65 126 65 227 c 2,29,-1
 65 409 l 2,30,31
 65 519 65 519 127.5 582 c 128,-1,32
 190 645 190 645 280 645 c 128,-1,33
 370 645 370 645 426 600 c 1,34,-1
 439 622 l 2,35,36
 448 638 448 638 458.5 638 c 128,-1,8
 469 638 469 638 475 631.5 c 128,-1,9
435 531 m 1,37,-1
 169 71 l 1,38,39
 215 33 215 33 293 33 c 128,-1,40
 371 33 371 33 419 84.5 c 128,-1,41
 467 136 467 136 467 227 c 2,42,-1
 467 409 l 2,43,44
 467 484 467 484 435 531 c 1,37,-1
EndSplineSet
Validated: 1
EndChar

StartChar: Ugrave
Encoding: 217 217 152
Width: 598
Flags: W
HStem: -9 42<208.102 389.898> 623 20<87.5 108.5 489.5 510.5> 636 168
VStem: 77 42<126.058 642.993> 198 145 479 42<126.058 642.993>
LayerCount: 2
Back
SplineSet
198 783 m 0x28
 198 796 210 804 218 804 c 0
 224 804 231 800 239 791 c 2
 335 676 l 2
 341 669 343 663 343 656 c 0
 343 644 331 636 323 636 c 0
 317 636 310 640 302 649 c 2
 206 764 l 2
 200 771 198 777 198 783 c 0x28
479 615 m 2xd4
 479 634 487 643 501 643 c 0
 514 643 521 634 521 615 c 2
 521 227 l 2
 521 76 424 -9 299 -9 c 0
 173 -9 77 76 77 227 c 2
 77 615 l 2
 77 634 84 643 98 643 c 0
 112 643 119 634 119 615 c 2
 119 227 l 2
 119 105 187 33 299 33 c 0
 411 33 479 105 479 227 c 2
 479 615 l 2xd4
EndSplineSet
Fore
Refer: 65 96 S 1 0 0 1 164 126 2
Refer: 54 85 N 1 0 0 1 0 0 3
Validated: 1
EndChar

StartChar: Uacute
Encoding: 218 218 153
Width: 598
Flags: W
HStem: -9 42<208.102 389.898> 623 20<87.5 108.5 489.5 510.5> 636 168
VStem: 77 42<126.058 642.993> 279 145 479 42<126.058 642.993>
LayerCount: 2
Back
SplineSet
424 783 m 0x28
 424 777 422 771 416 764 c 2
 320 649 l 2
 312 640 305 636 299 636 c 0
 291 636 279 644 279 656 c 0
 279 663 281 669 287 676 c 2
 383 791 l 2
 391 800 398 804 404 804 c 0
 412 804 424 796 424 783 c 0x28
479 615 m 2xd4
 479 634 487 643 501 643 c 0
 514 643 521 634 521 615 c 2
 521 227 l 2
 521 76 424 -9 299 -9 c 0
 173 -9 77 76 77 227 c 2
 77 615 l 2
 77 634 84 643 98 643 c 0
 112 643 119 634 119 615 c 2
 119 227 l 2
 119 105 187 33 299 33 c 0
 411 33 479 105 479 227 c 2
 479 615 l 2xd4
EndSplineSet
Fore
Refer: 115 180 S 1 0 0 1 245 126 2
Refer: 54 85 N 1 0 0 1 0 0 3
Validated: 1
EndChar

StartChar: Ucircumflex
Encoding: 219 219 154
Width: 598
Flags: W
HStem: -9 42<208.102 389.898> 623 20<87.5 108.5 489.5 510.5> 651 168
VStem: 77 42<126.058 642.993> 163 273<651 677> 479 42<126.058 642.993>
LayerCount: 2
Back
SplineSet
300 773 m 1
 297 773 l 1
 205 669 l 2
 194 657 191 651 181 651 c 0
 171 651 163 657 163 669 c 0
 163 673 164 679 167 682 c 2
 271 819 l 1
 326 819 l 1
 432 682 l 2
 435 678 436 673 436 669 c 0
 436 657 428 651 418 651 c 0
 407 651 404 658 394 669 c 2
 300 773 l 1
479 615 m 2
 479 634 487 643 501 643 c 0
 514 643 521 634 521 615 c 2
 521 227 l 2
 521 76 424 -9 299 -9 c 0
 173 -9 77 76 77 227 c 2
 77 615 l 2
 77 634 84 643 98 643 c 0
 112 643 119 634 119 615 c 2
 119 227 l 2
 119 105 187 33 299 33 c 0
 411 33 479 105 479 227 c 2
 479 615 l 2
EndSplineSet
Fore
Refer: 327 770 S 1 0 0 1 601 141 2
Refer: 54 85 N 1 0 0 1 0 0 3
Validated: 1
EndChar

StartChar: Udieresis
Encoding: 220 220 155
Width: 598
Flags: W
HStem: -9 42<208.102 389.898> 623 20<87.5 108.5 489.5 510.5> 706 72<185.588 268.879 331.588 414.879>
VStem: 77 42<126.058 642.993> 181 92<712.714 771.286> 327 92<712.714 771.286> 479 42<126.058 642.993>
LayerCount: 2
Back
SplineSet
327 743 m 0
 327 762 353 779 373 779 c 0
 392 779 419 762 419 743 c 0
 419 723 392 707 373 707 c 0
 353 707 327 723 327 743 c 0
181 743 m 0
 181 762 207 779 227 779 c 0
 246 779 273 762 273 743 c 0
 273 723 246 707 227 707 c 0
 207 707 181 723 181 743 c 0
479 615 m 2
 479 634 487 643 501 643 c 0
 514 643 521 634 521 615 c 2
 521 227 l 2
 521 76 424 -9 299 -9 c 0
 173 -9 77 76 77 227 c 2
 77 615 l 2
 77 634 84 643 98 643 c 0
 112 643 119 634 119 615 c 2
 119 227 l 2
 119 105 187 33 299 33 c 0
 411 33 479 105 479 227 c 2
 479 615 l 2
EndSplineSet
Fore
Refer: 103 168 S 1 0 0 1 116 112 2
Refer: 54 85 N 1 0 0 1 0 0 3
Validated: 1
EndChar

StartChar: Yacute
Encoding: 221 221 156
Width: 499
Flags: W
HStem: -7 21<240 260> 623 20<457 465.5> 636 168
VStem: 229 41<-6.99341 310> 229 145
LayerCount: 2
Back
SplineSet
374 783 m 0x28
 374 777 372 771 366 764 c 2
 270 649 l 2
 262 640 255 636 249 636 c 0
 241 636 229 644 229 656 c 0
 229 663 231 669 237 676 c 2
 333 791 l 2
 341 800 348 804 354 804 c 0
 362 804 374 796 374 783 c 0x28
229 310 m 1xd0
 23 604 l 2
 19 610 16 616 16 623 c 0
 16 635 28 643 36 643 c 0
 43 643 50 637 57 627 c 2
 249 354 l 1
 440 627 l 2
 448 637 455 643 462 643 c 0
 470 643 482 635 482 623 c 0
 482 616 479 610 475 604 c 2
 270 310 l 1
 270 20 l 2
 270 2 263 -7 249 -7 c 0
 236 -7 229 2 229 20 c 2
 229 310 l 1xd0
EndSplineSet
Fore
Refer: 115 180 N 1 0 0 1 195 126 2
Refer: 58 89 N 1 0 0 1 0 0 3
Validated: 1
EndChar

StartChar: Thorn
Encoding: 222 222 157
Width: 500
Flags: W
HStem: -7 21G<94.5 115.5> 161 42<126 383.993> 419 42<126 382.523>
VStem: 84 42<-6.99341 161 203 419 461 600.993> 422 43<237.952 383.914>
LayerCount: 2
Fore
SplineSet
126 461 m 1,0,-1
 299 461 l 2,1,2
 301 461 301 461 303 461 c 0,3,4
 378 461 378 461 421 424 c 0,5,6
 465 386 465 386 465 312 c 128,-1,7
 465 238 465 238 420.5 199.5 c 128,-1,8
 376 161 376 161 298 161 c 2,9,-1
 126 161 l 1,10,-1
 126 20 l 2,11,12
 126 -7 126 -7 105 -7 c 128,-1,13
 84 -7 84 -7 84 20 c 2,14,-1
 84 573 l 2,15,16
 84 601 84 601 105 601 c 128,-1,17
 126 601 126 601 126 573 c 2,18,-1
 126 461 l 1,0,-1
126 419 m 1,19,-1
 126 203 l 1,20,-1
 256 203 l 2,21,22
 347 203 347 203 384 223.5 c 128,-1,23
 421 244 421 244 422 310 c 0,24,25
 422 376 422 376 384.5 397.5 c 128,-1,26
 347 419 347 419 257 419 c 2,27,-1
 126 419 l 1,19,-1
EndSplineSet
Validated: 1
EndChar

StartChar: germandbls
Encoding: 223 223 158
Width: 442
Flags: W
HStem: -20 42<213.206 319.622> -7 21G<71.5 92.5> 360 42<161 242.16> 419 42<31.0076 62> 594 42<135.035 274.353>
VStem: 31 73<419.513 460.487> 62 42<-6.93188 419 461 560.527> 151 42<39.6542 116.992> 295 42<451.123 574.563> 363 42<72.2197 274.536>
LayerCount: 2
Fore
SplineSet
161 360 m 1,0,-1
 161 402 l 1,1,2
 221 402 221 402 258 433 c 128,-1,3
 295 464 295 464 295 527 c 0,4,5
 295 557 295 557 273.5 575.5 c 128,-1,6
 252 594 252 594 219.5 594 c 128,-1,7
 187 594 187 594 170 590 c 128,-1,8
 153 586 153 586 136 574 c 0,9,10
 104 550 104 550 104 461 c 2,11,-1
 104 24 l 2,12,13
 104 -7 104 -7 81 -7 c 0,14,15
 62 -7 62 -7 62 24 c 2,16,-1
 62 419 l 1,17,18
 31 419 31 419 31 440 c 128,-1,19
 31 461 31 461 62 461 c 1,20,21
 62 570 62 570 113 606 c 0,22,23
 155 636 155 636 214 636 c 128,-1,24
 273 636 273 636 305 603 c 128,-1,25
 337 570 337 570 337 525 c 0,26,27
 337 431 337 431 257 384 c 1,28,29
 405 346 405 346 405 195 c 1,30,31
 404 70 404 70 359 25 c 128,-1,32
 314 -20 314 -20 267.5 -20 c 128,-1,33
 221 -20 221 -20 186 7.5 c 128,-1,34
 151 35 151 35 151 86 c 0,35,36
 151 117 151 117 172 117 c 128,-1,37
 193 117 193 117 193 85.5 c 128,-1,38
 193 54 193 54 215.5 38 c 128,-1,39
 238 22 238 22 272 22 c 128,-1,40
 306 22 306 22 334.5 59 c 128,-1,41
 363 96 363 96 363 195 c 0,42,43
 363 266 363 266 310.5 313 c 128,-1,44
 258 360 258 360 161 360 c 1,0,-1
EndSplineSet
Validated: 1
EndChar

StartChar: agrave
Encoding: 224 224 159
Width: 534
Flags: W
HStem: 0 42<122.83 341.215> 248 42<144.03 420> 419 42<125.281 406.589> 507 168
VStem: 60 42<63.571 207.97 324.007 397.275> 160 145 420 42<-6.99268 72 124.102 248 290 403.526>
LayerCount: 2
Back
SplineSet
160 654 m 0
 160 667 172 675 180 675 c 0
 186 675 193 671 201 662 c 2
 297 547 l 2
 303 540 305 534 305 527 c 0
 305 515 293 507 285 507 c 0
 279 507 272 511 264 520 c 2
 168 635 l 2
 162 642 160 648 160 654 c 0
268 248 m 2
 156 248 102 237 102 115 c 0
 102 77 131 42 162 42 c 2
 255 42 l 2
 360 42 420 108 420 228 c 2
 420 248 l 1
 268 248 l 2
268 290 m 2
 420 290 l 1
 420 354 l 2
 420 400 406 419 360 419 c 2
 219 419 l 2
 156 419 102 404 102 354 c 0
 102 334 97 324 80 324 c 0
 66 324 60 334 60 354 c 0
 60 431 130 461 212 461 c 2
 367 461 l 2
 441 461 462 430 462 337 c 2
 462 23 l 2
 462 3 456 -7 441 -7 c 0
 426 -7 420 3 420 23 c 2
 420 72 l 1
 383 23 320 0 255 0 c 2
 162 0 l 2
 104 0 60 45 60 120 c 0
 60 264 143 290 268 290 c 2
EndSplineSet
Fore
Refer: 65 96 S 1 0 0 1 126 -3 2
Refer: 66 97 N 1 0 0 1 0 0 3
Validated: 1
EndChar

StartChar: aacute
Encoding: 225 225 160
Width: 534
Flags: W
HStem: 0 42<122.83 341.215> 248 42<144.03 420> 419 42<125.281 406.589> 510 168
VStem: 60 42<63.571 207.97 324.007 397.275> 241 145 420 42<-6.99268 72 124.102 248 290 403.526>
LayerCount: 2
Back
SplineSet
386 657 m 0
 386 651 384 645 378 638 c 2
 282 523 l 2
 274 514 267 510 261 510 c 0
 253 510 241 518 241 530 c 0
 241 537 243 543 249 550 c 2
 345 665 l 2
 353 674 360 678 366 678 c 0
 374 678 386 670 386 657 c 0
268 248 m 2
 156 248 102 237 102 115 c 0
 102 77 131 42 162 42 c 2
 255 42 l 2
 360 42 420 108 420 228 c 2
 420 248 l 1
 268 248 l 2
268 290 m 2
 420 290 l 1
 420 354 l 2
 420 400 406 419 360 419 c 2
 219 419 l 2
 156 419 102 404 102 354 c 0
 102 334 97 324 80 324 c 0
 66 324 60 334 60 354 c 0
 60 431 130 461 212 461 c 2
 367 461 l 2
 441 461 462 430 462 337 c 2
 462 23 l 2
 462 3 456 -7 441 -7 c 0
 426 -7 420 3 420 23 c 2
 420 72 l 1
 383 23 320 0 255 0 c 2
 162 0 l 2
 104 0 60 45 60 120 c 0
 60 264 143 290 268 290 c 2
EndSplineSet
Fore
Refer: 115 180 S 1 0 0 1 207 0 2
Refer: 66 97 N 1 0 0 1 0 0 3
Validated: 1
EndChar

StartChar: acircumflex
Encoding: 226 226 161
Width: 534
Flags: W
HStem: 0 42<122.83 341.215> 248 42<144.03 420> 419 42<125.281 406.589> 522 168
VStem: 60 42<63.571 207.97 324.007 397.275> 125 273<522 548> 420 42<-6.99268 72 124.102 248 290 403.526>
LayerCount: 2
Back
SplineSet
262 644 m 1
 259 644 l 1
 167 540 l 2
 156 528 153 522 143 522 c 0
 133 522 125 528 125 540 c 0
 125 544 126 550 129 553 c 2
 233 690 l 1
 288 690 l 1
 394 553 l 2
 397 549 398 544 398 540 c 0
 398 528 390 522 380 522 c 0
 369 522 366 529 356 540 c 2
 262 644 l 1
268 248 m 2
 156 248 102 237 102 115 c 0
 102 77 131 42 162 42 c 2
 255 42 l 2
 360 42 420 108 420 228 c 2
 420 248 l 1
 268 248 l 2
268 290 m 2
 420 290 l 1
 420 354 l 2
 420 400 406 419 360 419 c 2
 219 419 l 2
 156 419 102 404 102 354 c 0
 102 334 97 324 80 324 c 0
 66 324 60 334 60 354 c 0
 60 431 130 461 212 461 c 2
 367 461 l 2
 441 461 462 430 462 337 c 2
 462 23 l 2
 462 3 456 -7 441 -7 c 0
 426 -7 420 3 420 23 c 2
 420 72 l 1
 383 23 320 0 255 0 c 2
 162 0 l 2
 104 0 60 45 60 120 c 0
 60 264 143 290 268 290 c 2
EndSplineSet
Fore
Refer: 317 710 S 1 0 0 1 60 12 2
Refer: 66 97 N 1 0 0 1 0 0 3
Validated: 1
EndChar

StartChar: atilde
Encoding: 227 227 162
Width: 534
Flags: W
HStem: 0 42<122.83 341.215> 248 42<144.03 420> 419 42<125.281 406.589> 523 46<258.172 346.359> 563 46<176.773 265.828>
VStem: 60 42<63.571 207.97 324.007 397.275> 126 272 420 42<-6.99268 72 124.102 248 290 403.526>
LayerCount: 2
Back
SplineSet
309 571 m 2x0a
 311 570 314 569 316 569 c 0
 320 569 323 571 327 574 c 2
 358 602 l 2
 365 607 370 610 377 610 c 0
 387 610 398 603 398 592 c 0
 398 585 395 577 386 569 c 2
 339 530 l 2
 335 526 330 523 323 523 c 0x12
 320 523 316 524 313 525 c 2
 215 561 l 2
 213 562 209 563 207 563 c 0
 203 563 200 561 196 558 c 2
 165 530 l 2
 158 525 153 522 146 522 c 0
 137 522 126 529 126 541 c 0
 126 548 129 556 138 563 c 2
 185 602 l 1
 188 606 193 609 200 609 c 0
 203 609 207 608 211 607 c 2
 309 571 l 2x0a
268 248 m 2xe5
 156 248 102 237 102 115 c 0
 102 77 131 42 162 42 c 2
 255 42 l 2
 360 42 420 108 420 228 c 2
 420 248 l 1
 268 248 l 2xe5
268 290 m 2
 420 290 l 1
 420 354 l 2
 420 400 406 419 360 419 c 2
 219 419 l 2
 156 419 102 404 102 354 c 0
 102 334 97 324 80 324 c 0
 66 324 60 334 60 354 c 0
 60 431 130 461 212 461 c 2
 367 461 l 2
 441 461 462 430 462 337 c 2
 462 23 l 2
 462 3 456 -7 441 -7 c 0
 426 -7 420 3 420 23 c 2
 420 72 l 1
 383 23 320 0 255 0 c 2
 162 0 l 2
 104 0 60 45 60 120 c 0
 60 264 143 290 268 290 c 2
EndSplineSet
Fore
Refer: 323 732 N 1 0 0 1 61 340 2
Refer: 66 97 N 1 0 0 1 0 0 3
Validated: 1
EndChar

StartChar: adieresis
Encoding: 228 228 163
Width: 534
Flags: W
HStem: 0 42<122.83 341.215> 248 42<144.03 420> 419 42<125.281 406.589> 522 72<146.588 229.879 292.588 375.879>
VStem: 60 42<63.571 207.97 324.007 397.275> 142 92<528.714 587.286> 288 92<528.714 587.286> 420 42<-6.99268 72 124.102 248 290 403.526>
LayerCount: 2
Back
SplineSet
288 558 m 0
 288 577 314 594 334 594 c 0
 353 594 380 577 380 558 c 0
 380 538 353 522 334 522 c 0
 314 522 288 538 288 558 c 0
142 558 m 0
 142 577 168 594 188 594 c 0
 207 594 234 577 234 558 c 0
 234 538 207 522 188 522 c 0
 168 522 142 538 142 558 c 0
268 248 m 2
 156 248 102 237 102 115 c 0
 102 77 131 42 162 42 c 2
 255 42 l 2
 360 42 420 108 420 228 c 2
 420 248 l 1
 268 248 l 2
268 290 m 2
 420 290 l 1
 420 354 l 2
 420 400 406 419 360 419 c 2
 219 419 l 2
 156 419 102 404 102 354 c 0
 102 334 97 324 80 324 c 0
 66 324 60 334 60 354 c 0
 60 431 130 461 212 461 c 2
 367 461 l 2
 441 461 462 430 462 337 c 2
 462 23 l 2
 462 3 456 -7 441 -7 c 0
 426 -7 420 3 420 23 c 2
 420 72 l 1
 383 23 320 0 255 0 c 2
 162 0 l 2
 104 0 60 45 60 120 c 0
 60 264 143 290 268 290 c 2
EndSplineSet
Fore
Refer: 103 168 S 1 0 0 1 77 -72 2
Refer: 66 97 N 1 0 0 1 0 0 3
Validated: 1
EndChar

StartChar: aring
Encoding: 229 229 164
Width: 534
Flags: W
HStem: 0 42<122.83 341.215> 248 42<144.03 420> 419 42<125.281 406.589> 522 27<228.934 295.066> 647 27<228.255 294.384>
VStem: 60 42<63.571 207.97 324.007 397.275> 186 27<565.018 631.623> 311 27<565.018 630.751> 420 42<-6.99268 72 124.102 248 290 403.526>
LayerCount: 2
Back
SplineSet
213 598 m 0
 213 571 235 549 262 549 c 0
 288 549 311 571 311 598 c 0
 311 624 288 647 262 647 c 0
 235 647 213 624 213 598 c 0
186 598 m 0
 186 640 220 674 262 674 c 0
 304 674 338 640 338 598 c 0
 338 556 304 522 262 522 c 0
 220 522 186 556 186 598 c 0
268 248 m 2
 156 248 102 237 102 115 c 0
 102 77 131 42 162 42 c 2
 255 42 l 2
 360 42 420 108 420 228 c 2
 420 248 l 1
 268 248 l 2
268 290 m 2
 420 290 l 1
 420 354 l 2
 420 400 406 419 360 419 c 2
 219 419 l 2
 156 419 102 404 102 354 c 0
 102 334 97 324 80 324 c 0
 66 324 60 334 60 354 c 0
 60 431 130 461 212 461 c 2
 367 461 l 2
 441 461 462 430 462 337 c 2
 462 23 l 2
 462 3 456 -7 441 -7 c 0
 426 -7 420 3 420 23 c 2
 420 72 l 1
 383 23 320 0 255 0 c 2
 162 0 l 2
 104 0 60 45 60 120 c 0
 60 264 143 290 268 290 c 2
EndSplineSet
Fore
Refer: 334 778 N 1 0 0 1 569 12 2
Refer: 66 97 N 1 0 0 1 0 0 3
Validated: 1
EndChar

StartChar: ae
Encoding: 230 230 165
Width: 924
Flags: W
HStem: 0 42<121.75 344.259 509.503 809.104> 253 42<153.689 426 468 822> 419 42<126.27 413.104 508.75 779.553>
VStem: 60 42<61.2637 205.128 324.009 395.369> 426 42<130.56 253 295 380.406> 822 42<57.9884 136.992 295 378.686>
AnchorPoint: "bottom" 453 0 basechar 0
AnchorPoint: "top" 453 510 basechar 0
LayerCount: 2
Fore
SplineSet
276 253 m 2,0,1
 180 253 180 253 141 225.5 c 128,-1,2
 102 198 102 198 102 113 c 0,3,4
 102 85 102 85 120.5 63.5 c 128,-1,5
 139 42 139 42 162 42 c 2,6,-1
 254 42 l 2,7,8
 337 42 337 42 381.5 93 c 128,-1,9
 426 144 426 144 426 233 c 2,10,-1
 426 253 l 1,11,-1
 276 253 l 2,0,1
822 295 m 1,12,13
 821 371 821 371 785.5 395 c 128,-1,14
 750 419 750 419 649 419 c 2,15,-1
 641 419 l 2,16,17
 539 419 539 419 504 395.5 c 128,-1,18
 469 372 469 372 468 295 c 1,19,-1
 822 295 l 1,12,13
460 410 m 1,20,21
 476 426 476 426 489 434.5 c 128,-1,22
 502 443 502 443 542 452 c 128,-1,23
 582 461 582 461 641 461 c 2,24,-1
 649 461 l 2,25,26
 763 461 763 461 813.5 426 c 128,-1,27
 864 391 864 391 864 290 c 2,28,-1
 864 253 l 1,29,-1
 468 253 l 1,30,-1
 468 172 l 2,31,32
 468 127 468 127 477 101 c 128,-1,33
 486 75 486 75 510.5 62 c 128,-1,34
 535 49 535 49 562.5 45.5 c 128,-1,35
 590 42 590 42 641 42 c 2,36,-1
 762 42 l 2,37,38
 797 42 797 42 809.5 57.5 c 128,-1,39
 822 73 822 73 822 105 c 128,-1,40
 822 137 822 137 843 137 c 128,-1,41
 864 137 864 137 864 106 c 0,42,43
 864 55 864 55 844.5 27.5 c 128,-1,44
 825 0 825 0 769 0 c 2,45,-1
 641 0 l 2,46,47
 531 0 531 0 490 26 c 0,48,49
 469 40 469 40 459.5 51.5 c 128,-1,50
 450 63 450 63 440 82 c 1,51,-1
 435 76 l 1,52,53
 410 41 410 41 356 20.5 c 128,-1,54
 302 0 302 0 254 0 c 2,55,-1
 162 0 l 2,56,57
 118 0 118 0 89 32 c 128,-1,58
 60 64 60 64 60 118 c 0,59,60
 60 218 60 218 114.5 256.5 c 128,-1,61
 169 295 169 295 276 295 c 2,62,-1
 426 295 l 1,63,-1
 426 357 l 2,64,65
 426 390 426 390 413.5 404.5 c 128,-1,66
 401 419 401 419 367 419 c 2,67,-1
 228 419 l 2,68,69
 102 419 102 419 102 354 c 0,70,71
 102 324 102 324 81 324 c 128,-1,72
 60 324 60 324 60 359 c 128,-1,73
 60 394 60 394 86 419.5 c 128,-1,74
 112 445 112 445 145.5 453 c 128,-1,75
 179 461 179 461 221 461 c 2,76,-1
 374 461 l 1,77,78
 376 461 376 461 377 461 c 0,79,80
 434 461 434 461 452 428 c 0,81,82
 455 422 455 422 460 410 c 1,20,21
EndSplineSet
Validated: 1
EndChar

StartChar: ccedilla
Encoding: 231 231 166
Width: 564
Flags: W
HStem: -165 40<222.395 332.797> 0 42<147.2 273.925 310 450.589> 419 42<146.038 450.589>
VStem: 62 42<81.7365 377.807> 335 42<-121.359 -62.7964> 464 42<57.473 136.963 324.009 403.012>
LayerCount: 2
Fore
SplineSet
212 -120 m 0,0,1
 212 -107 212 -107 222 -107 c 0,2,3
 225 -107 225 -107 248 -116 c 128,-1,4
 271 -125 271 -125 288 -125 c 0,5,6
 335 -125 335 -125 335 -94 c 0,7,8
 335 -80 335 -80 320 -67.5 c 128,-1,9
 305 -55 305 -55 288 -39 c 128,-1,10
 271 -23 271 -23 267 0 c 1,11,12
 163 0 163 0 112.5 35.5 c 128,-1,13
 62 71 62 71 62 175 c 2,14,-1
 62 286 l 2,15,16
 62 391 62 391 113 426 c 128,-1,17
 164 461 164 461 270 461 c 2,18,-1
 411 461 l 1,19,20
 413 461 413 461 415 461 c 0,21,22
 475 461 475 461 490 429 c 0,23,24
 506 396 506 396 506 360 c 128,-1,25
 506 324 506 324 485 324 c 128,-1,26
 464 324 464 324 464 356 c 128,-1,27
 464 388 464 388 451 403.5 c 128,-1,28
 438 419 438 419 404 419 c 2,29,-1
 270 419 l 2,30,31
 222 419 222 419 195.5 415.5 c 128,-1,32
 169 412 169 412 146 398.5 c 128,-1,33
 123 385 123 385 113.5 358 c 128,-1,34
 104 331 104 331 104 286 c 2,35,-1
 104 175 l 2,36,37
 104 130 104 130 113.5 103 c 128,-1,38
 123 76 123 76 146 62.5 c 128,-1,39
 169 49 169 49 195.5 45.5 c 128,-1,40
 222 42 222 42 270 42 c 2,41,-1
 404 42 l 2,42,43
 438 42 438 42 451 57 c 128,-1,44
 464 72 464 72 464 104.5 c 128,-1,45
 464 137 464 137 485 137 c 0,46,47
 506 136 506 136 506 110 c 0,48,49
 506 64 506 64 490 32 c 128,-1,50
 474 0 474 0 411 0 c 2,51,-1
 310 0 l 1,52,53
 314 -15 314 -15 331.5 -27.5 c 128,-1,54
 349 -40 349 -40 363 -54 c 128,-1,55
 377 -68 377 -68 377 -95 c 128,-1,56
 377 -122 377 -122 351 -143.5 c 128,-1,57
 325 -165 325 -165 294 -165 c 128,-1,58
 263 -165 263 -165 237.5 -154.5 c 128,-1,59
 212 -144 212 -144 212 -120 c 0,0,1
EndSplineSet
Validated: 1
EndChar

StartChar: egrave
Encoding: 232 232 167
Width: 566
Flags: W
HStem: 0 42<146.038 450.589> 250 42<104 464> 419 42<146.038 422.041> 510 168
VStem: 62 42<83.1934 250 292 379.909> 181 145 464 42<57.473 136.963 292 379.909>
LayerCount: 2
Back
SplineSet
181 657 m 0
 181 670 193 678 201 678 c 0
 207 678 214 674 222 665 c 2
 318 550 l 2
 324 543 326 537 326 530 c 0
 326 518 314 510 306 510 c 0
 300 510 293 514 285 523 c 2
 189 638 l 2
 183 645 181 651 181 657 c 0
506 286 m 2
 506 250 l 1
 104 250 l 1
 104 175 l 2
 104 53 158 42 270 42 c 2
 404 42 l 2
 450 42 464 61 464 109 c 0
 464 128 471 137 485 137 c 0
 500 137 506 127 506 106 c 0
 506 56 498 0 411 0 c 2
 270 0 l 2
 145 0 62 24 62 175 c 2
 62 286 l 2
 62 437 145 461 270 461 c 2
 299 461 l 2
 423 461 506 437 506 286 c 2
299 419 m 2
 270 419 l 2
 160 419 104 408 104 292 c 1
 464 292 l 1
 464 408 408 419 299 419 c 2
EndSplineSet
Fore
Refer: 65 96 S 1 0 0 1 147 0 2
Refer: 70 101 N 1 0 0 1 0 0 3
Validated: 1
EndChar

StartChar: eacute
Encoding: 233 233 168
Width: 566
Flags: W
HStem: 0 42<146.038 450.589> 250 42<104 464> 419 42<146.038 422.041> 510 168
VStem: 62 42<83.1934 250 292 379.909> 265 145 464 42<57.473 136.963 292 379.909>
LayerCount: 2
Back
SplineSet
410 657 m 0
 410 651 408 645 402 638 c 2
 306 523 l 2
 298 514 291 510 285 510 c 0
 277 510 265 518 265 530 c 0
 265 537 267 543 273 550 c 2
 369 665 l 2
 377 674 384 678 390 678 c 0
 398 678 410 670 410 657 c 0
506 286 m 2
 506 250 l 1
 104 250 l 1
 104 175 l 2
 104 53 158 42 270 42 c 2
 404 42 l 2
 450 42 464 61 464 109 c 0
 464 128 471 137 485 137 c 0
 500 137 506 127 506 106 c 0
 506 56 498 0 411 0 c 2
 270 0 l 2
 145 0 62 24 62 175 c 2
 62 286 l 2
 62 437 145 461 270 461 c 2
 299 461 l 2
 423 461 506 437 506 286 c 2
299 419 m 2
 270 419 l 2
 160 419 104 408 104 292 c 1
 464 292 l 1
 464 408 408 419 299 419 c 2
EndSplineSet
Fore
Refer: 115 180 S 1 0 0 1 231 0 2
Refer: 70 101 N 1 0 0 1 0 0 3
Validated: 1
EndChar

StartChar: ecircumflex
Encoding: 234 234 169
Width: 566
Flags: W
HStem: 0 42<146.038 450.589> 250 42<104 464> 419 42<146.038 422.041> 522 168
VStem: 62 42<83.1934 250 292 379.909> 148 273<522 548> 464 42<57.473 136.963 292 379.909>
LayerCount: 2
Back
SplineSet
285 644 m 1
 282 644 l 1
 190 540 l 2
 179 528 176 522 166 522 c 0
 156 522 148 528 148 540 c 0
 148 544 149 550 152 553 c 2
 256 690 l 1
 311 690 l 1
 417 553 l 2
 420 549 421 544 421 540 c 0
 421 528 413 522 403 522 c 0
 392 522 389 529 379 540 c 2
 285 644 l 1
506 286 m 2
 506 250 l 1
 104 250 l 1
 104 175 l 2
 104 53 158 42 270 42 c 2
 404 42 l 2
 450 42 464 61 464 109 c 0
 464 128 471 137 485 137 c 0
 500 137 506 127 506 106 c 0
 506 56 498 0 411 0 c 2
 270 0 l 2
 145 0 62 24 62 175 c 2
 62 286 l 2
 62 437 145 461 270 461 c 2
 299 461 l 2
 423 461 506 437 506 286 c 2
299 419 m 2
 270 419 l 2
 160 419 104 408 104 292 c 1
 464 292 l 1
 464 408 408 419 299 419 c 2
EndSplineSet
Fore
Refer: 317 710 S 1 0 0 1 83 12 2
Refer: 70 101 N 1 0 0 1 0 0 3
Validated: 1
EndChar

StartChar: edieresis
Encoding: 235 235 170
Width: 566
Flags: W
HStem: 0 42<146.038 450.589> 250 42<104 464> 419 42<146.038 422.041> 522 72<170.588 253.879 316.588 399.879>
VStem: 62 42<83.1934 250 292 379.909> 166 92<528.714 587.286> 312 92<528.714 587.286> 464 42<57.473 136.963 292 379.909>
LayerCount: 2
Back
SplineSet
312 558 m 0
 312 577 338 594 358 594 c 0
 377 594 404 577 404 558 c 0
 404 538 377 522 358 522 c 0
 338 522 312 538 312 558 c 0
166 558 m 0
 166 577 192 594 212 594 c 0
 231 594 258 577 258 558 c 0
 258 538 231 522 212 522 c 0
 192 522 166 538 166 558 c 0
506 286 m 2
 506 250 l 1
 104 250 l 1
 104 175 l 2
 104 53 158 42 270 42 c 2
 404 42 l 2
 450 42 464 61 464 109 c 0
 464 128 471 137 485 137 c 0
 500 137 506 127 506 106 c 0
 506 56 498 0 411 0 c 2
 270 0 l 2
 145 0 62 24 62 175 c 2
 62 286 l 2
 62 437 145 461 270 461 c 2
 299 461 l 2
 423 461 506 437 506 286 c 2
299 419 m 2
 270 419 l 2
 160 419 104 408 104 292 c 1
 464 292 l 1
 464 408 408 419 299 419 c 2
EndSplineSet
Fore
Refer: 103 168 S 1 0 0 1 101 -72 2
Refer: 70 101 N 1 0 0 1 0 0 3
Validated: 1
EndChar

StartChar: igrave
Encoding: 236 236 171
Width: 190
Flags: W
HStem: -7 21<84.5 105.5> 448 20<84.5 105.5> 511 168
VStem: -29 145 74 42<-6.99341 467.993>
LayerCount: 2
Back
SplineSet
-29 658 m 0x30
 -29 671 -17 679 -9 679 c 0
 -3 679 4 675 12 666 c 2
 108 551 l 2
 114 544 116 538 116 531 c 0
 116 519 104 511 96 511 c 0
 90 511 83 515 75 524 c 2
 -21 639 l 2
 -27 646 -29 652 -29 658 c 0x30
116 20 m 2xc8
 116 2 109 -7 94 -7 c 0
 81 -7 74 2 74 20 c 2
 74 440 l 2
 74 459 81 468 95 468 c 0
 109 468 116 459 116 440 c 2
 116 20 l 2xc8
EndSplineSet
Fore
Refer: 65 96 N 1 0 0 1 -63 1 2
Refer: 236 305 N 1 0 0 1 0 0 3
Validated: 1
EndChar

StartChar: iacute
Encoding: 237 237 172
Width: 190
Flags: W
HStem: -7 21<84.5 105.5> 448 20<84.5 105.5> 510 168
VStem: 74 42<-6.99341 467.993> 74 145
LayerCount: 2
Back
SplineSet
219 657 m 0x28
 219 651 217 645 211 638 c 2
 115 523 l 2
 107 514 100 510 94 510 c 0
 86 510 74 518 74 530 c 0
 74 537 76 543 82 550 c 2
 178 665 l 2
 186 674 193 678 199 678 c 0
 207 678 219 670 219 657 c 0x28
116 20 m 2xd0
 116 2 109 -7 94 -7 c 0
 81 -7 74 2 74 20 c 2
 74 440 l 2
 74 459 81 468 95 468 c 0
 109 468 116 459 116 440 c 2
 116 20 l 2xd0
EndSplineSet
Fore
Refer: 115 180 N 1 0 0 1 40 0 2
Refer: 236 305 N 1 0 0 1 0 0 3
Validated: 1
EndChar

StartChar: icircumflex
Encoding: 238 238 173
Width: 190
Flags: W
HStem: -7 21<84.5 105.5> 448 20<84.5 105.5> 529 168
VStem: -41 273<529 555> 74 42<-6.99341 467.993>
LayerCount: 2
Back
SplineSet
96 651 m 1x30
 93 651 l 1
 1 547 l 2
 -10 535 -13 529 -23 529 c 0
 -33 529 -41 535 -41 547 c 0
 -41 551 -40 557 -37 560 c 2
 67 697 l 1
 122 697 l 1
 228 560 l 2
 231 556 232 551 232 547 c 0
 232 535 224 529 214 529 c 0
 203 529 200 536 190 547 c 2
 96 651 l 1x30
116 20 m 2xc8
 116 2 109 -7 94 -7 c 0
 81 -7 74 2 74 20 c 2
 74 440 l 2
 74 459 81 468 95 468 c 0
 109 468 116 459 116 440 c 2
 116 20 l 2xc8
EndSplineSet
Fore
Refer: 317 710 N 1 0 0 1 -106 19 2
Refer: 236 305 N 1 0 0 1 0 0 3
Validated: 1
EndChar

StartChar: idieresis
Encoding: 239 239 174
Width: 190
Flags: W
HStem: -7 21<84.5 105.5> 448 20<84.5 105.5> 529 72<-19.4121 63.879 126.588 209.879>
VStem: -24 92<535.714 594.286> 74 42<-6.99341 467.993> 122 92<535.714 594.286>
CounterMasks: 1 1c
LayerCount: 2
Back
SplineSet
122 565 m 0
 122 584 148 601 168 601 c 0
 187 601 214 584 214 565 c 0
 214 545 187 529 168 529 c 0
 148 529 122 545 122 565 c 0
-24 565 m 0
 -24 584 2 601 22 601 c 0
 41 601 68 584 68 565 c 0
 68 545 41 529 22 529 c 0
 2 529 -24 545 -24 565 c 0
116 20 m 2
 116 2 109 -7 94 -7 c 0
 81 -7 74 2 74 20 c 2
 74 440 l 2
 74 459 81 468 95 468 c 0
 109 468 116 459 116 440 c 2
 116 20 l 2
EndSplineSet
Fore
Refer: 103 168 N 1 0 0 1 -89 -65 2
Refer: 236 305 N 1 0 0 1 0 0 3
Validated: 1
EndChar

StartChar: eth
Encoding: 240 240 175
Width: 546
Flags: W
HStem: -16 42<188.6 363.239> 414 42<189.239 367.757> 593 43<122.057 244.38>
VStem: 47 42<126.539 314.309> 449 42<127.434 321.618>
LayerCount: 2
Fore
SplineSet
148 593 m 0,0,1
 122 593 122 593 122 613 c 0,2,3
 122 636 122 636 148 636 c 0,4,5
 219 636 219 636 279 609 c 1,6,-1
 313 643 l 2,7,8
 324 654 324 654 332.5 654 c 128,-1,9
 341 654 341 654 347.5 648.5 c 128,-1,10
 354 643 354 643 354 634 c 128,-1,11
 354 625 354 625 343 613 c 1,12,-1
 318 589 l 1,13,14
 491 483 491 483 491 221 c 0,15,16
 491 123 491 123 435 53.5 c 128,-1,17
 379 -16 379 -16 279.5 -16 c 128,-1,18
 180 -16 180 -16 113.5 47 c 128,-1,19
 47 110 47 110 47 220.5 c 128,-1,20
 47 331 47 331 113.5 393.5 c 128,-1,21
 180 456 180 456 284 456 c 0,22,23
 366 456 366 456 419 403 c 1,24,25
 377 509 377 509 287 557 c 1,26,-1
 237 508 l 2,27,28
 226 497 226 497 218 497 c 128,-1,29
 210 497 210 497 203 503 c 128,-1,30
 196 509 196 509 196 516.5 c 128,-1,31
 196 524 196 524 208 538 c 1,32,-1
 246 575 l 1,33,34
 198 593 198 593 148 593 c 0,0,1
406.5 87.5 m 128,-1,36
 449 149 449 149 449 225 c 128,-1,37
 449 301 449 301 407.5 357.5 c 128,-1,38
 366 414 366 414 281 414 c 128,-1,39
 196 414 196 414 142.5 360 c 128,-1,40
 89 306 89 306 89 220.5 c 128,-1,41
 89 135 89 135 142.5 80.5 c 128,-1,42
 196 26 196 26 280 26 c 128,-1,35
 364 26 364 26 406.5 87.5 c 128,-1,36
EndSplineSet
Validated: 1
EndChar

StartChar: ntilde
Encoding: 241 241 176
Width: 587
Flags: W
HStem: -7 21<84.5 105.5 486.5 507.5> 419 42<193.4 434.041> 530 46<292.172 380.359> 570 46<210.773 299.828>
VStem: 74 42<-6.99268 336.135 389 467.932> 160 272 476 42<-6.99268 377.807>
CounterMasks: 1 0e
LayerCount: 2
Back
SplineSet
343 578 m 2x14
 345 577 348 576 350 576 c 0
 354 576 357 578 361 581 c 2
 392 609 l 2
 399 614 404 617 411 617 c 0
 421 617 432 610 432 599 c 0
 432 592 429 584 420 576 c 2
 373 537 l 2
 369 533 364 530 357 530 c 0x24
 354 530 350 531 347 532 c 2
 249 568 l 2
 247 569 243 570 241 570 c 0
 237 570 234 568 230 565 c 2
 199 537 l 2
 192 532 187 529 180 529 c 0
 171 529 160 536 160 548 c 0
 160 555 163 563 172 570 c 2
 219 609 l 1
 222 613 227 616 234 616 c 0
 237 616 241 615 245 614 c 2
 343 578 l 2x14
282 419 m 2xca
 176 419 116 353 116 232 c 2
 116 23 l 2
 116 3 111 -7 95 -7 c 0
 80 -7 74 3 74 23 c 2
 74 437 l 2
 74 458 79 468 93 468 c 0
 110 468 116 458 116 437 c 2
 116 389 l 1
 154 438 216 461 282 461 c 2
 311 461 l 2
 435 461 518 437 518 286 c 2
 518 23 l 2
 518 3 513 -7 498 -7 c 0
 483 -7 476 3 476 23 c 2
 476 286 l 2
 476 408 422 419 311 419 c 2
 282 419 l 2xca
EndSplineSet
Fore
Refer: 323 732 S 1 0 0 1 95 347 2
Refer: 79 110 N 1 0 0 1 0 0 3
Validated: 1
EndChar

StartChar: ograve
Encoding: 242 242 177
Width: 568
Flags: W
HStem: 0 42<146.038 422.041> 419 42<146.038 422.041> 510 168
VStem: 62 42<83.1934 377.807> 183 145 464 42<83.1934 377.807>
LayerCount: 2
Back
SplineSet
183 657 m 0
 183 670 195 678 203 678 c 0
 209 678 216 674 224 665 c 2
 320 550 l 2
 326 543 328 537 328 530 c 0
 328 518 316 510 308 510 c 0
 302 510 295 514 287 523 c 2
 191 638 l 2
 185 645 183 651 183 657 c 0
299 0 m 2
 270 0 l 2
 145 0 62 24 62 175 c 2
 62 286 l 2
 62 437 145 461 270 461 c 2
 299 461 l 2
 423 461 506 437 506 286 c 2
 506 175 l 2
 506 24 423 0 299 0 c 2
270 42 m 2
 299 42 l 2
 410 42 464 53 464 175 c 2
 464 286 l 2
 464 408 410 419 299 419 c 2
 270 419 l 2
 158 419 104 408 104 286 c 2
 104 175 l 2
 104 53 158 42 270 42 c 2
EndSplineSet
Fore
Refer: 65 96 S 1 0 0 1 149 0 2
Refer: 80 111 N 1 0 0 1 0 0 3
Validated: 1
EndChar

StartChar: oacute
Encoding: 243 243 178
Width: 568
Flags: W
HStem: 0 42<146.038 422.041> 419 42<146.038 422.041> 510 168
VStem: 62 42<83.1934 377.807> 263 145 464 42<83.1934 377.807>
LayerCount: 2
Back
SplineSet
408 657 m 0
 408 651 406 645 400 638 c 2
 304 523 l 2
 296 514 289 510 283 510 c 0
 275 510 263 518 263 530 c 0
 263 537 265 543 271 550 c 2
 367 665 l 2
 375 674 382 678 388 678 c 0
 396 678 408 670 408 657 c 0
299 0 m 2
 270 0 l 2
 145 0 62 24 62 175 c 2
 62 286 l 2
 62 437 145 461 270 461 c 2
 299 461 l 2
 423 461 506 437 506 286 c 2
 506 175 l 2
 506 24 423 0 299 0 c 2
270 42 m 2
 299 42 l 2
 410 42 464 53 464 175 c 2
 464 286 l 2
 464 408 410 419 299 419 c 2
 270 419 l 2
 158 419 104 408 104 286 c 2
 104 175 l 2
 104 53 158 42 270 42 c 2
EndSplineSet
Fore
Refer: 115 180 S 1 0 0 1 229 0 2
Refer: 80 111 N 1 0 0 1 0 0 3
Validated: 1
EndChar

StartChar: ocircumflex
Encoding: 244 244 179
Width: 568
Flags: W
HStem: 0 42<146.038 422.041> 419 42<146.038 422.041> 522 168
VStem: 62 42<83.1934 377.807> 148 273<522 548> 464 42<83.1934 377.807>
LayerCount: 2
Back
SplineSet
285 644 m 1
 282 644 l 1
 190 540 l 2
 179 528 176 522 166 522 c 0
 156 522 148 528 148 540 c 0
 148 544 149 550 152 553 c 2
 256 690 l 1
 311 690 l 1
 417 553 l 2
 420 549 421 544 421 540 c 0
 421 528 413 522 403 522 c 0
 392 522 389 529 379 540 c 2
 285 644 l 1
299 0 m 2
 270 0 l 2
 145 0 62 24 62 175 c 2
 62 286 l 2
 62 437 145 461 270 461 c 2
 299 461 l 2
 423 461 506 437 506 286 c 2
 506 175 l 2
 506 24 423 0 299 0 c 2
270 42 m 2
 299 42 l 2
 410 42 464 53 464 175 c 2
 464 286 l 2
 464 408 410 419 299 419 c 2
 270 419 l 2
 158 419 104 408 104 286 c 2
 104 175 l 2
 104 53 158 42 270 42 c 2
EndSplineSet
Fore
Refer: 317 710 S 1 0 0 1 83 12 2
Refer: 80 111 N 1 0 0 1 0 0 3
Validated: 1
EndChar

StartChar: otilde
Encoding: 245 245 180
Width: 568
Flags: W
HStem: 0 42<146.038 422.041> 419 42<146.038 422.041> 523 46<280.172 368.359> 563 46<198.773 287.828>
VStem: 62 42<83.1934 377.807> 148 272 464 42<83.1934 377.807>
CounterMasks: 1 0e
LayerCount: 2
Back
SplineSet
331 571 m 2x14
 333 570 336 569 338 569 c 0
 342 569 345 571 349 574 c 2
 380 602 l 2
 387 607 392 610 399 610 c 0
 409 610 420 603 420 592 c 0
 420 585 417 577 408 569 c 2
 361 530 l 2
 357 526 352 523 345 523 c 0x24
 342 523 338 524 335 525 c 2
 237 561 l 2
 235 562 231 563 229 563 c 0
 225 563 222 561 218 558 c 2
 187 530 l 2
 180 525 175 522 168 522 c 0
 159 522 148 529 148 541 c 0
 148 548 151 556 160 563 c 2
 207 602 l 1
 210 606 215 609 222 609 c 0
 225 609 229 608 233 607 c 2
 331 571 l 2x14
299 0 m 2xca
 270 0 l 2
 145 0 62 24 62 175 c 2
 62 286 l 2
 62 437 145 461 270 461 c 2
 299 461 l 2
 423 461 506 437 506 286 c 2
 506 175 l 2
 506 24 423 0 299 0 c 2xca
270 42 m 2
 299 42 l 2
 410 42 464 53 464 175 c 2
 464 286 l 2
 464 408 410 419 299 419 c 2
 270 419 l 2
 158 419 104 408 104 286 c 2
 104 175 l 2
 104 53 158 42 270 42 c 2
EndSplineSet
Fore
Refer: 323 732 N 1 0 0 1 83 340 2
Refer: 80 111 N 1 0 0 1 0 0 3
Validated: 1
EndChar

StartChar: odieresis
Encoding: 246 246 181
Width: 568
Flags: W
HStem: 0 42<146.038 422.041> 419 42<146.038 422.041> 522 72<170.588 253.879 316.588 399.879>
VStem: 62 42<83.1934 377.807> 166 92<528.714 587.286> 312 92<528.714 587.286> 464 42<83.1934 377.807>
LayerCount: 2
Back
SplineSet
312 558 m 0
 312 577 338 594 358 594 c 0
 377 594 404 577 404 558 c 0
 404 538 377 522 358 522 c 0
 338 522 312 538 312 558 c 0
166 558 m 0
 166 577 192 594 212 594 c 0
 231 594 258 577 258 558 c 0
 258 538 231 522 212 522 c 0
 192 522 166 538 166 558 c 0
299 0 m 2
 270 0 l 2
 145 0 62 24 62 175 c 2
 62 286 l 2
 62 437 145 461 270 461 c 2
 299 461 l 2
 423 461 506 437 506 286 c 2
 506 175 l 2
 506 24 423 0 299 0 c 2
270 42 m 2
 299 42 l 2
 410 42 464 53 464 175 c 2
 464 286 l 2
 464 408 410 419 299 419 c 2
 270 419 l 2
 158 419 104 408 104 286 c 2
 104 175 l 2
 104 53 158 42 270 42 c 2
EndSplineSet
Fore
Refer: 103 168 N 1 0 0 1 101 -72 2
Refer: 80 111 N 1 0 0 1 0 0 3
Validated: 1
EndChar

StartChar: divide
Encoding: 247 247 182
Width: 440
Flags: W
HStem: 92 72<173.988 258.012> 209 43<70.0063 369.936> 297 72<173.988 258.012>
VStem: 170 92<98.448 157.552 303.448 362.552>
CounterMasks: 1 e0
LayerCount: 2
Fore
SplineSet
170 333 m 128,-1,1
 170 347 170 347 185 358 c 128,-1,2
 200 369 200 369 216 369 c 128,-1,3
 232 369 232 369 247 358 c 128,-1,4
 262 347 262 347 262 333 c 128,-1,5
 262 319 262 319 247 308 c 128,-1,6
 232 297 232 297 216 297 c 128,-1,7
 200 297 200 297 185 308 c 128,-1,0
 170 319 170 319 170 333 c 128,-1,1
170 128 m 128,-1,9
 170 142 170 142 185 153 c 128,-1,10
 200 164 200 164 216 164 c 128,-1,11
 232 164 232 164 247 153 c 128,-1,12
 262 142 262 142 262 128 c 128,-1,13
 262 114 262 114 247 103 c 128,-1,14
 232 92 232 92 216 92 c 128,-1,15
 200 92 200 92 185 103 c 128,-1,8
 170 114 170 114 170 128 c 128,-1,9
96 209 m 1,16,17
 95 209 95 209 94 209 c 0,18,19
 70 209 70 209 70 230 c 0,20,21
 70 252 70 252 96 252 c 2,22,-1
 341 252 l 2,23,24
 370 252 370 252 370 229 c 0,25,26
 370 209 370 209 341 209 c 2,27,-1
 96 209 l 1,16,17
EndSplineSet
Validated: 1
EndChar

StartChar: oslash
Encoding: 248 248 183
Width: 568
Flags: W
HStem: -8 21G<99.25 107.75> 0 42<165.31 422.041> 419 42<146.038 403.238> 449 20G<461.25 469.75>
VStem: 62 42<82.9688 377.807> 464 42<83.1934 377.641>
AnchorPoint: "top" 284 510 basechar 0
AnchorPoint: "bottom" 284 0 basechar 0
LayerCount: 2
Fore
SplineSet
446 456 m 2,0,1
 457 469 457 469 465.5 469 c 128,-1,2
 474 469 474 469 481 463 c 128,-1,3
 488 457 488 457 488 448.5 c 128,-1,4
 488 440 488 440 479 429 c 2,5,-1
 467 415 l 1,6,7
 506 374 506 374 506 286 c 2,8,-1
 506 175 l 2,9,10
 506 70 506 70 455 35 c 128,-1,11
 404 0 404 0 299 0 c 2,12,-1
 270 0 l 2,13,14
 181 0 181 0 137 20 c 1,15,-1
 123 5 l 2,16,17
 112 -8 112 -8 103.5 -8 c 128,-1,18
 95 -8 95 -8 88 -2 c 128,-1,19
 81 4 81 4 81 12 c 128,-1,20
 81 20 81 20 91 32 c 2,21,-1
 102 45 l 1,22,23
 62 87 62 87 62 175 c 2,24,-1
 62 286 l 2,25,26
 62 391 62 391 113 426 c 128,-1,27
 164 461 164 461 270 461 c 2,28,-1
 299 461 l 2,29,30
 390 461 390 461 433 439 c 1,31,-1
 446 456 l 2,0,1
270 42 m 2,32,-1
 299 42 l 2,33,34
 346 42 346 42 372.5 45.5 c 128,-1,35
 399 49 399 49 422 62.5 c 128,-1,36
 445 76 445 76 454.5 103 c 128,-1,37
 464 130 464 130 464 175 c 2,38,-1
 464 286 l 2,39,40
 464 354 464 354 440 383 c 1,41,-1
 164 53 l 1,42,43
 196 42 196 42 270 42 c 2,32,-1
129 77 m 1,44,-1
 405 407 l 1,45,46
 373 419 373 419 299 419 c 2,47,-1
 270 419 l 2,48,49
 222 419 222 419 195.5 415.5 c 128,-1,50
 169 412 169 412 146 398.5 c 128,-1,51
 123 385 123 385 113.5 358 c 128,-1,52
 104 331 104 331 104 286 c 2,53,-1
 104 175 l 2,54,55
 104 106 104 106 129 77 c 1,44,-1
EndSplineSet
Validated: 1
EndChar

StartChar: ugrave
Encoding: 249 249 184
Width: 588
Flags: W
HStem: 0 42<154.038 393.215> 448 20<80.5 101.5 482.5 503.5> 510 168
VStem: 70 42<83.1934 467.993> 190 145 472 42<-6.93188 72 124.102 467.993>
LayerCount: 2
Back
SplineSet
190 657 m 0
 190 670 202 678 210 678 c 0
 216 678 223 674 231 665 c 2
 327 550 l 2
 333 543 335 537 335 530 c 0
 335 518 323 510 315 510 c 0
 309 510 302 514 294 523 c 2
 198 638 l 2
 192 645 190 651 190 657 c 0
307 42 m 2
 412 42 472 108 472 228 c 2
 472 438 l 2
 472 458 478 468 493 468 c 0
 508 468 514 458 514 438 c 2
 514 24 l 2
 514 3 509 -7 495 -7 c 0
 479 -7 472 3 472 24 c 2
 472 72 l 1
 435 23 372 0 307 0 c 2
 278 0 l 2
 153 0 70 24 70 175 c 2
 70 438 l 2
 70 458 75 468 90 468 c 0
 106 468 112 458 112 438 c 2
 112 175 l 2
 112 53 166 42 278 42 c 2
 307 42 l 2
EndSplineSet
Fore
Refer: 65 96 S 1 0 0 1 156 0 2
Refer: 86 117 N 1 0 0 1 0 0 3
Validated: 1
EndChar

StartChar: uacute
Encoding: 250 250 185
Width: 588
Flags: W
HStem: 0 42<154.038 393.215> 448 20<80.5 101.5 482.5 503.5> 510 168
VStem: 70 42<83.1934 467.993> 272 145 472 42<-6.93188 72 124.102 467.993>
LayerCount: 2
Back
SplineSet
417 657 m 0
 417 651 415 645 409 638 c 2
 313 523 l 2
 305 514 298 510 292 510 c 0
 284 510 272 518 272 530 c 0
 272 537 274 543 280 550 c 2
 376 665 l 2
 384 674 391 678 397 678 c 0
 405 678 417 670 417 657 c 0
307 42 m 2
 412 42 472 108 472 228 c 2
 472 438 l 2
 472 458 478 468 493 468 c 0
 508 468 514 458 514 438 c 2
 514 24 l 2
 514 3 509 -7 495 -7 c 0
 479 -7 472 3 472 24 c 2
 472 72 l 1
 435 23 372 0 307 0 c 2
 278 0 l 2
 153 0 70 24 70 175 c 2
 70 438 l 2
 70 458 75 468 90 468 c 0
 106 468 112 458 112 438 c 2
 112 175 l 2
 112 53 166 42 278 42 c 2
 307 42 l 2
EndSplineSet
Fore
Refer: 115 180 S 1 0 0 1 238 0 2
Refer: 86 117 N 1 0 0 1 0 0 3
Validated: 1
EndChar

StartChar: ucircumflex
Encoding: 251 251 186
Width: 588
Flags: W
HStem: 0 42<154.038 393.215> 448 20<80.5 101.5 482.5 503.5> 529 168
VStem: 70 42<83.1934 467.993> 155 273<529 555> 472 42<-6.93188 72 124.102 467.993>
LayerCount: 2
Back
SplineSet
292 651 m 1
 289 651 l 1
 197 547 l 2
 186 535 183 529 173 529 c 0
 163 529 155 535 155 547 c 0
 155 551 156 557 159 560 c 2
 263 697 l 1
 318 697 l 1
 424 560 l 2
 427 556 428 551 428 547 c 0
 428 535 420 529 410 529 c 0
 399 529 396 536 386 547 c 2
 292 651 l 1
307 42 m 2
 412 42 472 108 472 228 c 2
 472 438 l 2
 472 458 478 468 493 468 c 0
 508 468 514 458 514 438 c 2
 514 24 l 2
 514 3 509 -7 495 -7 c 0
 479 -7 472 3 472 24 c 2
 472 72 l 1
 435 23 372 0 307 0 c 2
 278 0 l 2
 153 0 70 24 70 175 c 2
 70 438 l 2
 70 458 75 468 90 468 c 0
 106 468 112 458 112 438 c 2
 112 175 l 2
 112 53 166 42 278 42 c 2
 307 42 l 2
EndSplineSet
Fore
Refer: 317 710 N 1 0 0 1 90 19 2
Refer: 86 117 N 1 0 0 1 0 0 3
Validated: 1
EndChar

StartChar: udieresis
Encoding: 252 252 187
Width: 588
Flags: W
HStem: 0 42<154.038 393.215> 448 20<80.5 101.5 482.5 503.5> 529 72<177.588 260.879 323.588 406.879>
VStem: 70 42<83.1934 467.993> 173 92<535.714 594.286> 319 92<535.714 594.286> 472 42<-6.93188 72 124.102 467.993>
LayerCount: 2
Back
SplineSet
319 565 m 0
 319 584 345 601 365 601 c 0
 384 601 411 584 411 565 c 0
 411 545 384 529 365 529 c 0
 345 529 319 545 319 565 c 0
173 565 m 0
 173 584 199 601 219 601 c 0
 238 601 265 584 265 565 c 0
 265 545 238 529 219 529 c 0
 199 529 173 545 173 565 c 0
307 42 m 2
 412 42 472 108 472 228 c 2
 472 438 l 2
 472 458 478 468 493 468 c 0
 508 468 514 458 514 438 c 2
 514 24 l 2
 514 3 509 -7 495 -7 c 0
 479 -7 472 3 472 24 c 2
 472 72 l 1
 435 23 372 0 307 0 c 2
 278 0 l 2
 153 0 70 24 70 175 c 2
 70 438 l 2
 70 458 75 468 90 468 c 0
 106 468 112 458 112 438 c 2
 112 175 l 2
 112 53 166 42 278 42 c 2
 307 42 l 2
EndSplineSet
Fore
Refer: 103 168 N 1 0 0 1 108 -65 2
Refer: 86 117 N 1 0 0 1 0 0 3
Validated: 1
EndChar

StartChar: yacute
Encoding: 253 253 188
Width: 589
Flags: W
HStem: -205 42<125.411 461.682> 0 42<154.038 393.215> 448 20<80.5 101.5 482.5 503.5> 510 168
VStem: 70 42<-147.012 -68.0088 83.1934 467.992> 273 145 472 42<-151.136 72 124.102 467.992>
LayerCount: 2
Back
SplineSet
418 657 m 0
 418 651 416 645 410 638 c 2
 314 523 l 2
 306 514 299 510 293 510 c 0
 285 510 273 518 273 530 c 0
 273 537 275 543 281 550 c 2
 377 665 l 2
 385 674 392 678 398 678 c 0
 406 678 418 670 418 657 c 0
514 -92 m 2
 514 -176 495 -205 428 -205 c 2
 165 -205 l 2
 78 -205 70 -148 70 -98 c 0
 70 -78 76 -68 91 -68 c 0
 106 -68 112 -77 112 -96 c 0
 112 -143 126 -163 172 -163 c 2
 421 -163 l 2
 463 -163 472 -150 472 -108 c 2
 472 72 l 1
 435 23 372 0 307 0 c 2
 278 0 l 2
 153 0 70 24 70 175 c 2
 70 436 l 2
 70 456 75 468 91 468 c 0
 106 468 112 456 112 436 c 2
 112 175 l 2
 112 53 166 42 278 42 c 2
 307 42 l 2
 412 42 472 108 472 228 c 2
 472 436 l 2
 472 456 478 468 494 468 c 0
 508 468 514 456 514 436 c 2
 514 -92 l 2
EndSplineSet
Fore
Refer: 115 180 N 1 0 0 1 239 0 2
Refer: 90 121 N 1 0 0 1 0 0 3
Validated: 1
EndChar

StartChar: thorn
Encoding: 254 254 189
Width: 581
Flags: W
HStem: 0 42<117 435.041> 419 42<194.4 435.041> 623 20G<85.5 106.5>
VStem: 75 42<-181.934 0 42 336.135 389 642.993> 477 42<83.1934 377.807>
LayerCount: 2
Fore
SplineSet
477 286 m 2,0,1
 477 331 477 331 467.5 358 c 128,-1,2
 458 385 458 385 435 398.5 c 128,-1,3
 412 412 412 412 385.5 415.5 c 128,-1,4
 359 419 359 419 312 419 c 2,5,-1
 283 419 l 2,6,7
 203 419 203 419 160 370.5 c 128,-1,8
 117 322 117 322 117 232 c 2,9,-1
 117 42 l 1,10,-1
 312 42 l 2,11,12
 359 42 359 42 385.5 45.5 c 128,-1,13
 412 49 412 49 435 62.5 c 128,-1,14
 458 76 458 76 467.5 103 c 128,-1,15
 477 130 477 130 477 175 c 2,16,-1
 477 286 l 2,0,1
519 175 m 2,17,18
 519 70 519 70 468 35 c 128,-1,19
 417 0 417 0 312 0 c 2,20,-1
 117 0 l 1,21,-1
 117 -152 l 2,22,23
 117 -182 117 -182 94 -182 c 0,24,25
 75 -182 75 -182 75 -152 c 2,26,-1
 75 613 l 2,27,28
 75 643 75 643 96 643 c 128,-1,29
 117 643 117 643 117 613 c 2,30,-1
 117 389 l 1,31,32
 173 461 173 461 283 461 c 2,33,-1
 312 461 l 2,34,35
 417 461 417 461 468 426 c 128,-1,36
 519 391 519 391 519 286 c 2,37,-1
 519 175 l 2,17,18
EndSplineSet
Validated: 1
EndChar

StartChar: ydieresis
Encoding: 255 255 190
Width: 589
Flags: W
HStem: -205 42<125.411 461.682> 0 42<154.038 393.215> 448 20<80.5 101.5 482.5 503.5> 529 72<178.588 261.879 324.588 407.879>
VStem: 70 42<-147.012 -68.0088 83.1934 467.992> 174 92<535.714 594.286> 320 92<535.714 594.286> 472 42<-151.136 72 124.102 467.992>
LayerCount: 2
Back
SplineSet
320 565 m 0
 320 584 346 601 366 601 c 0
 385 601 412 584 412 565 c 0
 412 545 385 529 366 529 c 0
 346 529 320 545 320 565 c 0
174 565 m 0
 174 584 200 601 220 601 c 0
 239 601 266 584 266 565 c 0
 266 545 239 529 220 529 c 0
 200 529 174 545 174 565 c 0
514 -92 m 2
 514 -176 495 -205 428 -205 c 2
 165 -205 l 2
 78 -205 70 -148 70 -98 c 0
 70 -78 76 -68 91 -68 c 0
 106 -68 112 -77 112 -96 c 0
 112 -143 126 -163 172 -163 c 2
 421 -163 l 2
 463 -163 472 -150 472 -108 c 2
 472 72 l 1
 435 23 372 0 307 0 c 2
 278 0 l 2
 153 0 70 24 70 175 c 2
 70 436 l 2
 70 456 75 468 91 468 c 0
 106 468 112 456 112 436 c 2
 112 175 l 2
 112 53 166 42 278 42 c 2
 307 42 l 2
 412 42 472 108 472 228 c 2
 472 436 l 2
 472 456 478 468 494 468 c 0
 508 468 514 456 514 436 c 2
 514 -92 l 2
EndSplineSet
Fore
Refer: 103 168 N 1 0 0 1 109 -65 2
Refer: 90 121 N 1 0 0 1 0 0 3
Validated: 1
EndChar

StartChar: Amacron
Encoding: 256 256 191
Width: 548
Flags: W
HStem: 204 42<154 394> 706 43<124.006 423.936>
VStem: 23 43<-15.9805 4> 124 300<706.328 748.641> 482 43<-15.9805 4>
CounterMasks: 1 38
LayerCount: 2
Back
SplineSet
150 706 m 2
 132 706 124 714 124 728 c 0
 124 741 132 749 150 749 c 2
 395 749 l 2
 413 749 424 741 424 726 c 0
 424 714 413 706 395 706 c 2
 150 706 l 2
44 -16 m 0
 38 -16 23 -12 23 4 c 0
 23 8 24 13 26 18 c 2
 251 636 l 1
 297 636 l 1
 522 18 l 2
 524 13 525 8 525 4 c 0
 525 -12 510 -16 504 -16 c 0
 495 -16 487 -9 482 4 c 2
 410 204 l 1
 138 204 l 1
 66 4 l 1
 60 -9 53 -16 44 -16 c 0
154 246 m 1
 394 246 l 1
 273 575 l 1
 154 246 l 1
EndSplineSet
Fore
Refer: 329 772 N 1 0 0 1 567 189 2
Refer: 34 65 N 1 0 0 1 0 0 3
Validated: 1
EndChar

StartChar: amacron
Encoding: 257 257 192
Width: 534
Flags: W
HStem: 0 42<122.83 341.215> 248 42<144.03 420> 419 42<125.281 406.589> 522 43<115.006 414.936>
VStem: 60 42<63.571 207.97 324.007 397.275> 115 300<522.328 564.641> 420 42<-6.99268 72 124.102 248 290 403.526>
LayerCount: 2
Back
SplineSet
141 522 m 2
 123 522 115 530 115 544 c 0
 115 557 123 565 141 565 c 2
 386 565 l 2
 404 565 415 557 415 542 c 0
 415 530 404 522 386 522 c 2
 141 522 l 2
268 248 m 2
 156 248 102 237 102 115 c 0
 102 77 131 42 162 42 c 2
 255 42 l 2
 360 42 420 108 420 228 c 2
 420 248 l 1
 268 248 l 2
268 290 m 2
 420 290 l 1
 420 354 l 2
 420 400 406 419 360 419 c 2
 219 419 l 2
 156 419 102 404 102 354 c 0
 102 334 97 324 80 324 c 0
 66 324 60 334 60 354 c 0
 60 431 130 461 212 461 c 2
 367 461 l 2
 441 461 462 430 462 337 c 2
 462 23 l 2
 462 3 456 -7 441 -7 c 0
 426 -7 420 3 420 23 c 2
 420 72 l 1
 383 23 320 0 255 0 c 2
 162 0 l 2
 104 0 60 45 60 120 c 0
 60 264 143 290 268 290 c 2
EndSplineSet
Fore
Refer: 329 772 N 1 0 0 1 558 5 2
Refer: 66 97 N 1 0 0 1 0 0 3
Validated: 1
EndChar

StartChar: Abreve
Encoding: 258 258 193
Width: 548
Flags: W
HStem: 204 42<154 394> 698 44<221.829 326.171>
VStem: 23 43<-15.9805 4> 159 43<764.175 819> 346 43<764.175 819> 482 43<-15.9805 4>
LayerCount: 2
Back
SplineSet
389 819 m 1
 389 755 337 698 274 698 c 0
 211 698 159 755 159 819 c 1
 202 819 l 1
 202 774 229 742 274 742 c 0
 319 742 346 774 346 819 c 1
 389 819 l 1
44 -16 m 0
 38 -16 23 -12 23 4 c 0
 23 8 24 13 26 18 c 2
 251 636 l 1
 297 636 l 1
 522 18 l 2
 524 13 525 8 525 4 c 0
 525 -12 510 -16 504 -16 c 0
 495 -16 487 -9 482 4 c 2
 410 204 l 1
 138 204 l 1
 66 4 l 1
 60 -9 53 -16 44 -16 c 0
154 246 m 1
 394 246 l 1
 273 575 l 1
 154 246 l 1
EndSplineSet
Fore
Refer: 319 728 S 1 0 0 1 60 90 2
Refer: 34 65 N 1 0 0 1 0 0 3
Validated: 1
EndChar

StartChar: abreve
Encoding: 259 259 194
Width: 534
Flags: W
HStem: 0 42<122.83 341.215> 248 42<144.03 420> 419 42<125.281 406.589> 522 44<219.829 324.171>
VStem: 60 42<63.571 207.97 324.007 397.275> 157 43<588.175 643> 344 43<588.175 643> 420 42<-6.99268 72 124.102 248 290 403.526>
LayerCount: 2
Back
SplineSet
387 643 m 1
 387 579 335 522 272 522 c 0
 209 522 157 579 157 643 c 1
 200 643 l 1
 200 598 227 566 272 566 c 0
 317 566 344 598 344 643 c 1
 387 643 l 1
268 248 m 2
 156 248 102 237 102 115 c 0
 102 77 131 42 162 42 c 2
 255 42 l 2
 360 42 420 108 420 228 c 2
 420 248 l 1
 268 248 l 2
268 290 m 2
 420 290 l 1
 420 354 l 2
 420 400 406 419 360 419 c 2
 219 419 l 2
 156 419 102 404 102 354 c 0
 102 334 97 324 80 324 c 0
 66 324 60 334 60 354 c 0
 60 431 130 461 212 461 c 2
 367 461 l 2
 441 461 462 430 462 337 c 2
 462 23 l 2
 462 3 456 -7 441 -7 c 0
 426 -7 420 3 420 23 c 2
 420 72 l 1
 383 23 320 0 255 0 c 2
 162 0 l 2
 104 0 60 45 60 120 c 0
 60 264 143 290 268 290 c 2
EndSplineSet
Fore
Refer: 319 728 S 1 0 0 1 58 -86 2
Refer: 66 97 N 1 0 0 1 0 0 3
Validated: 1
EndChar

StartChar: Aogonek
Encoding: 260 260 195
Width: 547
Flags: W
HStem: -205 40<466.476 570.605> 204 42<154 394>
VStem: 23 43<-15.9805 4> 416 42<-157.852 -52.949>
AnchorPoint: "bottom" 274 0 basechar 0
AnchorPoint: "top" 273 678 basechar 0
LayerCount: 2
Fore
SplineSet
581 -160 m 0,0,1
 581 -184 581 -184 555.5 -194.5 c 128,-1,2
 530 -205 530 -205 507 -205 c 0,3,4
 467 -205 467 -205 441.5 -177.5 c 128,-1,5
 416 -150 416 -150 416 -106 c 0,6,7
 416 -84 416 -84 436 -48.5 c 128,-1,8
 456 -13 456 -13 479 13 c 1,9,-1
 410 204 l 1,10,-1
 138 204 l 1,11,-1
 66 4 l 1,12,13
 57 -16 57 -16 44 -16 c 0,14,15
 23 -16 23 -16 23 4 c 0,16,17
 23 11 23 11 26 18 c 2,18,-1
 251 636 l 1,19,-1
 297 636 l 1,20,-1
 522 18 l 2,21,22
 525 11 525 11 525 4 c 0,23,24
 525 -13 525 -13 507 -16 c 1,25,26
 489 -34 489 -34 473.5 -62.5 c 128,-1,27
 458 -91 458 -91 458 -106 c 0,28,29
 458 -165 458 -165 505 -165 c 0,30,31
 522 -165 522 -165 545 -156 c 128,-1,32
 568 -147 568 -147 571 -147 c 0,33,34
 581 -147 581 -147 581 -160 c 0,0,1
154 246 m 1,35,-1
 394 246 l 1,36,-1
 273 575 l 1,37,-1
 154 246 l 1,35,-1
EndSplineSet
Validated: 1
EndChar

StartChar: aogonek
Encoding: 261 261 196
Width: 534
Flags: W
HStem: -204 40<399.476 503.605> 0 42<122.83 341.215> 248 42<144.03 420> 419 42<125.281 406.589>
VStem: 60 42<63.571 207.97 324.007 397.275> 349 42<-156.852 -52.7758> 420 42<-1.1582 72 124.102 248 290 403.526>
AnchorPoint: "top" 263 510 basechar 0
AnchorPoint: "bottom" 254 0 basechar 0
LayerCount: 2
Fore
SplineSet
514 -159 m 0,0,1
 514 -183 514 -183 488.5 -193.5 c 128,-1,2
 463 -204 463 -204 440 -204 c 0,3,4
 400 -204 400 -204 374.5 -176.5 c 128,-1,5
 349 -149 349 -149 349 -105 c 0,6,7
 349 -82 349 -82 373 -41.5 c 128,-1,8
 397 -1 397 -1 420 23 c 1,9,-1
 420 72 l 1,10,11
 366 0 366 0 255 0 c 2,12,-1
 162 0 l 2,13,14
 116 0 116 0 88 32 c 0,15,16
 60 66 60 66 60 114 c 0,17,18
 60 242 60 242 141 272 c 0,19,20
 189 290 189 290 268 290 c 2,21,-1
 420 290 l 1,22,-1
 420 354 l 2,23,24
 420 389 420 389 407 404 c 128,-1,25
 394 419 394 419 360 419 c 2,26,-1
 219 419 l 2,27,28
 102 419 102 419 102 354 c 0,29,30
 102 324 102 324 81 324 c 128,-1,31
 60 324 60 324 60 354 c 0,32,33
 60 408 60 408 102.5 434.5 c 128,-1,34
 145 461 145 461 212 461 c 2,35,-1
 367 461 l 2,36,37
 422 461 422 461 442 434 c 128,-1,38
 462 407 462 407 462 337 c 2,39,-1
 462 23 l 2,40,41
 462 0 462 0 451 -5 c 1,42,43
 432 -18 432 -18 411.5 -53 c 128,-1,44
 391 -88 391 -88 391 -105 c 0,45,46
 391 -164 391 -164 438 -164 c 0,47,48
 455 -164 455 -164 478 -155 c 128,-1,49
 501 -146 501 -146 504 -146 c 0,50,51
 514 -146 514 -146 514 -159 c 0,0,1
268 248 m 2,52,53
 220 248 220 248 193.5 244.5 c 128,-1,54
 167 241 167 241 144 227.5 c 128,-1,55
 121 214 121 214 111.5 187 c 128,-1,56
 102 160 102 160 102 123.5 c 128,-1,57
 102 87 102 87 120.5 64.5 c 128,-1,58
 139 42 139 42 162 42 c 2,59,-1
 255 42 l 2,60,61
 334 42 334 42 377 90 c 128,-1,62
 420 138 420 138 420 228 c 2,63,-1
 420 248 l 1,64,-1
 268 248 l 2,52,53
EndSplineSet
Validated: 1
EndChar

StartChar: Cacute
Encoding: 262 262 197
Width: 572
Flags: W
HStem: 0 42<156.038 460.589> 594 42<156.038 460.589> 699 121
VStem: 72 42<83.1934 552.807> 291 122 474 42<57.473 136.963 499.009 578.012>
LayerCount: 2
Back
SplineSet
413 800 m 0
 413 793 409 787 402 779 c 2
 332 710 l 2
 325 702 318 699 312 699 c 0
 300 699 291 711 291 718 c 0
 291 726 295 732 303 740 c 2
 372 809 l 2
 379 817 387 820 393 820 c 0
 405 820 413 807 413 800 c 0
421 0 m 2
 280 0 l 2
 155 0 72 24 72 175 c 2
 72 461 l 2
 72 612 155 636 280 636 c 2
 421 636 l 2
 508 636 516 580 516 529 c 0
 516 509 510 499 495 499 c 0
 481 499 474 508 474 527 c 0
 474 574 460 594 414 594 c 2
 280 594 l 2
 168 594 114 583 114 461 c 2
 114 175 l 2
 114 53 168 42 280 42 c 2
 414 42 l 2
 460 42 474 61 474 109 c 0
 474 128 481 137 495 137 c 0
 510 137 516 127 516 106 c 0
 516 56 508 0 421 0 c 2
EndSplineSet
Fore
Refer: 326 769 S 1 0 0 1 661 189 2
Refer: 36 67 N 1 0 0 1 0 0 3
Validated: 1
EndChar

StartChar: cacute
Encoding: 263 263 198
Width: 564
Flags: W
HStem: 0 42<146.038 450.589> 419 42<146.038 450.589> 510 168
VStem: 62 42<83.1934 377.807> 265 145 464 42<57.473 136.963 324.009 403.012>
LayerCount: 2
Back
SplineSet
408 657 m 0
 408 651 406 645 400 638 c 2
 304 523 l 2
 296 514 289 510 283 510 c 0
 275 510 263 518 263 530 c 0
 263 537 265 543 271 550 c 2
 367 665 l 2
 375 674 382 678 388 678 c 0
 396 678 408 670 408 657 c 0
411 0 m 2
 270 0 l 2
 145 0 62 24 62 175 c 2
 62 286 l 2
 62 437 145 461 270 461 c 2
 411 461 l 2
 498 461 506 404 506 354 c 0
 506 334 500 324 485 324 c 0
 471 324 464 333 464 352 c 0
 464 399 450 419 404 419 c 2
 270 419 l 2
 158 419 104 408 104 286 c 2
 104 175 l 2
 104 53 158 42 270 42 c 2
 404 42 l 2
 450 42 464 61 464 109 c 0
 464 128 471 137 485 137 c 0
 500 137 506 127 506 106 c 0
 506 56 498 0 411 0 c 2
EndSplineSet
Fore
Refer: 115 180 N 1 0 0 1 231 0 2
Refer: 68 99 N 1 0 0 1 0 0 3
Validated: 1
EndChar

StartChar: Ccircumflex
Encoding: 264 264 199
Width: 572
Flags: W
HStem: 0 42<156.038 460.589> 594 42<156.038 460.589> 651 168
VStem: 72 42<83.1934 552.807> 170 273<651 677> 474 42<57.473 136.963 499.009 578.012>
LayerCount: 2
Back
SplineSet
307 773 m 1
 304 773 l 1
 212 669 l 2
 201 657 198 651 188 651 c 0
 178 651 170 657 170 669 c 0
 170 673 171 679 174 682 c 2
 278 819 l 1
 333 819 l 1
 439 682 l 2
 442 678 443 673 443 669 c 0
 443 657 435 651 425 651 c 0
 414 651 411 658 401 669 c 2
 307 773 l 1
421 0 m 2
 280 0 l 2
 155 0 72 24 72 175 c 2
 72 461 l 2
 72 612 155 636 280 636 c 2
 421 636 l 2
 508 636 516 580 516 529 c 0
 516 509 510 499 495 499 c 0
 481 499 474 508 474 527 c 0
 474 574 460 594 414 594 c 2
 280 594 l 2
 168 594 114 583 114 461 c 2
 114 175 l 2
 114 53 168 42 280 42 c 2
 414 42 l 2
 460 42 474 61 474 109 c 0
 474 128 481 137 495 137 c 0
 510 137 516 127 516 106 c 0
 516 56 508 0 421 0 c 2
EndSplineSet
Fore
Refer: 317 710 N 1 0 0 1 105 141 2
Refer: 36 67 N 1 0 0 1 0 0 3
Validated: 1
EndChar

